<svg width="1007" height="1007" viewBox="0 0 1007 1007" fill="none" xmlns="http://www.w3.org/2000/svg">
<g clip-path="url(#clip0)">
<path d="M797.928 351.875C824.066 302.688 805.381 241.625 756.193 215.487L661.54 393.61C710.727 419.748 771.79 401.062 797.928 351.875Z" fill="#D1B41B"/>
<path d="M619.805 257.222C645.943 208.034 707.006 189.349 756.193 215.487L661.54 393.61C612.353 367.472 593.668 306.409 619.805 257.222Z" fill="#D1B41B"/>
<circle cx="708.867" cy="304.548" r="48.1469" transform="rotate(-152.014 708.867 304.548)" fill="#FAFAFA"/>
<rect x="829.972" y="336.849" width="54.4808" height="42.572" rx="10" transform="rotate(117.986 829.972 336.849)" fill="#D1B41B"/>
<rect x="822.113" y="241.286" width="54.4808" height="42.572" rx="10" transform="rotate(72.986 822.113 241.286)" fill="#D1B41B"/>
<rect x="620.508" y="302.977" width="54.4808" height="42.572" rx="10" transform="rotate(72.986 620.508 302.977)" fill="#D1B41B"/>
<rect x="771.985" y="416.951" width="54.4808" height="42.572" rx="10" transform="rotate(162.986 771.985 416.951)" fill="#D1B41B"/>
<rect x="710.739" y="216.799" width="54.4808" height="42.572" rx="10" transform="rotate(162.986 710.739 216.799)" fill="#D1B41B"/>
<rect x="654.228" y="237.719" width="54.4808" height="42.572" rx="10" transform="rotate(117.986 654.228 237.719)" fill="#D1B41B"/>
<rect x="675.655" y="425.012" width="54.4808" height="42.572" rx="10" transform="rotate(-152.014 675.655 425.012)" fill="#D1B41B"/>
<rect x="770.309" y="246.889" width="54.4808" height="42.572" rx="10" transform="rotate(-152.014 770.309 246.889)" fill="#D1B41B"/>
<mask id="mask0" mask-type="alpha" maskUnits="userSpaceOnUse" x="523" y="188" width="380" height="218">
<path d="M604.419 240.508L610.307 229.66L553.406 216.978L537.535 239.531L583.458 297.398C640.271 319.357 754.624 363.354 757.533 363.668C760.442 363.983 820.905 383.705 850.774 393.527L889.658 351.762L812.509 301.214C811.631 301.453 809.825 301.927 809.624 301.904C809.725 305.486 809.804 307.026 809.509 311.838C809.213 316.65 756.25 295.802 756.25 295.802C756.25 295.802 754.2 280.265 740.749 268.525C733.679 262.353 724.616 250.714 724.616 250.714C724.616 250.714 716.994 257.383 710.706 256.949C705.08 256.562 700.555 256.647 693.982 258.361C685.777 260.501 675.453 268.338 675.453 268.338L604.419 240.508Z" fill="#C4C4C4"/>
</mask>
<g mask="url(#mask0)">
<path d="M865.77 356.687C865.4 357.692 864.466 358.907 862.195 360.098C859.889 361.308 856.526 362.311 851.994 362.944C842.94 364.209 830.29 363.857 814.794 361.828C783.884 357.78 742.754 347.214 698.806 331.021C654.859 314.828 616.706 296.181 590.56 279.206C577.452 270.695 567.598 262.756 561.528 255.918C558.491 252.496 556.583 249.551 555.613 247.134C554.658 244.754 554.736 243.223 555.106 242.219C555.48 241.204 556.43 239.973 558.753 238.77C561.11 237.55 564.545 236.546 569.167 235.922C578.401 234.678 591.294 235.088 607.065 237.209C637.863 241.35 678.589 251.864 722.07 267.885C773.273 286.752 816.543 308.923 842.145 327.871C851.35 334.684 858.017 340.895 861.974 346.193C866.098 351.714 866.393 354.997 865.77 356.687Z" stroke="#8F634D" stroke-width="10"/>
</g>
<circle cx="556.855" cy="254.525" r="8.86916" transform="rotate(20.227 556.855 254.525)" fill="#8F634D"/>
<circle cx="815.932" cy="363.488" r="17.4849" transform="rotate(20.227 815.932 363.488)" fill="#8F634D"/>
<path d="M339.482 573.402C262.643 557.666 187.595 607.199 171.859 684.038L450.118 741.026C465.855 664.186 416.321 589.139 339.482 573.402Z" fill="#9E7C22"/>
<path d="M282.494 851.662C205.655 835.925 156.122 760.878 171.859 684.038L450.118 741.026C434.381 817.865 359.334 867.398 282.494 851.662Z" fill="#9E7C22"/>
<circle cx="381.855" cy="742.406" r="35" transform="rotate(-9.41801 381.855 742.406)" fill="#FAFAFA"/>
<circle cx="279.82" cy="783.502" r="35" transform="rotate(-9.41801 279.82 783.502)" fill="#FAFAFA"/>
<circle cx="342.253" cy="644.081" r="35" transform="rotate(-9.41801 342.253 644.081)" fill="#FAFAFA"/>
<circle cx="239.864" cy="684.298" r="35" transform="rotate(-9.41801 239.864 684.298)" fill="#FAFAFA"/>
<circle cx="311.419" cy="713.225" r="6.97493" transform="rotate(-9.41801 311.419 713.225)" fill="#FAFAFA"/>
<rect x="225.752" y="568.303" width="50" height="46" rx="10" transform="rotate(-21.9378 225.752 568.303)" fill="#9E7C22"/>
<rect x="332.27" y="832.771" width="50" height="46" rx="10" transform="rotate(-21.9378 332.27 832.771)" fill="#9E7C22"/>
<rect x="156.859" y="646.184" width="50" height="46" rx="10" transform="rotate(-57.9378 156.859 646.184)" fill="#9E7C22"/>
<rect x="398.485" y="797.533" width="50" height="46" rx="10" transform="rotate(-57.9378 398.485 797.533)" fill="#9E7C22"/>
<rect x="147.695" y="749.232" width="50" height="46" rx="10" transform="rotate(-93.9378 147.695 749.232)" fill="#9E7C22"/>
<rect x="432.135" y="729.653" width="50" height="46" rx="10" transform="rotate(-93.9378 432.135 729.653)" fill="#9E7C22"/>
<rect x="200.253" y="838.371" width="50" height="46" rx="10" transform="rotate(-129.938 200.253 838.371)" fill="#9E7C22"/>
<rect x="418.862" y="655.34" width="50" height="46" rx="10" transform="rotate(-129.938 418.862 655.34)" fill="#9E7C22"/>
<rect x="326.41" y="546.21" width="50" height="46" rx="10" transform="rotate(14.0622 326.41 546.21)" fill="#9E7C22"/>
<rect x="257.135" y="822.78" width="50" height="46" rx="10" transform="rotate(14.0622 257.135 822.78)" fill="#9E7C22"/>
<mask id="mask1" mask-type="alpha" maskUnits="userSpaceOnUse" x="36" y="566" width="537" height="286">
<path d="M146.5 732L145.5 718L57.4232 757.769L59.2986 796.558L160.381 821.126C242.501 796.377 407.618 746.338 411.121 744.171C414.625 742.004 498.867 711.612 540.55 696.687L547.623 616.645C547.623 616.645 447.451 603.604 450 624C450.5 628 447.555 631.098 446 632.5C444.288 634.043 443 635 439.5 638C420.368 654.399 376.698 650 376.698 650C378.198 644.5 377 638 376 635C367 635.5 303.247 639.327 308 652C309.5 656 310 660.5 315 666C315 666 278.334 694.602 274.5 678.5C272 668 270.644 668.068 267 662C253.854 640.106 227.667 673.075 205.5 690C205.5 694.5 208.2 700.4 211 704L146.5 732Z" fill="#C4C4C4"/>
</mask>
<g mask="url(#mask1)">
<path d="M527.288 642.162C527.944 644.22 527.812 646.913 526.18 650.508C524.532 654.139 521.493 658.355 516.914 663.072C507.764 672.5 493.226 683.16 474.186 694.351C436.175 716.69 381.187 740.586 318.249 760.644C255.312 780.701 196.636 793.029 152.709 796.802C130.705 798.693 112.68 798.41 99.7617 796.015C93.2983 794.817 88.3795 793.137 84.9346 791.129C81.5237 789.141 79.8578 787.021 79.2022 784.963C78.5398 782.885 78.6813 780.156 80.3621 776.504C82.0586 772.818 85.1785 768.539 89.8656 763.756C99.2327 754.197 114.09 743.393 133.515 732.066C171.48 709.93 225.971 686.327 288.241 666.482C361.554 643.118 429.013 630.264 474.116 629.162C490.324 628.766 503.331 629.899 512.587 632.438C522.111 635.051 526.188 638.712 527.288 642.162Z" stroke="#D1B41B" stroke-width="10"/>
</g>
<circle cx="147.692" cy="796.692" r="12.489" transform="rotate(-17.6766 147.692 796.692)" fill="#D1B41B"/>
<circle cx="100.934" cy="791.935" r="24.6211" transform="rotate(-17.6766 100.934 791.935)" fill="#D1B41B"/>
</g>
<defs>
<clipPath id="clip0">
<rect width="1007" height="1007" fill="white"/>
</clipPath>
</defs>
</svg>
