<svg width="989" height="764" viewBox="0 0 989 764" fill="none" xmlns="http://www.w3.org/2000/svg">
<path d="M816.04 125.343C822.187 138.032 853.091 208.041 895.052 221.49C945.456 237.646 986.099 305.311 944.36 362.428C928.911 383.569 874.443 442.664 915.209 508.687C955.975 574.71 943.818 588.678 936.531 625.263C929.245 661.847 866.619 705.578 783.069 685.179C699.518 664.78 671.016 679.89 610.285 703.811C549.554 727.732 454.99 737.619 412.039 734.061C369.087 730.503 327.572 700.607 284.683 651.13C241.793 601.654 113.169 594.243 96.3669 588.857C79.5652 583.472 15.8563 564.966 10.1298 483.376C4.4034 401.787 42.0245 376.201 87.8484 327.085C133.672 277.968 121.575 246.017 150.659 145.597C179.743 45.1768 303.725 33.2345 351.091 52.8822C398.456 72.5299 446.676 151.15 499.953 114.632C542.575 85.4177 585.155 64.951 601.116 58.3695C748.958 11.964 808.358 109.481 816.04 125.343Z" fill="#1A2C52"/>
<mask id="mask0" mask-type="alpha" maskUnits="userSpaceOnUse" x="9" y="44" width="953" height="691">
<path d="M816.04 125.343C822.187 138.032 853.091 208.041 895.052 221.49C945.456 237.646 986.099 305.311 944.36 362.428C928.911 383.569 874.443 442.664 915.209 508.687C955.975 574.71 943.818 588.678 936.531 625.263C929.245 661.847 866.619 705.578 783.069 685.179C699.518 664.78 671.016 679.89 610.285 703.811C549.554 727.732 454.99 737.619 412.039 734.061C369.087 730.503 327.572 700.607 284.683 651.13C241.793 601.654 113.169 594.243 96.3669 588.857C79.5652 583.472 15.8563 564.966 10.1298 483.376C4.4034 401.787 42.0245 376.201 87.8484 327.085C133.672 277.968 121.575 246.017 150.659 145.597C179.743 45.1768 303.725 33.2345 351.091 52.8822C398.456 72.5299 446.676 151.15 499.953 114.632C542.575 85.4177 585.155 64.951 601.116 58.3695C748.958 11.964 808.358 109.481 816.04 125.343Z" fill="#1A2C52"/>
</mask>
<g mask="url(#mask0)">
<mask id="mask1" mask-type="alpha" maskUnits="userSpaceOnUse" x="3" y="330" width="857" height="423">
<path d="M859 698.5C532.204 388.062 150.836 308.586 4 336V573.5C237.5 874 868 707.049 859 698.5Z" fill="#C4C4C4" stroke="black"/>
</mask>
<g mask="url(#mask1)">
<path d="M816.04 125.343C822.187 138.032 853.091 208.041 895.052 221.49C945.456 237.646 986.099 305.311 944.36 362.428C928.911 383.569 874.443 442.664 915.209 508.687C955.975 574.71 943.818 588.678 936.531 625.263C929.245 661.847 866.619 705.578 783.069 685.179C699.518 664.78 671.016 679.89 610.285 703.811C549.554 727.732 454.99 737.619 412.039 734.061C369.087 730.503 327.572 700.607 284.683 651.13C241.793 601.654 113.169 594.243 96.3669 588.857C79.5652 583.472 15.8563 564.966 10.1298 483.376C4.4034 401.787 42.0245 376.201 87.8484 327.085C133.672 277.968 121.575 246.017 150.659 145.597C179.743 45.1768 303.725 33.2345 351.091 52.8822C398.456 72.5299 446.676 151.15 499.953 114.632C542.575 85.4177 585.155 64.951 601.116 58.3695C748.958 11.964 808.358 109.481 816.04 125.343Z" fill="#2C72A3"/>
<path d="M81.2702 424.786C60.2711 420.243 63.7646 419.991 55.5604 398.699C45.7678 396.287 45.704 375.418 46.8961 365.285C45.59 346.215 68.5968 338.924 80.7422 329.554C191.933 296.6 462.775 302.425 656.613 589.352C660.383 600.826 707.755 682.31 686.594 686.144C673.973 688.43 653.372 663.149 645.468 654.97C631.804 640.831 611.464 639.708 597.617 627.458C585.55 616.783 563.818 617.801 548.812 617.04C528.375 616.003 515.004 607.063 501.266 591.179C485.069 572.452 468.945 569.75 449.828 557.441C433.491 546.921 420.677 532.471 411.14 515.307C402.144 499.117 395.452 489.145 382.691 477.475C375.174 470.601 352.099 461.916 342.576 463.847C328.01 466.8 316.449 473.897 308.487 457.446C304.662 449.541 308.85 421.057 289.893 424.248C250.94 418.514 189.126 454.783 163.088 473.635C145.807 488.581 156.431 448.996 141.654 449.112C131.694 437.805 97.2482 428.183 81.2702 424.786Z" fill="#89C36C"/>
</g>
<circle cx="735.222" cy="142.222" r="17" transform="rotate(-16.6141 735.222 142.222)" fill="#CFCFCF"/>
<path d="M724.857 130.832C724.816 132.937 722.149 134.837 720.821 135.524C718.704 139.642 724.122 142.384 726.955 140.667C729.788 138.95 733.405 142.665 734.506 144.952C735.606 147.238 742.646 138.6 736.383 140.033C731.373 141.179 731.787 138.644 732.621 137.233C733.19 136.337 734.036 133.847 732.869 131.057C731.702 128.267 729.203 127.647 728.1 127.686C727.036 127.858 724.898 128.728 724.857 130.832Z" fill="#9F9F9F"/>
<path d="M742.989 136.775C741.502 131.792 743.747 131.156 745.056 131.462C746.157 131.655 745.056 131.462 746.157 131.655C747.259 131.848 746.443 132.613 747.401 132.327C748.168 132.098 749.344 135.922 750.075 137.791C749.403 139.035 746.857 144.491 748.673 147.08C750.489 149.668 748.522 151.82 746.891 153.351C745.261 154.881 745.075 150.762 742.823 151.956C740.57 153.15 741.235 157.125 739.175 157.218C737.115 157.311 736.922 158.413 731.845 158.884C729.643 158.497 729.499 158.018 728.734 157.203C727.969 156.388 729.886 155.816 731.609 156.345C733.333 156.875 733.097 154.336 732.668 152.899C732.239 151.461 727.541 154.95 728.07 153.227C728.599 151.504 730.465 152.512 730.137 147.914C729.809 143.316 734.735 147.586 734.685 149.166C734.635 150.746 734.82 154.865 741.007 149.367C747.193 143.869 744.847 143.003 742.989 136.775Z" fill="#9F9F9F"/>
<g style="mix-blend-mode:overlay">
<path d="M749.121 132.136C755.684 142.473 750.3 151.362 746.787 154.515C748.364 134.571 728.494 127.472 727.551 126.87C740.264 120.656 749.153 131.827 749.121 132.136Z" fill="#343434"/>
</g>
<path d="M291 163L291.53 168.811L296 169.5L291.53 170.189L291 176L290.47 170.189L286 169.5L290.47 168.811L291 163Z" fill="white"/>
<path d="M851 335L851.53 340.811L856 341.5L851.53 342.189L851 348L850.47 342.189L846 341.5L850.47 340.811L851 335Z" fill="white"/>
<path d="M692 88L692.53 93.8106L697 94.5L692.53 95.1894L692 101L691.47 95.1894L687 94.5L691.47 93.8106L692 88Z" fill="white"/>
<path d="M144 250L144.53 255.811L149 256.5L144.53 257.189L144 263L143.47 257.189L139 256.5L143.47 255.811L144 250Z" fill="white"/>
<path d="M690 456L690.53 461.811L695 462.5L690.53 463.189L690 469L689.47 463.189L685 462.5L689.47 461.811L690 456Z" fill="white"/>
<path d="M689 219L689.53 224.811L694 225.5L689.53 226.189L689 232L688.47 226.189L684 225.5L688.47 224.811L689 219Z" fill="white"/>
<path d="M509 247L509.53 252.811L514 253.5L509.53 254.189L509 260L508.47 254.189L504 253.5L508.47 252.811L509 247Z" fill="white"/>
<path d="M897 611L897.53 616.811L902 617.5L897.53 618.189L897 624L896.47 618.189L892 617.5L896.47 616.811L897 611Z" fill="white"/>
<path d="M285.29 447.127H3.25445C-2.16931 447.127 -32 444.827 -32 459.782C-32 471.746 -15.7287 473.97 -7.59307 473.586H54.7802C61.1079 473.586 73.7633 475.657 73.7633 483.94C73.7633 492.222 61.1079 495.06 54.7802 495.443H35.797C29.4693 495.06 16.8139 496.364 16.8139 504.647C16.8139 512.929 29.4693 515 35.797 515H228.341C235.572 514.617 250.036 511.779 250.036 503.496C250.036 495.213 235.572 492.376 228.341 491.992H176.815C168.679 490.842 160.544 487.391 160.544 481.639C160.544 477.037 171.391 474.353 176.815 473.586H285.29C296.138 472.436 316.748 467.834 312.409 458.631C308.07 449.428 292.522 447.127 285.29 447.127Z" fill="#E7EBF1"/>
<path d="M446 567.921C446 575.984 458.65 578 464.974 578L711 576.117C681 555 648 534 616 514.435L508.237 511.124C502.815 511.124 472.998 508.884 472.998 523.442C472.998 535.089 489.262 537.254 497.394 536.881H559.738C566.063 536.881 578.713 538.896 578.713 546.959C578.713 555.022 566.063 557.784 559.738 558.158L464.974 558.963C458.65 558.589 446 559.858 446 567.921Z" fill="#E7EBF1"/>
<path d="M476.29 712.127H194.254C188.831 712.127 159 709.827 159 724.782C159 736.746 175.271 738.97 183.407 738.586H245.78C252.108 738.586 264.763 740.657 264.763 748.94C264.763 757.222 252.108 760.06 245.78 760.443H226.797C220.469 760.06 207.814 761.364 207.814 769.647C207.814 777.929 220.469 780 226.797 780H419.341C426.572 779.617 441.036 776.779 441.036 768.496C441.036 760.213 426.572 757.376 419.341 756.992H367.815C359.679 755.842 351.544 752.391 351.544 746.639C351.544 742.037 362.391 739.353 367.815 738.586H476.29C487.138 737.436 507.748 732.834 503.409 723.631C499.07 714.428 483.522 712.127 476.29 712.127Z" fill="#E7EBF1"/>
<path d="M781.367 736.61C670.79 228.448 525.808 150.95 423.118 186.557C408.449 191.643 393.061 201.436 375.727 220.262C334.109 265.46 319.31 301.885 301.256 342.736C357.109 202.104 421.989 184.541 422.553 184.541C633.328 114.806 754.851 546.775 792.087 736.61H781.367Z" fill="#F4B778"/>
<path d="M779.111 737.901C668.533 229.739 523.551 152.241 420.861 187.848C406.193 192.935 390.805 205.311 373.471 224.136C331.853 269.334 318.182 305.321 300.128 346.172C353.161 209.93 420.297 186.04 420.861 186.04C631.636 116.305 752.595 548.067 789.83 737.901H779.111Z" fill="#FFFEFD"/>
<path d="M809.76 748.138L792.975 745.774L796.036 769.748L787.045 747.455L772.455 773.394L781.467 744.957L760.493 746.815L779.198 736.807L772.455 730.052L782.874 732.07L782.423 724.792L786.598 730.365L798.915 699.731L793.452 731.443L811 727.07L795.188 739.204L809.76 748.138Z" fill="#F4B778"/>
<path d="M798.923 699.609L789.668 734.071L810.137 748.227L786.444 739.538L772.411 774L781.666 739.538L765.005 727.778L784.477 731.648L798.923 699.609Z" fill="#FFFEFD"/>
<path d="M774.5 698.721L787.14 731.745L810.721 727.182L789.509 739.823L796.034 769.748L784.194 741.865L760.613 746.427L781.825 733.786L774.5 698.721Z" fill="#FFFEFD"/>
<path d="M299.089 346.172C298.187 343.589 304.355 330.46 307.552 324.219L309.244 327.447C306.235 334.765 299.992 348.755 299.089 346.172Z" fill="#125068"/>
<path d="M309.117 318.714C306.996 325.128 306.907 328.386 307.127 329.213C308.151 328.154 311.431 327.398 311.975 322.088C312.518 316.777 318.087 311.543 316.221 311.891C314.729 312.169 313.454 301.779 313.105 297.745C312.021 299.394 310.085 305.685 310.205 308.094C310.354 311.104 311.768 310.696 309.117 318.714Z" fill="#BADFEE"/>
</g>
</svg>
