<svg width="389" height="334" viewBox="0 0 389 334" fill="none" xmlns="http://www.w3.org/2000/svg">
<path d="M98.0403 179.337C124.473 163.826 153.926 154.897 153.926 154.897C153.926 154.897 99.1715 192.032 91.3021 197.992C83.2314 204.104 36.4899 245.611 36.4899 245.611C36.4899 245.611 85.294 205.566 104.159 194.188C123.023 182.81 145.306 171.86 161.466 165.269C214.947 143.457 254.172 132.036 269.442 128.194C298.934 120.108 339.134 110.668 353.916 108.588C376.99 105.343 376.677 98.5996 376.677 98.5996C376.677 98.5996 375.885 93.2125 353.135 91.7306C339.141 92.2384 310.795 94.8102 290.925 99.6213C267.335 106.174 245.468 109.388 199.978 126.436C153.341 142.254 108.5 167.298 103.065 170.587C85.1056 181.455 22.1733 226.895 0.31294 250.064C33.1365 220.116 77.8076 191.21 98.0403 179.337Z" fill="url(#paint0_linear)"/>
<path fill-rule="evenodd" clip-rule="evenodd" d="M16.6774 184.274C9.25056 175.473 12.0915 150.966 82.8699 123.343C99.8728 116.708 114.839 115.441 128.3 117.608C117.511 118.264 100.234 122.31 87.5642 127.684C46.5352 145.086 11.9833 179.774 33.0304 202.248C29.1636 199.064 24.2046 193.157 20.4232 188.652C18.9517 186.9 17.6585 185.359 16.6774 184.274ZM163.307 231.837C191.083 216.985 208.94 197.08 221.448 176.455C225.685 169.469 229.308 162.399 232.495 155.416C236.986 145.577 241.131 135.251 245.101 125.363C251.348 109.805 257.159 95.331 263.194 85.5407C276.966 63.2 289.448 58.6855 296.933 55.9782C298.607 55.3729 300.03 54.858 301.163 54.2544C285.588 62.5556 276.334 87.1986 265.666 115.606C257.38 137.67 248.242 162.004 234.627 182.717C221.889 202.095 205.232 218.303 181.689 226.514C175.451 228.689 169.321 230.451 163.307 231.837ZM310.128 153.084C349.131 121.398 376.49 75.3384 328.267 54.7492C326.486 53.9892 324.748 53.3866 323.056 52.9226C343.165 61.5508 362.727 103.347 310.128 153.084Z" fill="white"/>
<path d="M128.3 117.608C114.839 115.441 99.8728 116.708 82.8699 123.343C12.0915 150.966 9.25056 175.473 16.6774 184.274C17.6585 185.359 18.9517 186.9 20.4232 188.652C24.2046 193.157 29.1636 199.064 33.0304 202.248M128.3 117.608C117.511 118.264 100.234 122.31 87.5642 127.684C46.5352 145.086 11.9833 179.774 33.0304 202.248M128.3 117.608C167.837 123.971 194.393 159.945 221.448 176.455M33.0304 202.248C59.8969 224.368 106.349 244.961 163.307 231.837M301.163 54.2544C306.79 51.8316 314.304 50.5229 323.056 52.9226M301.163 54.2544C300.03 54.858 298.607 55.3729 296.933 55.9782C289.448 58.6855 276.966 63.2 263.194 85.5407C257.159 95.331 251.348 109.805 245.101 125.363C241.131 135.251 236.986 145.577 232.495 155.416C229.308 162.399 225.685 169.469 221.448 176.455M301.163 54.2544C285.588 62.5556 276.334 87.1986 265.666 115.606C257.38 137.67 248.242 162.004 234.627 182.717M163.307 231.837C169.321 230.451 175.451 228.689 181.689 226.514C205.232 218.303 221.889 202.095 234.627 182.717M163.307 231.837C191.083 216.985 208.94 197.08 221.448 176.455M323.056 52.9226C324.748 53.3866 326.486 53.9892 328.267 54.7492C376.49 75.3384 349.131 121.398 310.128 153.084M323.056 52.9226C343.165 61.5508 362.727 103.347 310.128 153.084M310.128 153.084C293.134 166.892 273.928 177.97 257.802 183.022C249.706 185.559 242.069 185.136 234.627 182.717M221.448 176.455C225.809 179.117 230.183 181.272 234.627 182.717" stroke="white"/>
<mask id="mask0" mask-type="alpha" maskUnits="userSpaceOnUse" x="136" y="119" width="86" height="56">
<rect x="136.939" y="124.466" width="82" height="50" transform="rotate(-3.48116 136.939 124.466)" fill="#C4C4C4"/>
</mask>
<g mask="url(#mask0)">
<path d="M98.0403 179.337C124.473 163.826 153.926 154.897 153.926 154.897C153.926 154.897 99.1715 192.032 91.3021 197.992C83.2314 204.104 36.4899 245.611 36.4899 245.611C36.4899 245.611 85.294 205.566 104.159 194.188C123.023 182.81 145.306 171.86 161.467 165.269C214.947 143.457 254.172 132.036 269.442 128.194C298.934 120.108 339.134 110.668 353.916 108.588C376.99 105.343 376.677 98.5996 376.677 98.5996C376.677 98.5996 375.885 93.2125 353.135 91.7306C339.141 92.2384 310.795 94.8102 290.925 99.6213C267.335 106.174 245.468 109.388 199.978 126.436C153.341 142.254 108.5 167.298 103.065 170.587C85.1056 181.455 22.1733 226.895 0.312947 250.064C33.1365 220.116 77.8077 191.21 98.0403 179.337Z" fill="url(#paint1_linear)"/>
</g>
<mask id="mask1" mask-type="alpha" maskUnits="userSpaceOnUse" x="287" y="72" width="107" height="72">
<rect x="287.41" y="78.2442" width="102" height="65" transform="rotate(-3.48116 287.41 78.2442)" fill="#C4C4C4"/>
</mask>
<g mask="url(#mask1)">
<path d="M98.0402 179.337C124.473 163.826 153.926 154.897 153.926 154.897C153.926 154.897 99.1715 192.032 91.3021 197.992C83.2313 204.104 36.4899 245.611 36.4899 245.611C36.4899 245.611 85.2939 205.566 104.159 194.188C123.023 182.81 145.306 171.86 161.466 165.269C214.947 143.457 254.172 132.036 269.442 128.194C298.934 120.108 339.134 110.668 353.916 108.588C376.99 105.343 376.677 98.5996 376.677 98.5996C376.677 98.5996 375.885 93.2125 353.135 91.7306C339.141 92.2384 310.795 94.8102 290.925 99.6213C267.335 106.174 245.468 109.388 199.978 126.436C153.341 142.254 108.5 167.298 103.065 170.587C85.1056 181.455 22.1732 226.895 0.312932 250.064C33.1365 220.116 77.8076 191.21 98.0402 179.337Z" fill="url(#paint2_linear)"/>
</g>
<defs>
<linearGradient id="paint0_linear" x1="243.603" y1="33.5736" x2="148.758" y2="306.829" gradientUnits="userSpaceOnUse">
<stop stop-color="#47BCFF"/>
<stop offset="0.240625" stop-color="#C1AEC0"/>
<stop offset="0.5375" stop-color="#ED6C82"/>
</linearGradient>
<linearGradient id="paint1_linear" x1="243.603" y1="33.5736" x2="148.758" y2="306.829" gradientUnits="userSpaceOnUse">
<stop stop-color="#47BCFF"/>
<stop offset="0.240625" stop-color="#C1AEC0"/>
<stop offset="0.5375" stop-color="#ED6C82"/>
</linearGradient>
<linearGradient id="paint2_linear" x1="243.603" y1="33.5736" x2="148.758" y2="306.829" gradientUnits="userSpaceOnUse">
<stop stop-color="#47BCFF"/>
<stop offset="0.240625" stop-color="#C1AEC0"/>
<stop offset="0.5375" stop-color="#ED6C82"/>
</linearGradient>
</defs>
</svg>
