<svg width="1007" height="1007" viewBox="0 0 1007 1007" fill="none" xmlns="http://www.w3.org/2000/svg">
<g clip-path="url(#clip0)">
<ellipse cx="780.758" cy="828.246" rx="68.9749" ry="93.5517" transform="rotate(-33.2139 780.758 828.246)" fill="#D2D5CD"/>
<path d="M839.594 792.667C663.903 634.569 445.917 316.102 445.917 316.102C445.917 316.102 644.681 645.014 725.283 867.51L839.594 792.667Z" fill="#D2D5CD"/>
<path d="M703.363 559.512C706.537 607.928 728.7 692.835 750.291 736.845L831.14 779.745C797.842 728.888 718.07 609.196 703.363 559.512Z" fill="#D2D5CD"/>
<path d="M565.398 649.842C608.504 672.113 677.463 726.382 709.167 763.77L716.155 855.029C682.858 804.172 605.054 683.191 565.398 649.842Z" fill="#D2D5CD"/>
<ellipse cx="782.479" cy="830.713" rx="53.1317" ry="64.5839" transform="rotate(-33.2139 782.479 830.713)" fill="#798F9A"/>
<path d="M827.693 803.142C702.364 696.642 551.346 477.134 551.346 477.134C551.346 477.134 687.636 704.808 739.638 860.794L827.693 803.142Z" fill="#798F9A"/>
<path d="M734.564 641.58C735.159 676.049 748.589 735.889 763.09 766.537L821.857 794.22C798.87 759.11 743.72 676.532 734.564 641.58Z" fill="#798F9A"/>
<path d="M628.289 711.161C659.643 725.491 709.12 761.731 731.411 787.278L733.283 852.212C710.296 817.102 656.663 733.531 628.289 711.161Z" fill="#798F9A"/>
<circle cx="787.866" cy="838.701" r="43.4989" transform="rotate(4.86388 787.866 838.701)" fill="#7B1E1E"/>
<mask id="mask0" mask-type="alpha" maskUnits="userSpaceOnUse" x="730" y="770" width="93" height="104">
<path d="M819.69 810.227C778.301 802.428 757.779 843.269 756.851 868.136L741.889 865.972L733.401 829.612L747.854 785.404L810.091 776.445L819.69 810.227Z" fill="#C4C4C4"/>
</mask>
<g mask="url(#mask0)">
<circle cx="787.866" cy="838.701" r="43.4989" transform="rotate(4.86388 787.866 838.701)" fill="#440202"/>
</g>
<ellipse cx="246.113" cy="399.706" rx="38.0846" ry="58.0682" transform="rotate(-33.21 246.113 399.706)" fill="#798F9A"/>
<path d="M278.693 380.204C173.11 279.797 38.2734 81.8154 38.2734 81.8154C38.2734 81.8154 162.43 285.461 215.573 421.525L278.693 380.204Z" fill="#798F9A"/>
<path d="M193.355 235.992C196.693 265.148 212.05 316.802 225.796 343.893L273.446 372.182C252.78 340.613 203.337 266.272 193.355 235.992Z" fill="#798F9A"/>
<path d="M117.174 285.863C142.561 300.585 183.758 335.323 203.088 358.759L209.954 413.746C189.288 382.178 140.933 307.125 117.174 285.863Z" fill="#798F9A"/>
<ellipse cx="247.176" cy="401.241" rx="29.3368" ry="40.0877" transform="rotate(-33.21 247.176 401.241)" fill="#D2D5CD"/>
<path d="M272.205 386.115C197.086 318.258 103.707 181.772 103.707 181.772C103.707 181.772 188.907 322.695 223.584 417.944L272.205 386.115Z" fill="#D2D5CD"/>
<path d="M213.799 286.226C215.222 306.931 224.791 343.266 234.057 362.115L268.583 380.578C254.316 358.784 220.14 307.49 213.799 286.226Z" fill="#D2D5CD"/>
<path d="M155.117 324.642C173.524 334.228 202.998 357.534 216.566 373.566L219.676 412.595C205.409 390.801 172.07 338.959 155.117 324.642Z" fill="#D2D5CD"/>
<circle cx="252.115" cy="408.023" r="25.8922" transform="rotate(4.86776 252.115 408.023)" fill="#D09600"/>
<mask id="mask1" mask-type="alpha" maskUnits="userSpaceOnUse" x="217" y="367" width="56" height="62">
<path d="M271.059 391.075C246.424 386.432 234.206 410.741 233.653 425.543L224.747 424.254L219.696 402.611L228.301 376.297L265.347 370.967L271.059 391.075Z" fill="#C4C4C4"/>
</mask>
<g mask="url(#mask1)">
<circle cx="252.115" cy="408.023" r="25.8922" transform="rotate(4.86776 252.115 408.023)" fill="#BC6E26"/>
</g>
<ellipse cx="926.953" cy="497.877" rx="44.6445" ry="65.7391" transform="rotate(-33.21 926.953 497.877)" fill="#798F9A"/>
<path d="M965.112 474.965C844.462 362.026 691.665 137.987 691.665 137.987C691.665 137.987 831.966 368.703 891.12 523.403L965.112 474.965Z" fill="#798F9A"/>
<path d="M868.756 311.537C872.091 344.835 888.959 403.651 904.409 434.394L959.172 465.885C935.776 430.146 879.78 345.998 868.756 311.537Z" fill="#798F9A"/>
<path d="M779.453 369.997C808.635 386.374 855.793 425.362 877.789 451.82L884.743 514.607C861.347 478.868 806.626 393.886 779.453 369.997Z" fill="#798F9A"/>
<ellipse cx="928.159" cy="499.613" rx="34.3899" ry="45.3834" transform="rotate(-33.21 928.159 499.613)" fill="#D2D5CD"/>
<path d="M957.476 481.848C871.57 405.592 765.743 251.15 765.743 251.15C765.743 251.15 861.999 410.819 900.479 519.16L957.476 481.848Z" fill="#D2D5CD"/>
<path d="M891.551 368.635C892.821 392.298 903.254 433.695 913.659 455.09L953.376 475.579C937.224 450.906 898.516 392.848 891.551 368.635Z" fill="#D2D5CD"/>
<path d="M822.761 413.666C843.94 424.296 877.707 450.418 893.154 468.513L896.044 513.109C879.892 488.437 842.166 429.736 822.761 413.666Z" fill="#D2D5CD"/>
<circle cx="934.165" cy="508.21" r="28.7403" transform="rotate(4.86776 934.165 508.21)" fill="#D09600"/>
<mask id="mask2" mask-type="alpha" maskUnits="userSpaceOnUse" x="896" y="463" width="62" height="68">
<path d="M955.193 489.397C927.848 484.243 914.287 511.226 913.672 527.656L903.787 526.226L898.18 502.202L907.732 472.993L948.853 467.077L955.193 489.397Z" fill="#C4C4C4"/>
</mask>
<g mask="url(#mask2)">
<circle cx="934.165" cy="508.21" r="28.7403" transform="rotate(4.86776 934.165 508.21)" fill="#BC6E26"/>
</g>
</g>
<defs>
<clipPath id="clip0">
<rect width="1007" height="1007" fill="white"/>
</clipPath>
</defs>
</svg>
