<svg width="623" height="432" viewBox="0 0 623 432" fill="none" xmlns="http://www.w3.org/2000/svg">
<path d="M411.814 135.893L265.536 151.171L270.755 183.253L421.092 168.751L411.814 135.893Z" fill="#343434"/>
<path d="M412.423 133.55L400.958 134.697L398.398 137.606L403.748 137.299L409.329 142.503C412.12 145.105 412.25 144.447 412.743 147.277C412.728 150.691 412.999 155.526 413.205 158.3C413.494 162.183 413.636 162.806 411.843 165.184L406.688 171.625L399.548 172.276L402.262 176.94L413.888 176.911C416.443 176.704 416.313 177.361 419.639 173.92L424.627 168.759C427.079 167.058 427.451 163.397 427.33 161.779L426.116 147.875C425.248 142.238 425.248 142.238 421.691 140.167L412.423 133.55Z" fill="#C4C4C4"/>
<path d="M392.276 135.868L380.446 136.753L377.852 139.466L383.376 139.269L389.236 144.3C392.166 146.816 392.289 146.195 392.848 148.886C392.893 152.121 393.258 156.71 393.521 159.343C393.888 163.029 394.045 163.622 392.234 165.844L387.019 171.86L379.652 172.351L382.539 176.82L394.555 176.997C397.192 176.846 397.069 177.467 400.445 174.264L405.51 169.459C408.014 167.89 408.334 164.426 408.181 162.89L406.68 149.688C405.684 144.329 405.684 144.329 401.972 142.304L392.276 135.868Z" fill="#C4C4C4"/>
<path d="M341.69 142.251L326.318 142.435L323.688 145.51L326.816 145.181L332.585 152.143C333.773 153.353 334.179 154.408 334.79 156.478C335.455 163.431 335.406 164.328 335.696 167.377C335.917 169.714 335.574 169.644 333.785 171.871L328.741 176.72L322.475 177.429L328.248 182.469L339.974 181.867C342.569 181.707 344.276 180.769 345.629 179.088L350.594 172.985C353.937 168.064 353.148 168.617 353.243 166.411L352.333 157.579C351.371 152.227 351.809 153.025 349.491 150.564L341.69 142.251Z" fill="#C4C4C4"/>
<path d="M257.305 156.174L260.365 150.794L262.855 148.294L274.775 158.634L274.054 182.433L258.895 183.423L255.615 174.793C254.455 170.573 254.493 170.381 255.405 165.773L257.305 156.174Z" fill="#C4C4C4"/>
<path d="M278.015 147.304L262.967 147.628L260.365 150.794L263.43 150.43L269.015 157.494C270.168 158.72 270.555 159.794 271.135 161.904C271.725 169.004 271.668 169.92 271.925 173.034C272.121 175.42 271.785 175.352 270.014 177.644L265.034 182.643L258.895 183.423L264.501 188.523L275.984 187.803C278.525 187.618 280.204 186.644 281.544 184.914L286.458 178.632C289.774 173.574 288.996 174.147 289.11 171.891L288.298 162.874C287.403 157.412 287.824 158.224 285.578 155.73L278.015 147.304Z" fill="#C4C4C4"/>
<path d="M302.402 145.825L286.354 145.97L281.264 149.585L284.529 149.256L291.553 157.028C292.798 158.278 293.224 159.365 293.868 161.499C294.483 168.298 294.339 166.935 294.977 172.403C295.257 174.806 294.563 175.007 292.702 177.295L288.983 181.29L282.443 182.002L288.485 187.211L300.727 186.624C303.435 186.468 305.214 185.506 306.623 183.778L311.789 177.506C315.265 172.447 314.442 173.016 314.535 170.744L313.56 161.644C312.539 156.128 312.999 156.951 310.572 154.41L302.402 145.825Z" fill="#C4C4C4"/>
<path d="M257.286 165.465C256.151 176.696 261.024 182.538 265.275 182.582C269.527 182.626 272.196 175.715 272.295 166.124C270.575 155.808 267.577 154.185 264.975 152.704C262.285 151.174 258.515 155.722 257.286 165.465Z" fill="#696969"/>
<path d="M402.269 215.978L255.991 231.256L261.21 263.338L411.547 248.836L402.269 215.978Z" fill="#343434"/>
<path d="M402.878 213.635L391.412 214.782L388.853 217.691L394.203 217.384L399.784 222.588C402.575 225.19 402.705 224.532 403.197 227.362C403.183 230.775 403.453 235.611 403.66 238.385C403.949 242.268 404.09 242.891 402.298 245.269L397.142 251.71L390.003 252.361L392.717 257.025L404.343 256.996C406.898 256.789 406.768 257.446 410.093 254.005L415.082 248.844C417.534 247.143 417.906 243.482 417.785 241.864L416.571 227.96C415.703 222.323 415.703 222.323 412.146 220.252L402.878 213.635Z" fill="#C4C4C4"/>
<path d="M382.731 215.953L370.901 216.838L368.307 219.551L373.831 219.354L379.691 224.385C382.621 226.901 382.744 226.28 383.303 228.971C383.348 232.206 383.713 236.795 383.975 239.428C384.343 243.114 384.5 243.707 382.689 245.929L377.474 251.945L370.107 252.435L372.994 256.905L385.01 257.082C387.647 256.931 387.524 257.552 390.9 254.349L395.965 249.544C398.469 247.975 398.789 244.511 398.636 242.975L397.135 229.773C396.139 224.414 396.139 224.414 392.426 222.389L382.731 215.953Z" fill="#C4C4C4"/>
<path d="M332.144 222.336L316.773 222.52L314.143 225.594L317.271 225.266L323.04 232.228C324.228 233.438 324.633 234.492 325.245 236.562C325.91 243.516 325.861 244.412 326.15 247.461C326.372 249.799 326.028 249.729 324.24 251.956L319.196 256.805L312.93 257.513L318.703 262.554L330.429 261.952C333.023 261.792 334.73 260.854 336.084 259.173L341.049 253.069C344.392 248.148 343.602 248.702 343.698 246.496L342.788 237.664C341.826 232.311 342.264 233.109 339.946 230.649L332.144 222.336Z" fill="#C4C4C4"/>
<path d="M247.76 236.259L250.82 230.879L253.31 228.379L265.229 238.719L264.509 262.518L249.349 263.508L246.069 254.878C244.91 250.658 244.948 250.466 245.86 245.858L247.76 236.259Z" fill="#C4C4C4"/>
<path d="M268.469 227.389L253.422 227.713L250.82 230.879L253.884 230.515L259.469 237.579C260.622 238.804 261.009 239.879 261.589 241.989C262.179 249.088 262.123 250.005 262.379 253.118C262.576 255.505 262.24 255.437 260.469 257.728L255.489 262.728L249.349 263.508L254.956 268.608L266.439 267.888C268.98 267.702 270.659 266.728 271.999 264.998L276.913 258.717C280.229 253.659 279.451 254.231 279.564 251.976L278.752 242.958C277.858 237.497 278.279 238.309 276.033 235.815L268.469 227.389Z" fill="#C4C4C4"/>
<path d="M292.857 225.91L276.809 226.055L271.718 229.67L274.983 229.34L282.008 237.113C283.253 238.362 283.678 239.45 284.323 241.584C284.937 248.383 284.794 247.019 285.432 252.488C285.712 254.891 285.018 255.091 283.157 257.38L279.438 261.375L272.898 262.087L278.94 267.295L291.181 266.709C293.89 266.552 295.669 265.591 297.077 263.863L302.244 257.591C305.72 252.532 304.897 253.1 304.99 250.828L304.015 241.729C302.994 236.213 303.454 237.036 301.027 234.495L292.857 225.91Z" fill="#C4C4C4"/>
<path d="M247.741 245.55C246.606 256.78 251.479 262.623 255.73 262.667C259.982 262.711 262.65 255.8 262.749 246.209C261.03 235.893 258.032 234.269 255.43 232.789C252.74 231.259 248.97 235.806 247.741 245.55Z" fill="#696969"/>
<path d="M446.972 241.714L453.913 206.644L394.1 166.666L293.143 169.215L278.118 178.222L261.063 264.388L430.401 254.418C432.816 252.978 438.628 249.653 442.558 247.873C446.488 246.094 447.138 243.026 446.972 241.714Z" fill="#696969"/>
<ellipse rx="20.239" ry="8.66" transform="matrix(-0.770442 -0.63751 -0.63751 0.770442 469.105 75.2558)" fill="#343434"/>
<path d="M451.438 98.3939C463.645 87.694 474.95 88.5441 479.927 88.2681C485.132 84.8844 478.439 74.101 457.795 63.7093C455.76 62.6848 450.636 62.2925 447.966 62.3946C440.342 62.6859 432.363 67.7282 430.03 69.5642L396.245 100.081L423.222 123.076C427.541 119.307 439.232 109.094 451.438 98.3939Z" fill="#696969"/>
<path d="M586.013 59.4502L457.789 60.5552C456.868 60.557 454.991 60.8215 454.02 61.8016C453.853 61.9614 453.737 62.1213 453.668 62.2618C453.763 62.0932 453.883 61.9403 454.02 61.8016C454.699 61.153 456.226 60.5079 458.925 61.1862C487.778 77.3447 486.537 87.1024 482.231 89.9853L611.543 86.5732C634.617 74.493 604.137 63.4578 586.013 59.4502Z" fill="#C4C4C4"/>
<path d="M406.981 132.473C407.247 131.133 406.375 129.831 405.034 129.566C403.694 129.3 402.392 130.172 402.127 131.513L398.524 149.717C398.258 151.057 399.13 152.359 400.471 152.624C401.811 152.889 403.113 152.018 403.378 150.677L406.981 132.473Z" fill="#343434"/>
<path d="M402.86 134.18C403.125 132.839 402.254 131.538 400.913 131.272C399.573 131.007 398.271 131.879 398.006 133.219L394.403 151.423C394.137 152.764 395.009 154.065 396.349 154.331C397.69 154.596 398.992 153.724 399.257 152.384L402.86 134.18Z" fill="#343434"/>
<path d="M399.459 132.246C399.725 130.905 398.853 129.603 397.513 129.338C396.172 129.073 394.87 129.944 394.605 131.285L391.002 149.489C390.737 150.829 391.608 152.131 392.949 152.397C394.289 152.662 395.591 151.79 395.856 150.45L399.459 132.246Z" fill="#343434"/>
<path d="M394.365 132.499C394.63 131.158 393.759 129.856 392.418 129.591C391.078 129.326 389.776 130.197 389.51 131.538L385.907 149.742C385.642 151.082 386.514 152.384 387.854 152.649C389.195 152.915 390.496 152.043 390.762 150.703L394.365 132.499Z" fill="#343434"/>
<ellipse rx="32.1657" ry="12.3714" transform="matrix(-0.98097 -0.19416 -0.19416 0.98097 363.317 136.442)" fill="#696969"/>
<path d="M322.755 175.707L331.763 130.197C332.051 128.741 332.608 128.052 332.85 127.89C331.399 130.125 335.093 132.52 336.137 133.585C346.105 143.755 392.57 154.309 394.87 142.688C393.816 148.015 388.574 174.498 385.863 188.198C383.866 198.287 357.071 206.225 322.755 175.707Z" fill="#343434"/>
<mask id="mask0" mask-type="alpha" maskUnits="userSpaceOnUse" x="392" y="51" width="94" height="82">
<path d="M451.438 98.3938C463.645 87.694 474.95 88.5441 479.927 88.2681C486.715 85.8283 475.158 71.5601 458.035 62.4957C456.022 61.4297 451.363 61.8059 448.693 61.9079C441.069 62.1992 432.363 67.7282 430.03 69.5642L396.245 100.081L423.222 123.076C427.541 119.307 439.232 109.094 451.438 98.3938Z" fill="#696969"/>
</mask>
<g mask="url(#mask0)">
<path d="M451.784 90.8952C461.569 82.2382 475.746 82.3959 481.612 83.5569L484.399 82.2169C487.244 89.0856 493.03 102.968 493.419 103.55C493.808 104.131 451.96 118.675 430.988 125.875L421.387 117.038L424.294 115.091C429.38 110.633 441.999 99.5521 451.784 90.8952Z" fill="#343434"/>
</g>
<rect width="46.5289" height="27.7057" rx="3" transform="matrix(-0.748694 -0.662916 -0.662916 0.748694 431.745 118.185)" fill="#C4C4C4"/>
<rect width="11.4915" height="27.3196" rx="3" transform="matrix(-0.748694 -0.662916 -0.662916 0.748694 434.564 120.713)" fill="#696969"/>
<path d="M382.675 110.007L406.979 130.581C407.762 134.267 404.237 134.873 402.377 134.715C391.339 135.263 367.71 136.555 361.5 137.344C355.29 138.133 351.307 135.747 350.091 134.455L332.342 115.809C331.943 110.181 336.777 109.33 339.245 109.608L382.675 110.007Z" fill="#696969"/>
<mask id="mask1" mask-type="alpha" maskUnits="userSpaceOnUse" x="351" y="120" width="58" height="30">
<path d="M405.521 130.293C406.735 130.533 407.03 131.307 407.101 131.866C407.298 133.419 407.632 134.494 407.714 135.14C390.817 137.681 358.819 142.406 354.588 139.129C351.307 136.588 352.394 134.281 354.455 133.427L355.365 133.36C371.848 132.134 403.091 129.812 405.521 130.293Z" fill="black"/>
</mask>
<g mask="url(#mask1)">
<path d="M382.675 110.006L406.979 130.581C407.762 134.267 404.237 134.872 402.377 134.714C391.339 135.262 367.71 136.555 361.5 137.343C355.29 138.132 351.307 135.746 350.091 134.455L332.342 115.808C331.943 110.18 336.777 109.329 339.245 109.607L382.675 110.006Z" fill="#343434"/>
</g>
<path d="M377.672 95.7742L388.115 100.29C389.921 101.359 390.085 103.078 389.942 103.804L387.299 117.154C386.915 119.096 385.121 119.665 384.272 119.707C381.402 120.4 375.388 121.863 373.254 122.45C371.12 123.036 367.51 121.733 365.972 121.009L351.865 111.401L354.381 95.5047C355.544 94.726 356.926 94.3269 357.775 94.2848C360.767 94.0362 363.758 93.9108 367.356 93.7323C372.451 93.4797 373.544 94.3266 377.672 95.7742Z" fill="#C4C4C4"/>
<path d="M365.972 121.009L351.865 111.402L357.655 94.8917C361.741 96.9616 368.582 100.281 370.889 101.368C372.141 101.958 373.805 102.155 374.53 102.089C379.136 101.666 384.841 100.903 387.388 100.777C389.908 100.652 390.142 102.793 389.942 103.804L387.299 117.154C386.915 119.096 385.121 119.665 384.272 119.708C381.402 120.401 375.388 121.863 373.254 122.45C371.12 123.037 367.51 121.734 365.972 121.009Z" fill="#696969"/>
<path d="M389.972 103.651C390.307 101.96 388.854 100.454 387.152 100.728L374.778 102.716C373.756 102.88 372.944 103.663 372.743 104.678L369.759 119.757C369.405 121.546 371.041 123.09 372.806 122.633L385.434 119.364C386.354 119.126 387.056 118.382 387.241 117.449L389.972 103.651Z" fill="#696969"/>
<path d="M354.124 96.2435C354.495 94.6512 356.28 93.8498 357.716 94.6311L371.48 102.119C372.43 102.637 372.934 103.712 372.724 104.773L369.82 119.448C369.481 121.16 367.524 121.993 366.056 121.05L352.12 112.104C351.239 111.539 350.81 110.481 351.047 109.461L354.124 96.2435Z" fill="#696969"/>
<path d="M348.224 110.681C348.464 109.467 349.191 108.981 351.011 109.341C355.484 113.569 360.452 115.869 364.433 118.058C368.442 119.966 369.099 119.933 372.856 119.744L372.928 119.74C377.069 119.531 384.282 118.648 387.419 116.547C387.85 116.429 389.24 116.907 389.486 118.848L388.526 123.702C367.433 131.508 359.412 124.246 347.263 115.535L348.224 110.681Z" fill="#C4C4C4"/>
<path d="M409.279 149.624C408.913 149.357 408.466 149.222 408.012 149.242L384.579 150.282C382.848 150.359 382.027 152.45 383.243 153.684L392.536 163.111C392.964 163.546 393.568 163.761 394.175 163.696L418.997 161.017C420.814 160.821 421.438 158.49 419.96 157.413L409.279 149.624Z" fill="#C4C4C4"/>
<path d="M417.364 167.784L392.097 171.039C391.882 171.067 391.664 171.062 391.454 171.011C390.43 170.762 389.843 170.383 389.585 170.132C389.498 170.047 389.423 169.95 389.338 169.862L381.813 162.15C381.353 161.679 381.154 161.011 381.282 160.365L382.519 154.116C382.739 153.006 383.01 152.302 383.24 151.864C383.486 151.395 384.031 151.243 384.502 151.487C384.866 151.676 385.205 151.926 385.427 152.169L391.748 158.464C393.012 159.724 394.621 159.874 395.268 159.792L418.208 157.091L418.436 157.065C418.953 157.004 419.489 157.129 419.851 157.501C420.276 157.939 420.597 158.477 420.473 159.105L419.218 165.442L419.218 165.442L419.07 166.189C418.904 167.032 418.217 167.675 417.364 167.784Z" fill="#696969"/>
<path d="M248.402 196.968L255.254 184.921L260.83 179.322L287.523 202.477L285.91 255.774L251.962 257.99L244.617 238.665C242.019 229.215 242.104 228.785 244.147 218.466L248.402 196.968Z" fill="#696969"/>
<path d="M294.778 177.106L261.081 177.832L255.254 184.921L262.117 184.106L274.624 199.925C277.206 202.67 278.073 205.075 279.371 209.8C280.692 225.699 280.567 227.752 281.14 234.724C281.58 240.068 280.828 239.915 276.863 245.047L265.711 256.244L251.961 257.99L264.516 269.411L290.232 267.799C295.922 267.383 299.682 265.202 302.683 261.328L313.687 247.261C321.113 235.934 319.371 237.216 319.624 232.166L317.805 211.972C315.802 199.742 316.746 201.56 311.715 195.975L294.778 177.106Z" fill="#696969"/>
<path d="M248.359 217.776C245.818 242.925 256.73 256.008 266.251 256.107C275.771 256.205 281.747 240.728 281.969 219.251C278.118 196.149 271.404 192.514 265.577 189.199C259.554 185.772 251.111 195.956 248.359 217.776Z" fill="#343434"/>
<path d="M324.818 128.597C327.741 118.11 335.423 117.426 339.363 117.881C340.473 118.191 347.832 126.663 347.832 126.663C349.219 130.903 342 131.459 339.119 132.583C336.237 133.706 335.172 139.831 335.172 139.831L332.847 148.173C332.681 148.769 330.561 149.462 330.561 149.462C329.204 149.726 327.67 149.084 326.986 148.466L322.62 143.396C321.164 141.706 321.441 140.713 321.663 139.918L324.818 128.597Z" fill="#696969"/>
<mask id="mask2" mask-type="alpha" maskUnits="userSpaceOnUse" x="328" y="122" width="21" height="31">
<path d="M345.366 125.976C347.996 125.116 348.235 127.204 348.014 127.998C346.929 131.121 342.473 138.18 336.907 144.809C332.1 150.533 329.01 150.1 328.691 148.941L333.175 132.853C333.574 131.423 334.768 129.444 336.888 128.75C343.247 126.67 343.247 126.67 345.366 125.976Z" fill="#C4C4C4"/>
</mask>
<g mask="url(#mask2)">
<path d="M324.818 128.597C327.741 118.11 335.423 117.426 339.363 117.882C340.473 118.191 347.832 126.664 347.832 126.664C349.219 130.903 342 131.46 339.119 132.583C336.237 133.706 335.172 139.831 335.172 139.831L332.847 148.173C332.681 148.769 330.561 149.463 330.561 149.463C329.203 149.726 327.67 149.085 326.986 148.466L322.62 143.396C321.164 141.706 321.441 140.713 321.663 139.919L324.818 128.597Z" fill="#343434"/>
</g>
<path d="M440.24 247.176L296.694 262.163L301.662 292.168L449.186 277.889L440.24 247.176Z" fill="#343434"/>
<path d="M438.716 245.046L427.827 246.78L425.622 249.522L430.722 248.915L436.513 253.187C439.408 255.322 439.477 254.731 440.19 257.212C440.466 260.243 441.137 264.519 441.571 266.968C442.178 270.398 442.367 270.941 440.851 273.164L436.459 279.204L429.673 280.227L432.671 284.199L443.809 283.447C446.239 283.104 446.171 283.696 449.064 280.434L453.405 275.54C455.61 273.877 455.655 270.604 455.402 269.175L453.055 256.908C451.745 251.958 451.745 251.958 448.16 250.342L438.716 245.046Z" fill="#C4C4C4"/>
<path d="M335.239 256.999L319.766 257.073L314.872 260.469L318.019 260.17L324.822 267.543C326.027 268.729 326.442 269.758 327.072 271.778C327.691 278.206 327.548 276.916 328.184 282.087C328.464 284.359 327.795 284.546 326.01 286.701L322.44 290.462L316.137 291.109L321.983 296.055L333.784 295.549C336.394 295.412 338.106 294.51 339.457 292.883L344.414 286.976C347.745 282.209 346.954 282.742 347.035 280.596L346.059 271.992C345.053 266.776 345.499 267.555 343.15 265.144L335.239 256.999Z" fill="#C4C4C4"/>
<path d="M426.689 247.354L411.216 247.428L406.322 250.824L409.469 250.526L416.272 257.899C417.477 259.084 417.892 260.114 418.522 262.133C419.141 268.561 418.998 267.272 419.634 272.442C419.914 274.714 419.245 274.901 417.46 277.056L413.89 280.817L407.587 281.464L413.433 286.41L425.234 285.904C427.844 285.767 429.556 284.865 430.907 283.238L435.864 277.331C439.195 272.564 438.404 273.098 438.485 270.951L437.509 262.347C436.503 257.131 436.949 257.911 434.6 255.5L426.689 247.354Z" fill="#C4C4C4"/>
<path d="M332.3 216.691L337.502 209.524L317.003 211.141L313.495 216.122C310.954 219.403 311.321 220.736 310 227.411L305.796 248.649C305.476 250.267 305.196 251.683 307.142 254.591L312.129 261.253L332.141 258.908L326.547 252.126C324.601 249.218 324.881 247.802 325.201 246.184L329.405 224.946C330.726 218.272 330.606 218.878 332.3 216.691Z" fill="#343434"/>
<path d="M337.091 216.379L342.445 209.241L321.649 211.431L317.528 215.659C314.911 218.925 315.303 220.264 313.982 226.938L310.884 245.242C310.284 248.276 311.042 248.427 314.298 253.485L318.558 260.634L336.629 258.535L331.389 251.823C329.341 248.896 329.621 247.48 329.942 245.862L334.145 224.624C335.466 217.949 335.346 218.556 337.091 216.379Z" fill="#C4C4C4"/>
<path d="M424.474 206.984L429.072 199.875L411.635 201.976L408.53 206.913C406.29 210.171 406.567 211.459 405.274 217.989L401.162 238.765C400.849 240.348 400.574 241.733 402.152 244.513L406.213 250.869L423.256 248.073L418.683 241.616C417.106 238.837 417.38 237.451 417.693 235.869L421.805 215.092C423.098 208.563 422.98 209.156 424.474 206.984Z" fill="#343434"/>
<path d="M428.351 206.514L433.176 199.454L414.963 202.014L411.275 206.217C408.922 209.451 409.236 210.746 407.945 217.272L403.834 238.038C403.521 239.621 403.247 241.005 404.976 243.813L409.965 250.35L427.079 247.572L422.64 241.144C420.911 238.336 421.185 236.951 421.498 235.369L425.608 214.603C426.9 208.076 426.782 208.67 428.351 206.514Z" fill="#C4C4C4"/>
<path d="M445.112 165.184L298.834 180.462L304.053 212.544L454.39 198.042L445.112 165.184Z" fill="#343434"/>
<path d="M445.721 162.841L434.256 163.988L431.696 166.897L437.046 166.59L442.627 171.794C445.418 174.396 445.548 173.738 446.04 176.568C446.026 179.982 446.297 184.817 446.503 187.591C446.792 191.474 446.934 192.097 445.141 194.475L439.986 200.916L432.846 201.567L435.56 206.231L447.186 206.202C449.741 205.995 449.611 206.652 452.936 203.211L457.925 198.05C460.377 196.349 460.749 192.688 460.628 191.07L459.414 177.166C458.546 171.529 458.546 171.529 454.989 169.458L445.721 162.841Z" fill="#C4C4C4"/>
<path d="M425.574 165.159L413.744 166.044L411.15 168.757L416.674 168.56L422.534 173.591C425.464 176.107 425.587 175.486 426.146 178.177C426.191 181.412 426.556 186.001 426.819 188.634C427.186 192.32 427.343 192.913 425.532 195.135L420.317 201.151L412.95 201.642L415.837 206.111L427.853 206.288C430.49 206.137 430.367 206.758 433.743 203.555L438.808 198.75C441.312 197.181 441.632 193.717 441.479 192.181L439.978 178.979C438.982 173.62 438.982 173.62 435.27 171.595L425.574 165.159Z" fill="#C4C4C4"/>
<path d="M374.987 171.542L359.616 171.726L356.986 174.801L360.114 174.472L365.883 181.434C367.071 182.644 367.476 183.699 368.088 185.769C368.753 192.722 368.704 193.619 368.993 196.668C369.215 199.005 368.872 198.935 367.083 201.162L362.039 206.011L355.773 206.72L361.546 211.76L373.272 211.158C375.867 210.999 377.574 210.06 378.927 208.379L383.892 202.276C387.235 197.355 386.446 197.908 386.541 195.702L385.631 186.87C384.669 181.518 385.107 182.316 382.789 179.855L374.987 171.542Z" fill="#C4C4C4"/>
<path d="M290.603 185.465L293.663 180.085L296.153 177.585L308.073 187.925L307.352 211.724L292.193 212.714L288.913 204.084C287.753 199.864 287.791 199.672 288.703 195.064L290.603 185.465Z" fill="#C4C4C4"/>
<path d="M311.313 176.595L296.265 176.919L293.663 180.085L296.728 179.721L302.313 186.785C303.465 188.011 303.853 189.085 304.433 191.195C305.022 198.295 304.966 199.211 305.222 202.325C305.419 204.711 305.083 204.643 303.312 206.935L298.332 211.934L292.193 212.714L297.799 217.814L309.282 217.094C311.823 216.909 313.502 215.935 314.842 214.205L319.756 207.923C323.072 202.865 322.294 203.438 322.408 201.182L321.595 192.165C320.701 186.703 321.122 187.515 318.876 185.021L311.313 176.595Z" fill="#C4C4C4"/>
<path d="M335.7 175.116L319.652 175.261L314.562 178.876L317.826 178.547L324.851 186.319C326.096 187.569 326.522 188.656 327.166 190.79C327.781 197.59 327.637 196.226 328.275 201.694C328.555 204.097 327.861 204.298 326 206.586L322.281 210.581L315.741 211.293L321.783 216.502L334.025 215.915C336.733 215.759 338.512 214.797 339.921 213.069L345.087 206.797C348.563 201.739 347.74 202.307 347.833 200.035L346.858 190.935C345.837 185.419 346.297 186.242 343.87 183.701L335.7 175.116Z" fill="#C4C4C4"/>
<path d="M290.584 194.756C289.449 205.987 294.322 211.829 298.573 211.873C302.825 211.917 305.493 205.006 305.592 195.415C303.873 185.099 300.875 183.476 298.273 181.995C295.583 180.465 291.813 185.013 290.584 194.756Z" fill="#696969"/>
<path d="M291.545 268.524L294.519 263.295L296.939 260.865L308.526 270.915L307.826 294.049L293.09 295.011L289.902 286.623C288.774 282.521 288.811 282.334 289.698 277.855L291.545 268.524Z" fill="#C4C4C4"/>
<path d="M311.675 259.902L297.048 260.217L294.519 263.294L297.498 262.941L302.927 269.807C304.047 270.998 304.424 272.043 304.987 274.094C305.561 280.995 305.506 281.886 305.755 284.912C305.946 287.232 305.62 287.166 303.899 289.393L299.058 294.253L293.09 295.011L298.539 299.968L309.701 299.269C312.171 299.088 313.803 298.141 315.106 296.46L319.883 290.354C323.106 285.437 322.35 285.994 322.46 283.802L321.67 275.036C320.801 269.728 321.21 270.517 319.027 268.093L311.675 259.902Z" fill="#C4C4C4"/>
<path d="M291.526 277.556C290.423 288.472 295.16 294.151 299.292 294.194C303.425 294.236 306.019 287.518 306.115 278.196C304.443 268.168 301.529 266.59 299 265.151C296.385 263.664 292.721 268.084 291.526 277.556Z" fill="#696969"/>
<path d="M138.497 311.952C142.178 301.314 143.632 292.081 141.702 291.414C139.773 290.746 135.191 298.897 131.51 309.534L138.497 311.952Z" fill="#C4C4C4"/>
<path d="M114.75 327.357L132.61 308.707L138.686 311.902L121.06 330.674L114.75 327.357Z" fill="#696969"/>
<path d="M90.8177 319.546L115.392 272.808L139.228 285.34L114.654 332.079L90.8177 319.546Z" fill="#C4C4C4"/>
<path d="M138.995 285.217C142.221 286.914 139.336 298.752 132.55 311.658C125.764 324.565 117.647 333.652 114.421 331.956C111.194 330.259 114.079 318.421 120.865 305.515C127.651 292.608 135.768 283.521 138.995 285.217Z" fill="#C4C4C4"/>
<ellipse cx="103.338" cy="296.299" rx="26.4025" ry="7.12868" transform="rotate(-62.2659 103.338 296.299)" fill="#696969"/>
<path d="M66.7833 305.12L89.8827 261.185L113.719 273.718L90.62 317.652L66.7833 305.12Z" fill="#C4C4C4"/>
<path d="M113.486 273.595C116.712 275.292 114.157 286.502 107.778 298.634C101.4 310.766 93.6129 319.226 90.3863 317.529C87.1596 315.833 89.7149 304.623 96.0936 292.491C102.472 280.358 110.259 271.899 113.486 273.595Z" fill="#C4C4C4"/>
<ellipse cx="79.0339" cy="283.521" rx="24.8184" ry="6.60063" transform="rotate(-62.2659 79.0339 283.521)" fill="#696969"/>
<ellipse cx="23.8824" cy="254.524" rx="32.7391" ry="9.76893" transform="rotate(-62.2659 23.8824 254.524)" fill="#343434"/>
<rect x="122.831" y="301.776" width="17.9537" height="12.1452" transform="rotate(-62.2659 122.831 301.776)" fill="#C4C4C4"/>
<ellipse cx="78.0993" cy="283.03" rx="17.9537" ry="5.01648" transform="rotate(-62.2659 78.0993 283.03)" fill="#C4C4C4"/>
<circle cx="120.754" cy="305.158" r="6.07258" transform="rotate(-62.2659 120.754 305.158)" fill="#696969"/>
<path d="M128.651 282.762C131.233 284.119 132.345 286.59 131.883 287.964C130.779 290.062 127.792 290.663 125.211 289.306C122.63 287.948 121.432 285.147 122.535 283.049C123.626 281.467 126.07 281.405 128.651 282.762Z" fill="#696969"/>
<path d="M106.781 324.359C109.362 325.717 112.028 325.232 112.897 324.073C114.001 321.974 112.803 319.173 110.221 317.816C107.64 316.459 104.442 317.462 103.55 319.158C102.865 320.954 104.2 323.002 106.781 324.359Z" fill="#696969"/>
<path d="M64.3692 296.095L81.0794 264.312L86.2207 267.016L69.5104 298.798L64.3692 296.095Z" fill="#C4C4C4"/>
<ellipse cx="69.2188" cy="278.361" rx="25.8745" ry="9.24088" transform="rotate(-62.2659 69.2188 278.361)" fill="#343434"/>
<path d="M8.88043 283.625L24.2391 254.413L70.0429 278.496L57.8789 301.631L8.88043 283.625Z" fill="#343434"/>
<path d="M39.352 225.669L24.2391 254.413L70.0429 278.496L81.9612 255.827L39.352 225.669Z" fill="#343434"/>
<ellipse cx="21.5456" cy="253.295" rx="24.8184" ry="6.60063" transform="rotate(-62.2659 21.5456 253.295)" fill="#C4C4C4"/>
<path d="M75.9634 280.117L74.1204 283.622L29.6799 265.924C28.5262 260.843 32.7905 254.435 36.5606 252.838L75.9634 280.117Z" fill="#696969"/>
<path d="M67.8383 292.435L66.0652 294.004L17.2679 282.599C17.6865 277.159 21.1823 274.731 24.7602 272.61L67.8383 292.435Z" fill="#696969"/>
<path d="M80.052 269.204L80.3395 266.854L43.2828 233.119C39.0388 236.548 39.02 240.804 39.301 244.954L80.052 269.204Z" fill="#696969"/>
<path d="M234.143 402.964C238.199 404.775 241.082 407.079 241.759 409.05L243.468 414.024C244.175 416.084 242.371 417.467 238.751 417.639L230.799 418.018C227.179 418.19 222.31 417.125 218.074 415.234L207.841 410.667C203.784 408.856 200.901 406.552 200.224 404.58L198.516 399.607C197.808 397.547 199.613 396.164 203.233 395.992L211.184 395.613C214.804 395.44 219.673 396.505 223.91 398.397L234.143 402.964Z" fill="#D67A35"/>
<path d="M243.954 416.579L197.939 397.343L202.086 382.189L203.834 381.028L248.645 400.52L249.068 401.724L243.954 416.579Z" fill="#D67A35"/>
<path d="M209.555 393.012L226.501 400.576C228.619 401.522 231.054 402.054 232.864 401.968L245.91 401.346C247.493 401.271 248.396 400.731 248.342 399.891L248.156 396.937L246.211 391.274C245.872 390.289 244.431 389.137 242.402 388.231L228.906 382.207C224.669 380.316 219.801 379.251 216.181 379.423L207.912 379.817C207.515 379.836 207.155 379.883 206.866 379.974C206.047 380.231 204.849 380.706 203.866 381.13C203.157 381.436 202.915 381.956 203.139 382.589L205.751 389.983C206.099 390.966 207.537 392.111 209.555 393.012Z" fill="#EDBC3F"/>
<ellipse rx="9.98235" ry="10.3038" transform="matrix(0.781236 0.624235 -0.998867 0.0475961 225.785 390.368)" fill="#7B472C"/>
<path d="M240.894 401.587C236.89 401.677 219.682 397.603 217.548 396.503C221.232 400.025 227.261 404.537 227.593 408.615C230.165 405.433 238.541 402.628 240.894 401.587Z" fill="#EDA436"/>
<path d="M204.503 386.381C206.305 391.708 206.789 391.858 217.064 396.354C213.115 395.364 207.159 394.092 205.128 396.381C205.615 393.086 204.86 388.389 204.503 386.381Z" fill="#EDA436"/>
<path d="M248.16 396.938C247.972 399.265 247.84 400.55 243.296 401.533C246.015 401.312 248.1 401.426 249.068 401.724C249.125 400.682 248.94 399.564 248.16 396.938Z" fill="#EDA436"/>
<path d="M207.32 379.829C205.103 381 203.837 381.669 204.336 386.064C203.314 383.364 202.644 382.097 202.086 382.189C202.191 381.849 203.409 380.477 207.32 379.829Z" fill="#EDA436"/>
<path d="M127.564 127.667C131.212 130.202 133.615 133.002 133.914 135.066L134.143 136.657C134.455 138.812 132.424 139.835 128.835 139.33L126.819 139.046C123.231 138.541 118.646 136.587 114.836 133.94L112.022 131.985C108.374 129.45 105.971 126.65 105.673 124.587L105.443 122.995C105.132 120.84 107.163 119.818 110.751 120.323L112.767 120.606C116.356 121.111 120.941 123.065 124.751 125.712L127.564 127.667Z" fill="#D67A35"/>
<path d="M134.296 139.526L105.19 120.316L110.013 110.445L111.365 109.875L139.611 129.104L139.745 129.987L134.296 139.526Z" fill="#D67A35"/>
<path d="M114.612 119.463L123.463 125.613C125.368 126.937 127.66 127.913 129.455 128.166L136.874 129.21C138.444 129.431 139.431 129.068 139.535 128.233L139.742 126.579L139.215 122.934C139.066 121.903 137.865 120.503 136.04 119.235L130.292 115.241C126.482 112.594 121.897 110.64 118.308 110.135L114.502 109.6C114.109 109.544 113.747 109.524 113.452 109.563C112.961 109.627 112.318 109.747 111.726 109.873C110.964 110.034 110.63 110.501 110.732 111.164L111.44 115.778C111.598 116.809 112.797 118.202 114.612 119.463Z" fill="#EDBC3F"/>
<ellipse rx="6.98005" ry="7.20484" transform="matrix(0.65125 0.758863 -0.990244 -0.139344 125.229 119.152)" fill="#7B472C"/>
<path d="M134.147 128.827C131.385 128.367 120.093 123.327 118.771 122.293C120.843 125.193 124.397 129.078 124.094 131.922C126.275 130.072 132.395 129.236 134.147 128.827Z" fill="#EDA436"/>
<path d="M111.128 113.64C111.671 117.534 111.985 117.7 118.458 122.127C115.874 120.933 111.948 119.283 110.254 120.591C111.018 118.39 111.111 115.065 111.128 113.64Z" fill="#EDA436"/>
<path d="M139.744 126.58C139.312 128.154 139.054 129.02 135.804 129.103C137.701 129.305 139.119 129.655 139.745 129.986C139.92 129.278 139.938 128.486 139.744 126.58Z" fill="#EDA436"/>
<path d="M113.917 109.506C112.241 110.021 111.284 110.316 111.054 113.4C110.704 111.412 110.409 110.454 110.013 110.445C110.13 110.225 111.145 109.442 113.917 109.506Z" fill="#EDA436"/>
<path d="M542.633 280.549C546.719 278.807 550.368 278.26 552.274 279.104L557.083 281.234C559.074 282.116 558.86 284.38 556.525 287.151L551.395 293.238C549.06 296.01 544.968 298.855 540.7 300.675L530.392 305.07C526.306 306.813 522.656 307.36 520.75 306.516L515.942 304.385C513.951 303.504 514.164 301.24 516.5 298.469L521.63 292.381C523.965 289.61 528.057 286.765 532.325 284.945L542.633 280.549Z" fill="#D67A35"/>
<path d="M559.287 282.616L513.891 303.269L505.601 289.923L505.938 287.852L550.704 268.255L551.874 268.764L559.287 282.616Z" fill="#D67A35"/>
<path d="M518.615 291.807L535.685 284.528C537.819 283.618 539.865 282.195 541.032 280.81L549.449 270.822C550.471 269.61 550.688 268.581 550.037 268.049L547.744 266.177L542.27 263.752C541.316 263.33 539.492 263.603 537.449 264.474L523.853 270.272C519.585 272.092 515.494 274.937 513.158 277.708L507.824 284.038C507.568 284.342 507.357 284.638 507.227 284.911C506.859 285.687 506.392 286.888 506.035 287.897C505.777 288.625 505.994 289.156 506.609 289.422L513.807 292.536C514.764 292.949 516.582 292.674 518.615 291.807Z" fill="#EDBC3F"/>
<ellipse rx="9.98235" ry="10.3038" transform="matrix(0.988954 -0.148226 -0.644413 0.764678 527.714 278.11)" fill="#7B472C"/>
<path d="M546.214 274.663C543.558 277.659 528.868 287.505 526.61 288.322C531.698 288.016 539.105 286.664 542.321 289.194C541.737 285.144 545.377 277.096 546.214 274.663Z" fill="#EDA436"/>
<path d="M510.318 291.002C515.448 293.303 515.887 293.05 526.171 288.575C522.761 290.797 517.778 294.298 518.074 297.344C515.989 294.746 512.032 292.105 510.318 291.002Z" fill="#EDA436"/>
<path d="M547.747 266.174C549.326 267.895 550.178 268.865 547.809 272.865C549.495 270.722 550.997 269.27 551.874 268.763C551.148 268.013 550.203 267.389 547.747 266.174Z" fill="#EDA436"/>
<path d="M507.43 284.48C506.781 286.902 506.41 288.286 509.971 290.909C507.296 289.821 505.913 289.45 505.6 289.923C505.422 289.614 505.245 287.788 507.43 284.48Z" fill="#EDA436"/>
</svg>
