<svg width="930" height="901" viewBox="0 0 930 901" fill="none" xmlns="http://www.w3.org/2000/svg">
<circle cx="456.712" cy="429.966" r="238.434" transform="rotate(-14.0923 456.712 429.966)" fill="#CFAE8F"/>
<path d="M391.556 633.431C382.645 639.232 394.785 654.895 401.969 662.002C487.962 684.477 574.391 645.446 603.61 616.646C545.629 655.097 508.243 614.263 489.942 604.277C471.64 594.292 402.696 626.179 391.556 633.431Z" fill="#90725A"/>
<path d="M395.931 562.897C283.362 587.543 220.83 430.605 220.457 443.916C217.327 555.671 328.098 658.517 405.874 662.477C409.834 662.679 394.531 654.959 402.106 647.465C425.057 624.758 485.531 633.146 491.454 606.366C492.572 601.313 476.493 604.822 455.447 580.476C429.138 550.044 404.995 560.621 395.931 562.897Z" fill="#614A34"/>
<path d="M591.438 542.348C651.25 523.769 682.247 429.237 691.703 390.009C703.228 445.314 693.271 558.015 589.909 627.684C587.121 629.651 583.959 631.697 580.381 633.818C583.642 631.813 586.817 629.768 589.909 627.684C613.711 610.887 610.205 599.774 604.828 595.686C548.398 564.493 576.488 549.476 591.438 542.348Z" fill="#614A34"/>
<path d="M260.324 367.484C244.033 336.51 234.613 347.727 231.939 357.207C223.381 378.37 209.582 430.563 222.845 470.032C239.424 519.368 291.983 587.571 409.873 561.198C416.471 557.071 430.628 536.791 422.35 507.93C412.004 471.854 454.426 412.669 466.693 406.806C495.334 393.116 499.172 394.217 563.396 414.512C568.418 416.098 575.198 414.676 594.412 391.578C599.763 385.145 607.562 371.037 623.389 369.479C646.954 367.159 657.298 458.295 666.024 458.36C674.749 458.426 698.07 412.895 691.156 382.439C661.845 253.326 559.049 206.171 508.787 196.981C515.528 213.551 532.794 251.45 549.559 266.836C570.516 286.068 547.667 327.759 525.014 326.151C499.861 324.365 488.85 353.945 461.54 360.801C434.231 367.657 411.686 354.946 375.666 382.359C339.647 409.771 354.259 467.98 319.653 458.62C285.047 449.26 280.689 406.202 260.324 367.484Z" fill="#90725A"/>
<path d="M350.927 295.74C321.848 273.475 316.213 259.095 290.585 258.643C318.376 230.607 393.206 176.992 498.592 195.085C494.727 216.7 479.902 257.627 457.222 269.055C434.541 280.484 430.859 259.069 411.011 264.051C388.222 269.772 370.334 310.599 350.927 295.74Z" fill="#90725A"/>
<path d="M175.477 145.31L181.534 162.684L195.502 161.419L182.593 166.901L185.46 185.076L179.403 167.702L165.435 168.967L178.345 163.484L175.477 145.31Z" fill="white"/>
<path d="M877.857 637.091L890.4 673.113L919.242 670.52L892.595 681.857L898.554 719.533L886.011 683.51L857.168 686.103L883.816 674.766L877.857 637.091Z" fill="white"/>
<path d="M162.466 728.015L172.65 757.256L196.084 755.146L174.432 764.354L179.266 794.938L169.082 765.697L145.649 767.807L167.3 758.599L162.466 728.015Z" fill="white"/>
</svg>
