<svg width="590" height="538" viewBox="0 0 590 538" fill="none" xmlns="http://www.w3.org/2000/svg">
<circle cx="311.548" cy="254.581" r="148.192" transform="rotate(-36.057 311.548 254.581)" fill="#CFAE8F"/>
<path d="M440.083 327.074C447.577 317.582 442.55 258.831 423.976 279.117C396.484 309.448 334.011 335.033 306.211 344.034C302.15 352.681 403.227 361.347 417.594 352.856C429.088 346.064 437.037 333.334 440.083 327.074Z" fill="#B69577"/>
<path d="M321.291 387.007C317.503 392.422 328.142 398.629 333.935 401.055C388.727 394.019 429.472 351.429 439.619 328.036C415.137 363.678 384.094 348.832 371.224 347.331C358.353 345.83 326.026 380.238 321.291 387.007Z" fill="#90725A"/>
<path d="M297.43 346.328C237.394 359.219 175.731 309.784 178.611 317.544C202.787 382.688 290.545 416.219 336.297 400.421C338.626 399.617 328.01 398.724 330.634 392.643C338.585 374.22 375.393 364.996 372.581 348.183C372.051 345.01 365.499 345.142 345.807 341.63C321.266 337.254 302.126 342.909 297.43 346.328Z" fill="#614A34"/>
<path d="M417.591 285.414C465.032 232.079 441.614 202.294 437.71 176.92C457.21 206.12 477.67 273.397 434.287 337.583C433.138 339.365 431.79 341.279 430.221 343.333C431.635 341.42 432.99 339.503 434.287 337.583C444.102 322.368 439.498 316.777 435.448 315.671C395.67 310.809 408.644 295.473 417.591 285.414Z" fill="#614A34"/>
<path d="M183.823 264.22C167.231 250.154 164.409 258.809 165.072 264.895C165.059 279.083 169.238 312.375 186.058 332.043C207.084 356.626 240.574 367.102 315.057 341.113C317.9 337.201 321.346 322.22 309.866 307.508C295.515 289.119 306.209 245.142 311.917 238.911C325.243 224.362 327.711 224.104 369.449 220.872C372.712 220.619 376.29 218.223 381.995 200.443C383.584 195.49 384.8 185.546 393.561 180.968C406.604 174.153 446.697 224.614 446.862 219.193C447.28 205.47 437.852 177.073 437.852 177.073C437.852 177.073 392.689 93.9746 287.402 108.18C295.139 116.164 313.903 133.996 327.143 138.967C343.693 145.181 340.215 174.523 326.784 178.862C311.87 183.681 312.4 203.29 298.252 213.591C284.104 223.891 268.154 221.806 253.765 245.98C239.375 270.155 261.33 300.31 239.207 302.96C217.083 305.609 204.562 281.803 183.823 264.22Z" fill="#90725A"/>
<path d="M219.368 201.803C197.431 195.73 190.84 188.751 175.963 194.448C185.464 171.827 216.133 123.527 281.084 109.457C283.882 122.815 284.851 149.852 274.434 161.712C264.018 173.572 256.917 162.084 246.635 169.57C234.829 178.165 234.009 205.857 219.368 201.803Z" fill="#90725A"/>
<path d="M194.634 -0.00012207L195.655 11.3897L204.267 12.7411L195.655 14.0925L194.634 25.4823L193.612 14.0925L185 12.7411L193.612 11.3897L194.634 -0.00012207Z" fill="white"/>
<path d="M569.889 485L571.999 508.613L589.778 511.415L571.999 514.216L569.889 537.829L567.779 514.216L550 511.415L567.779 508.613L569.889 485Z" fill="white"/>
<path d="M16.1596 379L17.8736 398.168L32.3192 400.443L17.8736 402.717L16.1596 421.885L14.4456 402.717L0 400.443L14.4456 398.168L16.1596 379Z" fill="white"/>
</svg>
