<svg width="1946" height="779" viewBox="0 0 1946 779" fill="none" xmlns="http://www.w3.org/2000/svg">
<path d="M1445.63 457.5C1445.63 457.5 1458.5 386.055 1510 293.055C1545.19 229.51 1659.86 244.048 1696 307.055C1733 371.555 1757.86 457.5 1757.86 457.5C1782.18 441.618 1807.13 458.251 1823.63 469.255L1824 469.5C1896 434.445 1941 491.5 1945 497V631.5H1V531C73.8 475.4 222.333 507.925 260.5 524.61C328.5 473.054 428.333 476.758 481.5 493.555C506 476.055 609.5 451.5 638 493.555C737.5 442.055 905.5 451 957 480.5C1071.5 432 1166.5 436 1243.5 469.5C1321 429 1422.46 433.5 1445.63 457.5Z" fill="#060820"/>
<path d="M1513.5 338.904C1461.5 449.404 1461.5 511.904 1461.5 511.904C1410.5 506.5 1394.5 509.5 1334.5 534C1267.5 508 1188 484 1026.5 550.904C937.5 507.5 809.1 540.4 763.5 564C708.5 511.904 521 540.096 521 564C506 535 404.5 527.5 359 564C312 537.096 200.5 540.307 0.5 587.404V732.235C51.3333 756.147 229.3 789.623 318.5 732.235C350.054 757.147 523.368 801.568 596.839 741.78C636.541 767.373 746.001 803.204 866.223 741.78C890.178 765.729 1005.9 791.175 1100 741.78C1169.28 767.725 1303.5 814.92 1461.5 732.235C1504 775.235 1657.5 762.5 1677 733.13C1724.05 767.557 1857 786 1945.5 716V638.404V638V564C1945.5 552.5 1913 526 1864.5 534C1855 511.904 1784.1 487.904 1744.5 519.904C1744.5 519.904 1740.86 437.904 1683.5 338.904C1652.5 285.404 1537.13 288.686 1513.5 338.904Z" fill="#FAFAFA"/>
<path d="M1601.57 190C1521.9 271.056 1410.38 463.135 1601.57 583C1788.89 463.135 1679.62 271.056 1601.57 190Z" fill="#EDB423"/>
<path d="M1601.86 190C1531.28 395.857 1503.28 429.721 1601.86 514.381C1696.4 428.777 1671.28 396.748 1601.86 190Z" fill="#D22B2B"/>
<path d="M1842 587.5C1790.5 525.5 1732 605 1703.5 378C1611.5 545.5 1382.5 573 1161 595.5L1842 587.5Z" fill="#FAFAFA" fill-opacity="0.6"/>
<path d="M1681.94 123.125L1622.37 34L1615.28 45.5L1667.81 123.125C1674.28 132 1673.97 136.592 1669.28 147C1664.78 157 1652.15 180.604 1652.15 180.604L1657.47 184.552L1662.78 188.5L1682.95 145.083C1685.98 137.333 1686.28 131 1681.94 123.125Z" fill="#696969"/>
<rect x="1497.46" y="237" width="29" height="20.5421" transform="rotate(43.9248 1497.46 237)" fill="#CFCFCF"/>
<path d="M1452.28 99C1452.45 100.03 1452.83 111.42 1478.28 124H1492.78V50H1452.28V90.7287C1452.28 95.51 1452.12 97.9703 1452.28 99Z" fill="#FAFAFA"/>
<path d="M1521.57 98.84C1521.57 98.84 1521.73 111.42 1496.28 124H1481.78V50H1522.28V90.7287C1522.28 95.51 1521.73 97.8103 1521.57 98.84Z" fill="#FAFAFA"/>
<path d="M1487.28 124L1502.56 50H1522.28V90.7287C1522.28 95.51 1522.45 97.8103 1522.28 98.84C1522.12 99.8697 1522.99 111 1496.99 124H1487.28Z" fill="#CFCFCF"/>
<path d="M1478.28 230.627L1478.28 230.626L1478.28 162.545L1478.28 123.555L1496.28 123.555L1496.28 147.324L1496.28 230C1496.28 235 1500.78 239.5 1504.28 243.5L1489.28 257.5C1478.28 248.5 1478.28 240.5 1478.28 230.627Z" fill="#FAFAFA"/>
<path d="M1478.28 230.627L1478.28 230.626L1478.28 162.545L1487.39 123.555L1496.28 123.555L1496.28 147.324L1496.28 230C1496.28 235 1500.78 239.5 1504.28 243.5L1489.28 257.5C1478.28 248.5 1478.28 240.5 1478.28 230.627Z" fill="#CFCFCF"/>
<path d="M1468 373C1500.4 233 1550.83 166 1572 150H1600.5V373H1468Z" fill="#FAFAFA"/>
<path d="M1733.5 373C1701.1 233 1650.67 166 1629.5 150H1601C1601 150 1571 192.5 1550.5 248.5C1530 304.5 1515.5 373 1515.5 373H1733.5Z" fill="#CFCFCF"/>
<path d="M1467.28 357H1734.28V366H1467.28V357Z" fill="white"/>
<path d="M1465.28 359.5C1465.28 358.119 1466.4 357 1467.78 357C1469.16 357 1470.28 358.119 1470.28 359.5V363.5C1470.28 364.881 1469.16 366 1467.78 366C1466.4 366 1465.28 364.881 1465.28 363.5V359.5Z" fill="white"/>
<path d="M1731.28 359.5C1731.28 358.119 1732.4 357 1733.78 357C1735.16 357 1736.28 358.119 1736.28 359.5V363.5C1736.28 364.881 1735.16 366 1733.78 366C1732.4 366 1731.28 364.881 1731.28 363.5V359.5Z" fill="white"/>
<path d="M1490.94 273H1711.63V282H1490.94V273Z" fill="white"/>
<path d="M1489.28 275.5C1489.28 274.119 1490.21 273 1491.35 273C1492.49 273 1493.42 274.119 1493.42 275.5V279.5C1493.42 280.881 1492.49 282 1491.35 282C1490.21 282 1489.28 280.881 1489.28 279.5V275.5Z" fill="white"/>
<path d="M1709.15 275.5C1709.15 274.119 1710.07 273 1711.22 273C1712.36 273 1713.28 274.119 1713.28 275.5V279.5C1713.28 280.881 1712.36 282 1711.22 282C1710.07 282 1709.15 280.881 1709.15 279.5V275.5Z" fill="white"/>
<path d="M1463.34 371H1738.22V380H1463.34V371Z" fill="white"/>
<path d="M1461.28 373.5C1461.28 372.119 1462.43 371 1463.86 371C1465.28 371 1466.43 372.119 1466.43 373.5V377.5C1466.43 378.881 1465.28 380 1463.86 380C1462.43 380 1461.28 378.881 1461.28 377.5V373.5Z" fill="white"/>
<path d="M1735.13 373.5C1735.13 372.119 1736.29 371 1737.71 371C1739.13 371 1740.28 372.119 1740.28 373.5V377.5C1740.28 378.881 1739.13 380 1737.71 380C1736.29 380 1735.13 378.881 1735.13 377.5V373.5Z" fill="white"/>
<path d="M1512.61 220H1689.95V229H1512.61V220Z" fill="white"/>
<path d="M1511.28 222.5C1511.28 221.119 1512.03 220 1512.94 220C1513.86 220 1514.6 221.119 1514.6 222.5V226.5C1514.6 227.881 1513.86 229 1512.94 229C1512.03 229 1511.28 227.881 1511.28 226.5V222.5Z" fill="white"/>
<path d="M1687.96 222.5C1687.96 221.119 1688.7 220 1689.62 220C1690.54 220 1691.28 221.119 1691.28 222.5V226.5C1691.28 227.881 1690.54 229 1689.62 229C1688.7 229 1687.96 227.881 1687.96 226.5V222.5Z" fill="white"/>
<rect x="1573.28" y="139" width="55" height="9" fill="#393939"/>
<path d="M1510.28 85C1510.28 88.3137 1506.82 91 1503.78 91C1500.74 91 1497.78 88.3137 1497.78 85C1497.78 81.6863 1500.74 79 1503.78 79C1506.82 79 1510.28 81.6863 1510.28 85Z" fill="#696969"/>
<rect x="1565.28" y="143" width="71" height="9" rx="2" fill="#696969"/>
<rect x="1475.28" y="248.053" width="31.2447" height="10.9604" rx="2" transform="rotate(-37.576 1475.28 248.053)" fill="#696969"/>
<rect x="1555.28" y="125" width="92" height="14" rx="2" fill="#696969"/>
<rect x="1501.03" y="163" width="41.6334" height="27.3098" rx="2" transform="rotate(89.4969 1501.03 163)" fill="#343434"/>
<rect x="1572.28" y="91" width="57" height="34" fill="#343434"/>
<path d="M1601.28 12H1562.28L1572.78 88H1601.28H1629.28L1640.28 12H1601.28Z" fill="#343434"/>
<rect x="1568.28" y="85" width="66" height="10" rx="2" fill="#696969"/>
<rect x="1446.28" y="38" width="85" height="13" rx="5" fill="#696969"/>
<rect x="1446.28" y="59" width="85" height="14" rx="5" fill="#696969"/>
<path d="M1469.94 178.787C1469.93 177.682 1470.82 176.777 1471.92 176.765L1502.94 176.432C1504.04 176.42 1504.94 177.306 1504.96 178.41L1505.06 188C1505.07 189.104 1504.19 190.009 1503.08 190.021L1472.07 190.354C1470.96 190.366 1470.06 189.48 1470.04 188.376L1469.94 178.787Z" fill="#696969"/>
<path d="M1470.04 183.478C1470.04 183.478 1465.61 189.908 1465.74 190.39C1465.88 190.871 1476.97 190.269 1476.97 190.269L1476.82 176.715C1476.82 176.715 1465.88 176.422 1465.6 176.835C1465.31 177.249 1470.04 183.478 1470.04 183.478Z" fill="#696969"/>
<path d="M1549.28 32L1558.28 32V24H1549.28C1545.28 24 1541.78 26 1539.78 33L1533.28 74.7037C1532.28 79 1532.28 81 1529.28 81L1504.28 81C1502.39 81 1500.28 82.7909 1500.28 85C1500.28 87.2091 1502.39 89 1504.28 89L1529.28 89C1536.78 89 1539.28 85 1541.16 76.1073L1546.78 36.5C1547.28 33.5 1547.78 32 1549.28 32Z" fill="#9F9F9F"/>
<rect x="1555.28" y="22" width="92" height="12" rx="5" fill="#696969"/>
<rect x="1555.28" width="92" height="12" rx="5" fill="#696969"/>
</svg>
