<svg width="834" height="926" viewBox="0 0 834 926" fill="none" xmlns="http://www.w3.org/2000/svg">
<path d="M240.134 543.526C240.134 543.526 255.427 458.647 316.611 348.16C358.417 272.666 494.646 289.938 537.585 364.792C581.543 441.42 611.083 543.526 611.083 543.526C639.975 524.658 669.611 544.418 689.218 557.492L689.654 557.782C775.192 516.136 828.654 583.919 833.406 590.453V750.244H3.51298V555.979C95.112 509.806 212.96 515.374 240.134 543.526Z" fill="#060820"/>
<path d="M320.769 402.629C258.991 533.907 258.991 608.159 258.991 608.159C198.402 601.739 179.393 605.303 108.111 634.41C77.404 622.494 42.2748 610.931 2.4071 605.786V923.978C76.0469 929.588 165.09 919.061 258.991 869.92C309.483 921.006 491.846 905.876 515.013 870.983C570.909 911.883 728.859 933.795 834 850.632V758.445V757.966V670.051C834 656.389 795.389 624.906 737.769 634.41C726.483 608.159 642.251 579.646 595.205 617.663C595.205 617.663 590.886 520.245 522.735 402.629C485.906 339.069 348.844 342.969 320.769 402.629Z" fill="#FAFAFA"/>
<path d="M425.395 225.726C330.753 322.024 198.254 550.22 425.395 692.624C647.948 550.22 518.125 322.024 425.395 225.726Z" fill="#EDB423"/>
<path d="M425.748 225.727C341.898 470.292 308.633 510.523 425.748 611.102C538.058 509.401 508.222 471.351 425.748 225.727Z" fill="#D22B2B"/>
<path d="M546.496 449.077C580.355 718.761 649.855 624.312 711.039 697.97L3.51343 706.191V696.534C232.372 669.6 451.242 622.5 546.496 449.077Z" fill="#FAFAFA" fill-opacity="0.6"/>
<path d="M520.886 146.277L450.105 40.3932L441.69 54.0556L504.09 146.277C511.784 156.821 511.408 162.277 505.844 174.641C500.498 186.521 485.496 214.564 485.496 214.564L491.809 219.254L498.122 223.944L522.085 172.364C525.684 163.157 526.041 155.632 520.886 146.277Z" fill="#696969"/>
<rect x="301.717" y="281.564" width="34.453" height="24.4047" transform="rotate(43.9248 301.717 281.564)" fill="#CFCFCF"/>
<path d="M248.041 117.615C248.239 118.838 248.693 132.371 278.93 147.316H296.159V59.4015H248.041V107.789C248.041 113.469 247.843 116.392 248.041 117.615Z" fill="#FAFAFA"/>
<path d="M330.352 117.425C330.352 117.425 330.551 132.371 300.314 147.316H283.085V59.4015H331.203V107.789C331.203 113.469 330.551 116.202 330.352 117.425Z" fill="#FAFAFA"/>
<path d="M289.622 147.316L307.775 59.4015H331.203V107.789C331.203 113.469 331.399 116.202 331.203 117.425C331.008 118.648 332.042 131.872 301.153 147.316H289.622Z" fill="#CFCFCF"/>
<path d="M278.93 273.992L278.93 273.992L278.93 193.109L278.93 146.788L300.314 146.788L300.314 175.026L300.314 273.248C300.314 279.188 305.66 284.534 309.819 289.286L291.998 305.919C278.93 295.227 278.93 285.723 278.93 273.992Z" fill="#FAFAFA"/>
<path d="M278.93 273.992L278.93 273.992L278.93 193.108L289.751 146.787L300.315 146.787L300.315 175.026L300.315 273.248C300.315 279.188 305.661 284.534 309.819 289.286L291.998 305.919C278.93 295.226 278.93 285.722 278.93 273.992Z" fill="#CFCFCF"/>
<path d="M266.714 443.137C305.206 276.812 365.123 197.214 390.27 178.205H424.129V443.137H266.714Z" fill="#FAFAFA"/>
<path d="M582.137 443.136C543.645 276.812 483.728 197.213 458.581 178.205H424.722C424.722 178.205 389.081 228.696 364.727 295.226C340.372 361.756 323.146 443.136 323.146 443.136H582.137Z" fill="#CFCFCF"/>
<path d="M265.861 424.128H583.067V434.82H265.861V424.128Z" fill="white"/>
<path d="M263.485 427.098C263.485 425.458 264.815 424.128 266.455 424.128C268.096 424.128 269.426 425.458 269.426 427.098V431.85C269.426 433.491 268.096 434.82 266.455 434.82C264.815 434.82 263.485 433.491 263.485 431.85V427.098Z" fill="white"/>
<path d="M579.502 427.098C579.502 425.458 580.832 424.128 582.472 424.128C584.113 424.128 585.443 425.458 585.443 427.098V431.85C585.443 433.491 584.113 434.82 582.472 434.82C580.832 434.82 579.502 433.491 579.502 431.85V427.098Z" fill="white"/>
<path d="M293.962 324.333H556.154V335.026H293.962V324.333Z" fill="white"/>
<path d="M291.998 327.303C291.998 325.663 293.097 324.333 294.453 324.333C295.809 324.333 296.908 325.663 296.908 327.303V332.056C296.908 333.696 295.809 335.026 294.453 335.026C293.097 335.026 291.998 333.696 291.998 332.056V327.303Z" fill="white"/>
<path d="M553.208 327.303C553.208 325.663 554.307 324.333 555.663 324.333C557.019 324.333 558.118 325.663 558.118 327.303V332.056C558.118 333.696 557.019 335.026 555.663 335.026C554.307 335.026 553.208 333.696 553.208 332.056V327.303Z" fill="white"/>
<path d="M261.179 440.761H587.749V451.453H261.179V440.761Z" fill="white"/>
<path d="M258.733 443.731C258.733 442.09 260.102 440.761 261.791 440.761C263.48 440.761 264.849 442.09 264.849 443.731V448.483C264.849 450.123 263.48 451.453 261.791 451.453C260.102 451.453 258.733 450.123 258.733 448.483V443.731Z" fill="white"/>
<path d="M584.079 443.731C584.079 442.09 585.448 440.761 587.137 440.761C588.826 440.761 590.195 442.09 590.195 443.731V448.483C590.195 450.123 588.826 451.453 587.137 451.453C585.448 451.453 584.079 450.123 584.079 448.483V443.731Z" fill="white"/>
<path d="M319.713 261.367H530.403V272.06H319.713V261.367Z" fill="white"/>
<path d="M318.135 264.338C318.135 262.697 319.018 261.367 320.108 261.367C321.197 261.367 322.08 262.697 322.08 264.338V269.09C322.08 270.73 321.197 272.06 320.108 272.06C319.018 272.06 318.135 270.73 318.135 269.09V264.338Z" fill="white"/>
<path d="M528.036 264.338C528.036 262.697 528.919 261.367 530.008 261.367C531.098 261.367 531.981 262.697 531.981 264.338V269.09C531.981 270.73 531.098 272.06 530.008 272.06C528.919 272.06 528.036 270.73 528.036 269.09V264.338Z" fill="white"/>
<rect x="391.793" y="165.137" width="65.3419" height="10.6923" fill="#393939"/>
<path d="M316.947 100.983C316.947 104.92 312.833 108.111 309.224 108.111C305.616 108.111 302.096 104.92 302.096 100.983C302.096 97.0461 305.616 93.8547 309.224 93.8547C312.833 93.8547 316.947 97.0461 316.947 100.983Z" fill="#696969"/>
<rect x="382.289" y="169.889" width="84.3504" height="10.6923" rx="2" fill="#696969"/>
<rect x="275.366" y="294.696" width="37.1198" height="13.0213" rx="2" transform="rotate(-37.576 275.366 294.696)" fill="#696969"/>
<rect x="370.408" y="148.504" width="109.299" height="16.6325" rx="2" fill="#696969"/>
<rect x="305.954" y="193.649" width="49.4619" height="32.445" rx="2" transform="rotate(89.4969 305.954 193.649)" fill="#343434"/>
<rect x="390.605" y="108.111" width="67.7179" height="40.3932" fill="#343434"/>
<path d="M425.058 14.2566H378.724L391.199 104.547H425.058H458.323L471.391 14.2566H425.058Z" fill="#343434"/>
<rect x="385.853" y="100.983" width="78.4102" height="11.8803" rx="2" fill="#696969"/>
<rect x="240.913" y="45.1453" width="100.983" height="15.4444" rx="5" fill="#696969"/>
<rect x="240.913" y="70.0939" width="100.983" height="16.6325" rx="5" fill="#696969"/>
<path d="M269.02 212.404C269.006 211.092 270.058 210.017 271.371 210.003L308.218 209.607C309.53 209.593 310.605 210.645 310.619 211.958L310.742 223.35C310.756 224.662 309.704 225.737 308.391 225.751L271.544 226.147C270.232 226.161 269.157 225.109 269.143 223.797L269.02 212.404Z" fill="#696969"/>
<path d="M269.137 217.978C269.137 217.978 263.871 225.617 264.031 226.19C264.191 226.762 277.365 226.046 277.365 226.046L277.192 209.943C277.192 209.943 264.199 209.595 263.858 210.087C263.517 210.578 269.137 217.978 269.137 217.978Z" fill="#696969"/>
<path d="M363.28 38.017L373.972 38.017V28.5127H363.28C358.528 28.5127 354.37 30.8887 351.994 39.205L344.272 88.7504C343.083 93.8545 343.083 96.2306 339.519 96.2306L309.819 96.2306C307.572 96.2306 305.066 98.3582 305.066 100.983C305.066 103.607 307.572 105.735 309.819 105.735L339.519 105.735C348.43 105.735 351.4 100.983 353.628 90.4179L360.31 43.3631C360.904 39.799 361.498 38.017 363.28 38.017Z" fill="#9F9F9F"/>
<rect x="370.408" y="26.1367" width="109.299" height="14.2564" rx="5" fill="#696969"/>
<rect x="370.408" width="109.299" height="14.2564" rx="5" fill="#696969"/>
</svg>
