<svg width="399" height="294" viewBox="0 0 399 294" fill="none" xmlns="http://www.w3.org/2000/svg">
<path d="M345.347 54.6464C346.978 56.4117 348.3 58.3104 349.295 60.3419L348.846 60.5617C349.345 61.5817 349.76 62.6354 350.087 63.7231C350.414 64.8108 350.65 65.9184 350.797 67.0445L351.292 66.9801C351.584 69.223 351.529 71.5363 351.143 73.9082L350.65 73.828C350.302 75.9694 349.678 78.1653 348.789 80.4072L349.254 80.5915C348.44 82.6429 347.409 84.7273 346.169 86.838L345.738 86.5848C344.629 88.4734 343.35 90.3856 341.907 92.3165L342.308 92.6158C340.975 94.3993 339.505 96.1967 337.903 98.0042L337.529 97.6726C336.052 99.3384 334.462 101.014 332.763 102.696L333.115 103.051C331.51 104.638 329.81 106.231 328.016 107.826L327.684 107.452C326.005 108.945 324.245 110.441 322.404 111.936L322.72 112.324C320.964 113.752 319.137 115.179 317.24 116.605L316.94 116.205C315.129 117.566 313.255 118.926 311.32 120.283L311.607 120.692C309.742 121.999 307.822 123.303 305.846 124.603L305.571 124.186C303.669 125.437 301.716 126.685 299.714 127.927L299.978 128.352C298.037 129.557 296.049 130.757 294.017 131.951L293.764 131.52C291.794 132.678 289.783 133.829 287.731 134.974L287.975 135.411C285.974 136.527 283.936 137.637 281.86 138.74L281.625 138.298C279.602 139.373 277.544 140.44 275.452 141.5L275.678 141.946C273.63 142.984 271.548 144.014 269.436 145.035L269.218 144.585C267.151 145.585 265.054 146.577 262.928 147.56L263.138 148.013C261.048 148.979 258.931 149.937 256.787 150.885L256.584 150.427C254.481 151.357 252.352 152.278 250.198 153.189L250.393 153.65C248.275 154.546 246.134 155.433 243.969 156.309L243.781 155.846C241.649 156.709 239.495 157.562 237.32 158.405L237.5 158.872C235.351 159.705 233.181 160.527 230.99 161.34L230.816 160.871C228.655 161.672 226.473 162.463 224.273 163.243L224.44 163.714C222.263 164.486 220.067 165.248 217.853 165.997L217.693 165.524C215.511 166.263 213.311 166.991 211.096 167.708L211.249 168.183C209.054 168.893 206.842 169.592 204.615 170.279L204.468 169.801C203.359 170.143 202.246 170.482 201.129 170.818C200.012 171.154 198.896 171.486 197.783 171.813L197.923 172.292C195.687 172.949 193.457 173.587 191.235 174.206L191.1 173.725C188.857 174.35 186.621 174.956 184.393 175.544L184.521 176.028C182.261 176.624 180.01 177.201 177.768 177.759L177.647 177.274C175.382 177.838 173.127 178.382 170.882 178.906L170.995 179.393C168.721 179.925 166.456 180.436 164.204 180.928L164.098 180.439C161.818 180.937 159.551 181.414 157.297 181.87L157.396 182.36C155.107 182.824 152.831 183.267 150.571 183.688L150.479 183.197C148.18 183.626 145.896 184.032 143.629 184.418L143.713 184.911C141.402 185.303 139.108 185.673 136.832 186.021L136.757 185.527C134.441 185.88 132.145 186.211 129.869 186.518L129.936 187.013C127.611 187.327 125.307 187.617 123.026 187.882L122.968 187.385C120.639 187.656 118.333 187.902 116.053 188.122L116.101 188.62C113.762 188.846 111.449 189.045 109.165 189.218L109.127 188.72C106.784 188.897 104.471 189.047 102.19 189.168L102.216 189.668C99.8631 189.793 97.5435 189.889 95.2594 189.956L95.2448 189.456C92.8896 189.525 90.5725 189.562 88.2956 189.568L88.2969 190.068C85.9322 190.074 83.6106 190.046 81.3344 189.985L81.3478 189.485C78.9851 189.422 76.6718 189.322 74.4106 189.186L74.3806 189.685C72.0124 189.543 69.7009 189.361 67.449 189.14L67.4979 188.642C65.1379 188.41 62.8442 188.135 60.6204 187.817L60.5495 188.312C58.1737 187.971 55.8767 187.582 53.6628 187.143L53.76 186.653C51.4146 186.188 49.1642 185.668 47.0136 185.094L46.8846 185.577C44.5512 184.954 42.3334 184.266 40.2378 183.514L40.4067 183.043C38.1379 182.229 36.0159 181.341 34.0486 180.378L33.8288 180.827C31.6301 179.751 29.6197 178.582 27.8091 177.32L28.0949 176.91C26.1162 175.531 24.3845 174.044 22.9125 172.45L22.5452 172.789C20.9147 171.024 19.5922 169.125 18.5976 167.094L19.0466 166.874C18.5473 165.854 18.1327 164.8 17.8054 163.713C17.4781 162.625 17.2423 161.517 17.0958 160.391L16.6 160.456C16.3084 158.213 16.3634 155.9 16.7489 153.528L17.2425 153.608C17.5905 151.466 18.2139 149.271 19.1031 147.029L18.6383 146.844C19.452 144.793 20.4833 142.709 21.7231 140.598L22.1542 140.851C23.2635 138.962 24.5426 137.05 25.9854 135.119L25.5849 134.82C26.9176 133.037 28.3875 131.239 29.9895 129.432L30.3636 129.763C31.8401 128.097 33.43 126.422 35.1294 124.74L34.7777 124.385C36.3819 122.797 38.0825 121.205 39.876 119.61L40.2083 119.984C41.8869 118.491 43.6478 116.995 45.4879 115.499L45.1725 115.111C46.9283 113.684 48.7556 112.257 50.652 110.831L50.9524 111.231C52.7631 109.87 54.6372 108.51 56.5726 107.153L56.2855 106.744C58.15 105.437 60.0709 104.132 62.0462 102.833L62.3211 103.25C64.2232 101.999 66.176 100.751 68.178 99.5085L67.9143 99.0836C69.8559 97.8786 71.8433 96.6786 73.8751 95.4846L74.1284 95.9157C76.0979 94.7583 78.1092 93.6066 80.161 92.4616L79.9173 92.025C81.918 90.9086 83.9568 89.7986 86.0326 88.696L86.2671 89.1375C88.29 88.0631 90.348 86.9956 92.44 85.936L92.2141 85.4899C94.2628 84.4522 96.3439 83.4221 98.4563 82.4005L98.674 82.8506C100.741 81.8508 102.838 80.8591 104.965 79.8762L104.755 79.4224C106.844 78.4565 108.962 77.4992 111.106 76.5511L111.308 77.0084C113.411 76.0786 115.54 75.1577 117.694 74.2464L117.499 73.786C119.617 72.89 121.759 72.0033 123.924 71.1267L124.111 71.5901C126.243 70.727 128.397 69.8735 130.573 69.0303L130.392 68.5641C132.542 67.7312 134.712 66.9084 136.902 66.0962L137.076 66.5651C139.238 65.7636 141.419 64.9726 143.619 64.1927L143.452 63.7214C145.63 62.9494 147.825 62.1883 150.039 61.4385L150.199 61.912C152.382 61.1728 154.581 60.4447 156.797 59.7282L156.643 59.2524C158.838 58.5424 161.05 57.8438 163.277 57.1571L163.424 57.6349C164.534 57.2928 165.647 56.9537 166.764 56.6176C167.881 56.2816 168.996 55.9501 170.11 55.6231L169.969 55.1434C172.205 54.4871 174.435 53.8491 176.658 53.2296L176.792 53.7112C179.035 53.086 181.271 52.4794 183.499 51.8916L183.371 51.4081C185.631 50.8118 187.882 50.2348 190.124 49.6768L190.245 50.162C192.51 49.5983 194.766 49.0542 197.011 48.5296L196.897 48.0428C199.172 47.5112 201.436 46.9996 203.688 46.5081L203.795 46.9966C206.074 46.499 208.342 46.022 210.596 45.5654L210.496 45.0754C212.786 44.6117 215.061 44.1691 217.322 43.7475L217.413 44.2391C219.712 43.8103 221.996 43.4034 224.263 43.0182L224.179 42.5253C226.491 42.1326 228.785 41.7624 231.06 41.4148L231.136 41.9091C233.451 41.5554 235.747 41.225 238.023 40.918L237.956 40.4225C240.282 40.1087 242.586 39.8192 244.867 39.554L244.924 40.0506C247.254 39.7798 249.559 39.5342 251.839 39.314L251.791 38.8163C254.131 38.5902 256.443 38.3907 258.728 38.2177L258.766 38.7163C261.109 38.5388 263.421 38.3893 265.703 38.2675L265.676 37.7683C268.029 37.6427 270.349 37.5466 272.633 37.4801L272.648 37.9799C275.003 37.9112 277.32 37.874 279.597 37.8681L279.596 37.3681C281.96 37.3619 284.282 37.3895 286.558 37.4506L286.545 37.9504C288.907 38.0139 291.221 38.1136 293.482 38.2495L293.512 37.7504C295.88 37.8927 298.192 38.0745 300.443 38.2959L300.394 38.7935C302.755 39.0254 305.048 39.3007 307.272 39.6193L307.343 39.1243C309.719 39.4646 312.016 39.8542 314.23 40.2928L314.132 40.7832C316.478 41.2479 318.728 41.7676 320.879 42.342L321.008 41.859C323.341 42.4822 325.559 43.1699 327.655 43.9218L327.486 44.3924C329.755 45.2064 331.876 46.0952 333.844 47.058L334.064 46.6089C336.262 47.6849 338.273 48.854 340.083 50.1157L339.797 50.5259C341.776 51.9048 343.508 53.392 344.98 54.9857L345.347 54.6464Z" stroke="#FAFAFA" stroke-dasharray="7 7"/>
<circle cx="183.967" cy="109.785" r="79" transform="rotate(-32.2487 183.967 109.785)" fill="#60AAC5"/>
<path d="M141.638 63.2671C141.599 63.6076 141.232 63.921 141.243 64.1822C141.311 65.6376 141.688 65.9787 144.147 65.4103C145.245 65.4056 145.689 65.6612 146.785 64.9698C147.218 64.6965 150.045 63.2248 152.31 64.1481C154.121 64.8867 155.09 67.666 155.348 68.9634C156.435 69.3397 156.931 70.1074 158.153 69.9294C158.906 69.8197 160.267 69.1754 160.365 68.2998C161.975 66.456 165.305 63.2639 165.747 65.2464C167.073 65.2516 168.012 65.0137 167.172 63.6815C166.304 62.3063 166.064 62.0714 164.593 61.9061C163.657 60.6367 162.51 57.5255 165.407 55.2364C165.039 54.4778 165.182 53.0013 165.155 52.1553C165.133 51.4436 165.451 50.6344 165.533 49.901C165.67 48.6841 163.906 50.0065 163.788 50.1021C163.245 50.5407 162.602 51.8171 161.873 50.6621C161.217 49.6214 157.486 49.3698 156.496 49.8426C154.857 50.626 153.276 48.6339 151.905 49.499C151.227 49.9268 150.111 50.2557 149.661 51.077C149.121 52.0629 148.861 53.1034 148.372 54.1405C147.082 57.2039 144.061 59.8805 142.963 60.9733C142.474 61.2817 141.699 62.7243 141.638 63.2671Z" fill="#89C36C"/>
<path d="M119.569 136.47C118.046 135.661 116.612 135.459 115.615 133.878C112.473 128.898 108.388 124.157 107.157 119.227C105.11 111.031 107.781 102.315 108.338 98.6105C108.039 95.6012 108.271 93.3708 109.952 90.86C110.965 89.345 111.168 86.4232 111.287 84.6083C111.443 82.2558 116.525 71.9328 114.947 70.5633C114.814 68.283 117.574 63.5855 120.044 62.6181C122.069 61.3404 123.625 62.251 122.179 66.001C120.371 70.6886 122.772 67.4004 128.511 62.0054C131.411 59.2801 133.172 60.1094 139.172 58.2353C141.028 57.6558 127.499 64.418 132.038 72.6468C132.674 73.7993 131.845 73.7705 132.715 75.1493C133.334 74.9684 133.684 74.4867 134.436 74.6109C135.744 74.8271 137.639 74.1754 138.362 75.3216C137.988 76.1244 137.029 78.3933 136.178 81.0458C134.758 82.1788 134.237 84.5799 133.096 85.856C131.227 87.9452 134.556 87.796 136.034 87.9621C136.38 88.0009 137.782 88.6785 137.83 88.6645C138.501 88.4681 139.599 87.6633 140.329 87.8284C142.148 88.2402 139.725 92.6947 141.959 93.8828C144.042 94.9907 143.927 91.4909 143.284 90.4713C142.283 88.8854 143.962 87.5743 144.409 86.2842C144.927 84.7872 146.055 82.5606 145.986 80.9753C145.901 79.0376 144.338 77.9116 145.617 75.7988C146.743 73.9381 149.331 75.4759 150.575 76.3088C151.924 77.2115 155.019 77.2947 156.495 77.6287C157.746 77.9118 159.239 79.1393 160.585 78.3964C162.249 76.7816 165.969 75.7239 167.535 84.4109C166.848 85.1786 164.07 85.5155 163.134 85.1915C160 84.107 156.357 88.6054 156.043 91.4042C154.318 92.8893 152.266 98.3907 157.856 108.515C157.629 109.17 158.412 109.716 158.13 110.532C156.996 112.105 155.879 116.297 160.478 120.48C163.497 128.021 159.376 122.344 156.607 120.314C155.042 119.167 153.55 117.929 151.551 119.19C150.313 120.765 149.48 123.373 144.601 125.163C139.721 126.954 140.353 131.728 142.865 135.939C144.243 136.861 144.343 139.033 146.021 139.614C153.314 142.722 153.937 141.161 155.252 137.361C155.703 136.06 156.378 136.434 156.955 135.104C159.177 135.607 157.275 138.94 157.12 140.321C156.685 142.082 159.67 144.55 168.405 145.903C168.682 146.484 170.013 149.526 171.119 148.827C172.488 147.964 172.85 146.791 173.032 145.174C171.382 141.373 179.886 137.05 188.909 133.547C191.498 133.226 192.819 136.117 196.293 136.422C201.607 132.189 213.165 125.197 216.885 131.093C218.545 131.468 219.118 132.727 221.16 132.613C225.771 130.217 236.116 126.14 240.613 129C242.514 129.374 245.545 129.492 246.982 130.777C250.674 134.079 251.809 130.695 255.044 128.91C256.421 128.151 256.205 128.138 257.717 128.287C258.591 128.373 260.631 128.221 261.12 130.869C254.531 163.513 226.998 180.196 213.251 184.834C212.23 185.479 208.723 184.342 209.293 182.695C209.461 182.211 208.246 178.799 207.976 178.31C205.715 174.114 200.074 165.719 195.6 165.704C191.126 165.689 185.584 166.679 183.372 167.176C182.055 167.028 180.733 166.178 179.557 165.977C171.619 161.213 174.522 156.968 176.966 155.441C178.611 155.723 177.865 154.314 177.391 153.563C177.216 153.285 176.268 151.401 176.222 151.403C174.336 151.486 168.684 153.694 167.588 151.957C164.042 149.868 157.011 149.659 153.938 149.815C150.87 148.336 148.128 147.005 145.308 145.118C143.502 143.91 141.095 144.823 139.263 143.878C138.036 143.244 134.716 142.464 133.977 141.804C124.737 140.449 117.018 128.539 115.388 122.902C114.949 121.403 112.74 123.39 113.696 123.969C113.918 126.194 115.968 130.343 117.895 132.44C117.689 133.64 120.401 136.913 119.569 136.47Z" fill="#89C36C"/>
<path d="M137.438 73.5182C136.29 74.0355 134.598 70.6772 134.179 70.1264C133.381 68.8613 134.466 68.807 133.703 67.598C133.043 66.5517 137.514 61.4235 139.043 60.1417C142.14 57.5452 139.229 65.1117 139.578 65.6651C140.12 66.5241 139.77 69.5487 140.606 69.8915C141.634 70.3128 142.032 71.4292 142.714 72.5104C143.877 74.3532 141.381 75.346 141.599 74.0287C141.852 72.5049 140.197 73.0596 139.396 72.8738C139.011 72.7844 137.753 73.3761 137.438 73.5182Z" fill="#89C36C"/>
<path d="M167.488 126.337C164.668 126.495 163.433 126.637 160.715 128.002C157.733 129.884 161.377 129.903 163.005 128.876C163.897 128.313 165.334 127.933 166.371 127.782C167.557 127.61 167.624 128.105 168.804 128.372C168.995 128.415 171.673 127.979 171.885 127.845C172.915 127.195 170.013 127.43 169.908 127.418C168.969 127.312 168.807 126.264 167.488 126.337Z" fill="#89C36C"/>
<path d="M181.49 125.768C180.618 127.36 175.096 126.226 173.703 126.312C176.051 125.539 176.759 126.724 179.124 125.232C179.467 125.016 181.677 123.857 181.733 123.908C182.401 124.505 181.804 125.194 181.49 125.768Z" fill="#89C36C"/>
<path d="M174.676 44.0555C171.548 42.9731 172.097 42.9997 171.418 39.6071C169.968 39.0576 170.54 35.8811 171.007 34.3615C171.335 31.4354 175.104 30.7547 177.247 29.5552C195.395 26.6128 237.202 32.5457 259.247 79.8159C259.512 81.6321 264.583 94.9133 261.197 95.1023C259.177 95.215 256.689 90.9844 255.692 89.5926C253.969 87.1866 250.848 86.6368 249.044 84.5149C247.471 82.6657 244.075 82.4157 241.771 82.0202C238.633 81.4817 236.81 79.8723 235.124 77.1994C233.135 74.0482 230.712 73.3365 228.093 71.1074C225.854 69.2024 224.271 66.7649 223.271 63.9755C222.328 61.3445 221.569 59.7024 219.916 57.6889C218.943 56.5029 215.609 54.7514 214.08 54.8678C211.74 55.0458 209.751 55.9102 208.976 53.2587C208.603 51.9847 210.045 47.7285 207.019 47.8609C201.142 46.2626 190.554 50.6295 185.994 53.0128C182.9 54.9649 185.648 49.1398 183.355 48.8821C182.127 46.976 177.057 44.8702 174.676 44.0555Z" fill="#89C36C"/>
<mask id="mask0" mask-type="alpha" maskUnits="userSpaceOnUse" x="303" y="28" width="42" height="42">
<circle cx="323.951" cy="48.9505" r="20.2638" transform="rotate(-178.024 323.951 48.9505)" fill="#FEF6E9"/>
</mask>
<g mask="url(#mask0)">
<circle cx="323.951" cy="48.9505" r="20.2638" transform="rotate(-178.024 323.951 48.9505)" fill="#85838F"/>
<circle cx="319.827" cy="51.79" r="20.2638" transform="rotate(-178.024 319.827 51.79)" fill="#BFB9BB"/>
</g>
<ellipse cx="323.534" cy="61.0123" rx="2.08598" ry="1.48998" transform="rotate(-169.884 323.534 61.0123)" fill="#696573"/>
<ellipse cx="316.079" cy="43.759" rx="0.595994" ry="0.446995" transform="rotate(-167.967 316.079 43.759)" fill="#696573"/>
<ellipse cx="327.457" cy="61.8185" rx="0.670493" ry="0.521495" transform="rotate(-178.024 327.457 61.8185)" fill="#696573"/>
<ellipse cx="312.88" cy="52.2211" rx="2.60747" ry="2.16048" transform="rotate(-165.051 312.88 52.2211)" fill="#696573"/>
<ellipse cx="321.558" cy="40.5191" rx="4.32095" ry="3.87396" transform="rotate(-169.634 321.558 40.5191)" fill="#696573"/>
<g style="mix-blend-mode:overlay">
<circle cx="323.951" cy="48.9505" r="20.2638" transform="rotate(-178.024 323.951 48.9505)" fill="#74848E"/>
</g>
<mask id="mask1" mask-type="alpha" maskUnits="userSpaceOnUse" x="143" y="145" width="113" height="44">
<path d="M209.5 184.5C179.5 194.1 152.833 183.5 143.5 177.5L256 145.5C253.5 154.167 239.5 174.9 209.5 184.5Z" fill="#C4C4C4"/>
</mask>
<g mask="url(#mask1)">
<path d="M345.38 54.7835C347.013 56.5461 348.338 58.4426 349.333 60.472L348.884 60.6922C349.384 61.7114 349.799 62.7645 350.126 63.8516C350.453 64.9388 350.688 66.0459 350.834 67.1717L351.33 67.1075C351.62 69.3492 351.562 71.6615 351.173 74.0326L350.679 73.9517C350.328 76.091 349.702 78.2849 348.808 80.5249L349.273 80.7101C348.456 82.7588 347.422 84.8405 346.179 86.9486L345.748 86.6946C344.636 88.5807 343.354 90.4905 341.908 92.419L342.308 92.7189C340.973 94.4993 339.502 96.2936 337.898 98.098L337.524 97.7659C336.046 99.4291 334.454 101.102 332.753 102.781L333.104 103.137C331.499 104.722 329.797 106.312 328.002 107.905L327.67 107.531C325.99 109.021 324.229 110.513 322.388 112.007L322.703 112.395C320.947 113.82 319.119 115.245 317.222 116.668L316.922 116.268C315.11 117.627 313.236 118.985 311.3 120.34L311.586 120.749C309.722 122.055 307.8 123.357 305.825 124.655L305.55 124.237C303.648 125.486 301.695 126.732 299.693 127.973L299.956 128.398C298.014 129.601 296.027 130.8 293.995 131.992L293.742 131.561C291.773 132.716 289.761 133.866 287.71 135.01L287.953 135.446C285.953 136.561 283.914 137.67 281.838 138.771L281.604 138.329C279.581 139.402 277.524 140.468 275.432 141.527L275.658 141.973C273.609 143.009 271.528 144.038 269.416 145.058L269.199 144.608C267.132 145.607 265.035 146.597 262.909 147.579L263.119 148.033C261.03 148.998 258.913 149.954 256.77 150.901L256.568 150.443C254.465 151.372 252.336 152.292 250.183 153.203L250.377 153.663C248.26 154.558 246.119 155.444 243.955 156.32L243.767 155.856C241.636 156.719 239.483 157.571 237.308 158.414L237.488 158.88C235.339 159.712 233.17 160.534 230.98 161.346L230.806 160.877C228.645 161.678 226.465 162.468 224.265 163.247L224.432 163.719C222.256 164.49 220.06 165.251 217.848 166L217.687 165.527C215.506 166.265 213.307 166.993 211.092 167.709L211.246 168.185C209.051 168.895 206.84 169.593 204.614 170.279L204.467 169.801C203.358 170.143 202.245 170.482 201.129 170.818C200.012 171.154 198.897 171.486 197.784 171.812L197.925 172.292C195.689 172.948 193.46 173.586 191.238 174.205L191.104 173.724C188.862 174.349 186.627 174.955 184.4 175.543L184.527 176.027C182.269 176.623 180.018 177.2 177.777 177.758L177.656 177.273C175.392 177.837 173.137 178.381 170.893 178.906L171.007 179.393C168.733 179.924 166.47 180.436 164.219 180.928L164.112 180.439C161.834 180.937 159.567 181.415 157.314 181.872L157.414 182.362C155.125 182.826 152.851 183.269 150.591 183.691L150.499 183.199C148.201 183.628 145.918 184.036 143.652 184.422L143.736 184.915C141.426 185.308 139.133 185.679 136.858 186.027L136.783 185.533C134.468 185.887 132.173 186.218 129.898 186.526L129.965 187.022C127.641 187.336 125.338 187.627 123.058 187.893L123 187.396C120.671 187.668 118.367 187.915 116.088 188.136L116.136 188.634C113.798 188.861 111.486 189.062 109.203 189.236L109.164 188.737C106.823 188.916 104.511 189.067 102.23 189.19L102.257 189.689C99.905 189.816 97.5862 189.914 95.303 189.982L95.2881 189.482C92.9338 189.552 90.6175 189.591 88.3415 189.599L88.3432 190.099C85.9793 190.107 83.6585 190.081 81.3831 190.022L81.3961 189.522C79.0341 189.461 76.7215 189.363 74.461 189.229L74.4315 189.728C72.0639 189.588 69.7529 189.409 67.5016 189.19L67.55 188.692C65.191 188.463 62.8984 188.19 60.6755 187.874L60.6052 188.369C58.2296 188.032 55.9328 187.645 53.719 187.209L53.8156 186.719C51.4702 186.257 49.2196 185.74 47.0689 185.169L46.9406 185.652C44.6074 185.033 42.3897 184.349 40.2941 183.6L40.4623 183.129C38.1924 182.319 36.0694 181.434 34.1011 180.475L33.882 180.924C31.682 179.852 29.6705 178.687 27.8588 177.429L28.1439 177.019C26.163 175.643 24.4295 174.16 22.9561 172.57L22.5893 172.909C20.9563 171.147 19.6321 169.25 18.6368 167.221L19.0857 167.001C18.5859 165.981 18.1712 164.928 17.8441 163.841C17.5169 162.754 17.2816 161.647 17.136 160.521L16.6401 160.585C16.3501 158.344 16.4078 156.031 16.7969 153.66L17.2903 153.741C17.6414 151.602 18.2682 149.408 19.1613 147.168L18.6968 146.983C19.5136 144.934 20.5481 142.852 21.7911 140.744L22.2218 140.998C23.334 139.112 24.6159 137.202 26.0616 135.274L25.6616 134.974C26.9962 133.194 28.4681 131.399 30.0718 129.595L30.4455 129.927C31.9238 128.264 33.5156 126.591 35.2168 124.912L34.8655 124.556C36.4712 122.971 38.1732 121.381 39.968 119.788L40.2998 120.162C41.9792 118.672 43.7407 117.179 45.5813 115.686L45.2663 115.298C47.0229 113.873 48.851 112.448 50.7481 111.025L51.0482 111.424C52.8595 110.065 54.7341 108.708 56.6699 107.353L56.3833 106.943C58.2481 105.638 60.1693 104.336 62.145 103.038L62.4196 103.456C64.3219 102.206 66.2749 100.961 68.277 99.7198L68.0137 99.2948C69.9553 98.0916 71.9428 96.8933 73.9746 95.701L74.2276 96.1323C76.1971 94.9766 78.2084 93.8265 80.26 92.6831L80.0166 92.2463C82.0171 91.1315 84.0558 90.023 86.1314 88.9218L86.3657 89.3635C88.3883 88.2905 90.4461 87.2244 92.5378 86.1662L92.3121 85.72C94.3605 84.6837 96.4413 83.6549 98.5533 82.6345L98.7708 83.0847C100.838 82.0861 102.934 81.0956 105.06 80.1139L104.851 79.6599C106.94 78.6952 109.057 77.7389 111.2 76.792L111.402 77.2493C113.505 76.3205 115.633 75.4005 117.787 74.4901L117.592 74.0296C119.71 73.1346 121.851 72.2488 124.015 71.373L124.203 71.8365C126.334 70.9742 128.487 70.1215 130.662 69.2791L130.482 68.8129C132.63 67.9807 134.8 67.1586 136.99 66.3471L137.164 66.816C139.324 66.0152 141.505 65.2248 143.704 64.4454L143.537 63.9741C145.714 63.2027 147.909 62.4421 150.122 61.6927L150.283 62.1663C152.464 61.4276 154.663 60.6999 156.878 59.9837L156.724 59.508C158.919 58.7983 161.13 58.1 163.356 57.4136L163.503 57.8914C164.612 57.5495 165.725 57.2106 166.841 56.8746C167.957 56.5386 169.072 56.2073 170.186 55.8804L170.045 55.4007C172.28 54.7446 174.509 54.1068 176.731 53.4873L176.866 53.969C179.108 53.3438 181.343 52.7374 183.57 52.1495L183.442 51.6661C185.701 51.0698 187.952 50.4927 190.193 49.9347L190.313 50.4199C192.578 49.8561 194.832 49.3119 197.076 48.7871L196.962 48.3003C199.236 47.7685 201.5 47.2567 203.751 46.7649L203.857 47.2534C206.136 46.7556 208.402 46.2782 210.656 45.8213L210.556 45.3312C212.844 44.8672 215.119 44.4242 217.378 44.0021L217.47 44.4936C219.768 44.0644 222.051 43.6569 224.317 43.2711L224.233 42.7782C226.544 42.3849 228.837 42.0141 231.111 41.6658L231.187 42.16C233.502 41.8056 235.797 41.4745 238.071 41.1666L238.004 40.6711C240.329 40.3565 242.632 40.0661 244.912 39.7999L244.97 40.2965C247.298 40.0247 249.603 39.7782 251.882 39.5568L251.833 39.0591C254.172 38.832 256.484 38.6313 258.767 38.4571L258.805 38.9556C261.147 38.7769 263.459 38.626 265.739 38.5029L265.712 38.0036C268.065 37.8766 270.383 37.7791 272.667 37.711L272.682 38.2108C275.036 38.1406 277.352 38.1017 279.628 38.094L279.627 37.594C281.99 37.5861 284.311 37.6118 286.587 37.671L286.574 38.1708C288.936 38.2323 291.248 38.3299 293.509 38.4637L293.538 37.9645C295.906 38.1046 298.217 38.2842 300.468 38.5032L300.42 39.0008C302.779 39.2302 305.071 39.503 307.294 39.8188L307.365 39.3238C309.74 39.6613 312.037 40.048 314.251 40.4837L314.154 40.9743C316.5 41.4359 318.75 41.9525 320.901 42.5237L321.029 42.0405C323.362 42.6602 325.58 43.3443 327.676 44.0924L327.507 44.5633C329.777 45.3737 331.9 46.2589 333.869 47.218L334.088 46.7686C336.288 47.8406 338.299 49.0057 340.111 50.2634L339.826 50.6741C341.807 52.0494 343.54 53.533 345.014 55.1233L345.38 54.7835Z" stroke="#FAFAFA" stroke-dasharray="7 7"/>
</g>
<path d="M46.5 2L47.7198 15.856L58 17.5L47.7198 19.144L46.5 33L45.2802 19.144L35 17.5L45.2802 15.856L46.5 2Z" fill="#FFE870"/>
<path d="M383.5 146L385.144 164.326L399 166.5L385.144 168.674L383.5 187L381.856 168.674L368 166.5L381.856 164.326L383.5 146Z" fill="#FFE870"/>
<path d="M20.5 249L22.3562 269.114L38 271.5L22.3562 273.886L20.5 294L18.6438 273.886L3 271.5L18.6438 269.114L20.5 249Z" fill="#FFE870"/>
</svg>
