<svg width="1007" height="1007" viewBox="0 0 1007 1007" fill="none" xmlns="http://www.w3.org/2000/svg">
<g clip-path="url(#clip0)">
<mask id="mask0" mask-type="alpha" maskUnits="userSpaceOnUse" x="-107" y="114" width="1222" height="780">
<path d="M40.3072 736.312C-10.3359 670.613 -97.9003 634.786 -106.114 616.993L40.3072 114.874L1055.91 136.773L1114.22 616.993C1068.14 624.293 986.932 640.261 986.932 727.86C986.932 837.359 913.021 861.996 876.064 870.209C835.98 879.116 729.61 852.415 621.48 805.878C513.35 759.341 470.25 801.853 341.463 870.209C212.676 938.565 121.925 842.195 40.3072 736.312Z" fill="#C4C4C4"/>
</mask>
<g mask="url(#mask0)">
<circle cx="505.78" cy="1116.66" r="557.068" transform="rotate(-95.3194 505.78 1116.66)" fill="#CFCFCF"/>
<path d="M73.2428 1376.64C140.6 1391.47 184.536 1489.36 198.084 1536.45C316.839 1630.89 439.72 1474.39 402.727 1372.34C365.735 1270.29 508.329 1177.89 588.874 1157.2C669.419 1136.52 437.016 854.849 442.865 1065.3C447.545 1233.66 368.733 1204.07 328.743 1168.24C303.596 1144.2 229.018 1101.03 131.877 1120.63C34.7364 1140.22 -1.22653 1216.54 -7.06535 1252.25C-8.36161 1287.54 5.88525 1361.82 73.2428 1376.64Z" fill="#9F9F9F"/>
<path d="M703.002 978.88C753.463 990.637 864.06 1167.17 774.596 911.144C662.521 590.406 652.093 1019.77 500.755 773.632C451.743 773.206 470.029 823.791 380.553 832.122C329.808 836.847 388.672 780.788 276.333 812.731C212.035 806.265 192.454 803.969 205.215 775.87C218.49 741.728 216.956 744.222 230.232 710.071C243.507 675.92 268.998 694.408 265.96 661.78C264.524 646.354 312.042 660.809 362.428 652.069C454.078 565.105 432.208 615.634 458.691 610.925C470.314 620.569 472.027 743.411 524.684 710.695C467.944 584.344 684.248 743.746 748.177 715.613C843.018 673.876 744.28 787.636 938.257 813.101C1010.91 822.639 843.413 854.843 867.321 934.893C891.23 1014.94 991.353 884.105 981.12 950.883C970.886 1017.66 1036.94 1165.93 1019.5 1332.1C992.944 1400.4 976.631 1401.93 945.522 1421.28C914.413 1440.63 908.338 1375.38 936.408 1323.4C964.479 1271.42 881.391 1262.7 832.45 1267.26C783.509 1271.81 865.472 1445.19 813.493 1417.12C761.514 1389.05 521.868 1386 656.036 1316.59C880.745 1200.35 652.542 967.123 703.002 978.88Z" fill="#9F9F9F"/>
</g>
<g style="mix-blend-mode:multiply">
<path d="M189.533 705.067C183.417 707.553 183.023 711.699 188.652 714.327C194.282 716.955 203.803 717.071 209.919 714.585L524.726 586.644C530.842 584.159 531.237 580.013 525.607 577.385C519.978 574.756 510.456 574.641 504.34 577.126L189.533 705.067Z" fill="#A2A2A2"/>
<path d="M305.537 733.546C298.888 736.248 298.46 740.754 304.579 743.611L407.218 791.532C413.337 794.389 423.687 794.514 430.335 791.812L534.66 749.413C541.308 746.712 541.737 742.205 535.618 739.348L432.979 691.428C426.86 688.571 416.51 688.445 409.862 691.147L305.537 733.546Z" fill="#A2A2A2"/>
<path d="M411.669 690.412L397.824 696.039L488.196 738.232L428.609 691.515C425.195 688.838 416.875 688.297 411.669 690.412Z" fill="#A2A2A2"/>
<path d="M212.316 707.543C203.452 711.146 202.88 717.154 211.039 720.963L345.022 783.518C353.181 787.327 366.981 787.495 375.845 783.892L472.146 744.755C481.01 741.152 481.582 735.144 473.423 731.335L339.439 668.78C331.281 664.971 317.481 664.803 308.617 668.406L212.316 707.543Z" fill="#A2A2A2"/>
<path d="M443.8 808.611L399.253 787.813C393.134 784.956 393.563 780.45 400.211 777.748L504.536 735.349C511.185 732.647 521.535 732.773 527.654 735.63L570.892 755.817C580.549 760.326 573.096 767.752 558.837 767.829L507.154 768.108C484.358 767.978 480.491 771.428 479.067 779.523L472.077 804.486C470.387 810.523 453.249 813.023 443.8 808.611Z" fill="#A2A2A2"/>
</g>
<rect x="401.671" y="208.541" width="25.813" height="392.705" rx="12.9065" transform="rotate(-15.7936 401.671 208.541)" fill="#8A9CB3"/>
<rect x="516.202" y="210.596" width="158.021" height="149.644" rx="3" transform="rotate(-15.7936 516.202 210.596)" fill="#151B35"/>
<path d="M556.238 352.136L549.295 327.591L659.404 296.446L559.149 353.332C558.021 353.972 556.591 353.385 556.238 352.136Z" fill="#5A7DA7"/>
<rect x="419.43" y="208.81" width="207.062" height="149.644" rx="4" transform="rotate(-15.7936 419.43 208.81)" fill="#151B35"/>
<path d="M722.306 152.3L634.441 177.153C632.847 177.604 631.92 179.262 632.371 180.856L671.467 319.078C671.918 320.672 673.576 321.599 675.17 321.148L762.694 296.392C765.21 295.68 765.675 292.314 763.446 290.947L704.2 254.619C687.273 244.827 687.986 237.335 695.29 223.12L725.85 156.437C726.916 154.111 724.768 151.604 722.306 152.3Z" fill="#151B35"/>
<path d="M507.073 264.083C513.993 256.867 522.446 251.45 522.446 251.45C522.446 251.45 508.555 267.968 506.614 270.537C504.624 273.172 493.637 290.351 493.637 290.351C493.637 290.351 505.401 273.448 510.312 268.201C515.224 262.955 521.246 257.54 525.733 254.036C540.584 242.441 551.883 235.373 556.334 232.811C564.874 227.655 576.655 221.122 581.11 219.157C588.065 216.09 587.368 214.001 587.368 214.001C587.368 214.001 586.641 212.38 579.368 213.935C575.021 215.337 566.351 218.661 560.541 221.935C553.718 226.087 547.139 229.037 534.374 238.427C521.139 247.533 509.287 259.375 507.873 260.89C503.201 265.896 487.481 285.747 482.676 294.961C490.321 282.646 501.776 269.606 507.073 264.083Z" fill="url(#paint0_linear)"/>
<path fill-rule="evenodd" clip-rule="evenodd" d="M481.971 272.856C478.859 270.753 477.574 262.808 497.339 247.853C502.087 244.261 506.672 242.535 511.09 242.02C507.762 243.184 502.698 245.988 499.198 248.799C487.864 257.904 480.098 271.86 488.7 277.046C487.204 276.39 485.123 274.976 483.536 273.898C482.918 273.478 482.376 273.11 481.971 272.856ZM532.221 274.767C539.621 267.639 543.459 259.806 545.554 252.221C546.263 249.652 546.773 247.111 547.153 244.636C547.689 241.149 548.074 237.54 548.442 234.084C549.022 228.645 549.561 223.586 550.586 219.977C552.925 211.742 556.442 209.216 558.552 207.702C559.023 207.363 559.424 207.075 559.726 206.785C555.574 210.774 554.857 219.331 554.031 229.195C553.389 236.856 552.681 245.306 550.246 253.017C547.968 260.23 544.179 266.797 537.518 271.465C535.753 272.701 533.985 273.799 532.221 274.767ZM571.315 237.012C580.744 223.603 585.243 206.716 568.278 204.534C567.652 204.454 567.052 204.419 566.48 204.424C573.558 205.347 583.41 216.729 571.315 237.012Z" fill="white"/>
<path d="M511.09 242.02C506.672 242.535 502.087 244.261 497.339 247.853C477.574 262.808 478.859 270.753 481.971 272.856C482.376 273.11 482.918 273.478 483.536 273.898C485.123 274.976 487.204 276.39 488.7 277.046M511.09 242.02C507.762 243.184 502.698 245.988 499.198 248.799C487.864 257.904 480.098 271.86 488.7 277.046M511.09 242.02C524.065 240.507 535.595 249.441 545.554 252.221M488.7 277.046C499.097 281.604 515.507 283.944 532.221 274.767M559.726 206.785C561.278 205.525 563.52 204.447 566.48 204.424M559.726 206.785C559.424 207.075 559.023 207.363 558.552 207.702C556.442 209.216 552.925 211.742 550.586 219.977C549.561 223.586 549.022 228.645 548.442 234.084C548.074 237.54 547.689 241.149 547.153 244.636C546.773 247.111 546.263 249.652 545.554 252.221M559.726 206.785C555.574 210.774 554.857 219.331 554.031 229.195C553.389 236.856 552.681 245.306 550.246 253.017M532.221 274.767C533.985 273.799 535.753 272.701 537.518 271.465C544.179 266.797 547.968 260.23 550.246 253.017M532.221 274.767C539.621 267.639 543.459 259.806 545.554 252.221M566.48 204.424C567.052 204.419 567.652 204.454 568.278 204.534C585.243 206.716 580.744 223.603 571.315 237.012M566.48 204.424C573.558 205.347 583.41 216.729 571.315 237.012M571.315 237.012C567.206 242.855 562.162 248.037 557.548 251.055C555.232 252.57 552.797 253.115 550.246 253.017M545.554 252.221C547.159 252.67 548.723 252.958 550.246 253.017" stroke="white"/>
<mask id="mask1" mask-type="alpha" maskUnits="userSpaceOnUse" x="514" y="234" width="32" height="25">
<rect x="514.411" y="243.406" width="26.7493" height="16.3105" transform="rotate(-19.2747 514.411 243.406)" fill="#C4C4C4"/>
</mask>
<g mask="url(#mask1)">
<path d="M507.074 264.084C513.994 256.868 522.447 251.451 522.447 251.451C522.447 251.451 508.557 267.969 506.615 270.538C504.625 273.173 493.638 290.352 493.638 290.352C493.638 290.352 505.402 273.449 510.313 268.202C515.225 262.956 521.247 257.541 525.734 254.037C540.585 242.442 551.884 235.374 556.336 232.812C564.875 227.656 576.656 221.123 581.111 219.158C588.066 216.091 587.369 214.002 587.369 214.002C587.369 214.002 586.642 212.381 579.369 213.936C575.022 215.338 566.352 218.662 560.542 221.936C553.719 226.088 547.141 229.038 534.375 238.428C521.14 247.534 509.289 259.376 507.875 260.891C503.202 265.897 487.482 285.748 482.678 294.962C490.322 282.647 501.777 269.607 507.074 264.084Z" fill="url(#paint1_linear)"/>
</g>
<mask id="mask2" mask-type="alpha" maskUnits="userSpaceOnUse" x="557" y="204" width="39" height="32">
<rect x="557.54" y="215.539" width="33.2735" height="21.2037" transform="rotate(-19.2747 557.54 215.539)" fill="#C4C4C4"/>
</mask>
<g mask="url(#mask2)">
<path d="M507.074 264.085C513.994 256.87 522.447 251.452 522.447 251.452C522.447 251.452 508.556 267.97 506.615 270.539C504.625 273.175 493.638 290.353 493.638 290.353C493.638 290.353 505.402 273.45 510.313 268.204C515.225 262.958 521.247 257.542 525.734 254.038C540.585 242.443 551.884 235.376 556.335 232.814C564.875 227.657 576.656 221.125 581.111 219.16C588.065 216.092 587.369 214.003 587.369 214.003C587.369 214.003 586.642 212.383 579.369 213.937C575.022 215.339 566.352 218.663 560.542 221.938C553.719 226.089 547.14 229.039 534.375 238.429C521.14 247.535 509.288 259.378 507.874 260.893C503.202 265.899 487.482 285.75 482.677 294.963C490.322 282.648 501.777 269.609 507.074 264.085Z" fill="url(#paint2_linear)"/>
</g>
</g>
<defs>
<linearGradient id="paint0_linear" x1="539.823" y1="205.405" x2="534.313" y2="299.599" gradientUnits="userSpaceOnUse">
<stop stop-color="#47BCFF"/>
<stop offset="0.240625" stop-color="#C1AEC0"/>
<stop offset="0.5375" stop-color="#ED6C82"/>
</linearGradient>
<linearGradient id="paint1_linear" x1="539.824" y1="205.406" x2="534.314" y2="299.6" gradientUnits="userSpaceOnUse">
<stop stop-color="#47BCFF"/>
<stop offset="0.240625" stop-color="#C1AEC0"/>
<stop offset="0.5375" stop-color="#ED6C82"/>
</linearGradient>
<linearGradient id="paint2_linear" x1="539.824" y1="205.407" x2="534.314" y2="299.602" gradientUnits="userSpaceOnUse">
<stop stop-color="#47BCFF"/>
<stop offset="0.240625" stop-color="#C1AEC0"/>
<stop offset="0.5375" stop-color="#ED6C82"/>
</linearGradient>
<clipPath id="clip0">
<rect width="1007" height="1007" fill="white"/>
</clipPath>
</defs>
</svg>
