<svg width="1648" height="1245" viewBox="0 0 1648 1245" fill="none" xmlns="http://www.w3.org/2000/svg">
<rect width="1648" height="1245" fill="white"/>
<rect x="95" y="133" width="1456" height="14" fill="#FAEBDD"/>
<rect x="95" y="967" width="1456" height="14" fill="#DDEDEA"/>
<rect x="95" y="688" width="1456" height="14" fill="#EAE4F2"/>
<rect x="95" y="411" width="1456" height="14" fill="#DDEBF1"/>
<path d="M95.96 140V139.496L98.168 139.136V121.664L95.96 121.328V120.8H110.408V126.296H109.76L107.912 121.4H100.808V130.04H103.928L105.344 126.56H105.968V134.144H105.344L103.904 130.616H100.808V139.424H108.344L110.312 134.144H110.936V140H95.96ZM112.945 139.52L114.625 139.28V128.288L112.945 128.048V127.568H117.025V130.16C117.617 129.296 118.313 128.616 119.113 128.12C119.913 127.608 120.777 127.352 121.705 127.352C122.857 127.352 123.761 127.64 124.417 128.216C125.089 128.792 125.425 129.648 125.425 130.784V139.28L127.105 139.52V140H121.585V139.52L123.025 139.28V130.832C123.025 130 122.857 129.36 122.521 128.912C122.185 128.448 121.665 128.216 120.961 128.216C120.225 128.216 119.513 128.488 118.825 129.032C118.153 129.56 117.553 130.216 117.025 131V139.28L118.465 139.52V140H112.945V139.52ZM140.491 126.44C140.491 127.064 140.259 127.6 139.795 128.048C139.331 128.496 138.595 128.784 137.587 128.912C138.003 129.52 138.211 130.352 138.211 131.408C138.211 132.656 137.763 133.64 136.867 134.36C135.987 135.08 134.867 135.44 133.507 135.44C132.947 135.44 132.435 135.392 131.971 135.296C130.947 135.36 130.435 135.76 130.435 136.496C130.435 136.912 130.603 137.216 130.939 137.408C131.291 137.6 131.843 137.696 132.595 137.696H135.283C136.579 137.696 137.539 137.96 138.163 138.488C138.803 139.016 139.123 139.92 139.123 141.2C139.123 142.096 138.891 142.92 138.427 143.672C137.979 144.424 137.323 145.016 136.459 145.448C135.595 145.896 134.563 146.12 133.363 146.12C131.555 146.12 130.219 145.848 129.355 145.304C128.507 144.76 128.083 144.04 128.083 143.144C128.083 142.6 128.291 142.12 128.707 141.704C129.123 141.288 129.691 141.08 130.411 141.08C130.555 141.08 130.851 141.112 131.299 141.176C130.803 141.704 130.555 142.328 130.555 143.048C130.555 143.736 130.795 144.336 131.275 144.848C131.755 145.36 132.539 145.616 133.627 145.616C134.571 145.616 135.411 145.432 136.147 145.064C136.899 144.712 137.475 144.248 137.875 143.672C138.275 143.096 138.475 142.504 138.475 141.896C138.475 141.224 138.259 140.736 137.827 140.432C137.395 140.144 136.627 140 135.523 140H132.595C131.475 140 130.627 139.784 130.051 139.352C129.491 138.904 129.211 138.248 129.211 137.384C129.211 136.808 129.371 136.304 129.691 135.872C130.027 135.424 130.451 135.136 130.963 135.008C129.571 134.416 128.875 133.216 128.875 131.408C128.875 130.144 129.315 129.152 130.195 128.432C131.075 127.712 132.179 127.352 133.507 127.352C135.187 127.352 136.403 127.704 137.155 128.408C137.603 128.328 137.939 128.184 138.163 127.976C138.387 127.752 138.499 127.504 138.499 127.232C138.499 126.976 138.427 126.784 138.283 126.656C138.139 126.512 137.971 126.44 137.779 126.44C137.779 126.088 137.907 125.784 138.163 125.528C138.435 125.256 138.755 125.12 139.123 125.12C139.523 125.12 139.851 125.24 140.107 125.48C140.363 125.72 140.491 126.04 140.491 126.44ZM135.955 130.808C135.955 129.832 135.747 129.08 135.331 128.552C134.931 128.024 134.323 127.76 133.507 127.76C131.923 127.76 131.131 128.776 131.131 130.808V131.984C131.131 132.928 131.323 133.672 131.707 134.216C132.107 134.76 132.707 135.032 133.507 135.032C134.323 135.032 134.931 134.76 135.331 134.216C135.747 133.672 135.955 132.928 135.955 131.984V130.808ZM143.591 124.784C143.143 124.784 142.759 124.632 142.439 124.328C142.119 124.008 141.959 123.624 141.959 123.176C141.959 122.728 142.111 122.352 142.415 122.048C142.735 121.744 143.127 121.592 143.591 121.592C144.023 121.592 144.391 121.744 144.695 122.048C144.999 122.352 145.151 122.728 145.151 123.176C145.151 123.624 144.999 124.008 144.695 124.328C144.391 124.632 144.023 124.784 143.591 124.784ZM141.047 140V139.52L142.727 139.28V128.312L141.047 128.072V127.592H145.127V139.28L146.807 139.52V140H141.047ZM147.961 139.52L149.641 139.28V128.288L147.961 128.048V127.568H152.041V130.16C152.633 129.296 153.329 128.616 154.129 128.12C154.929 127.608 155.793 127.352 156.721 127.352C157.873 127.352 158.777 127.64 159.432 128.216C160.105 128.792 160.441 129.648 160.441 130.784V139.28L162.121 139.52V140H156.601V139.52L158.041 139.28V130.832C158.041 130 157.873 129.36 157.537 128.912C157.201 128.448 156.681 128.216 155.977 128.216C155.241 128.216 154.529 128.488 153.841 129.032C153.169 129.56 152.569 130.216 152.041 131V139.28L153.48 139.52V140H147.961V139.52ZM169.915 140.24C168.731 140.24 167.659 139.976 166.699 139.448C165.739 138.904 164.979 138.144 164.419 137.168C163.859 136.192 163.579 135.064 163.579 133.784C163.579 132.504 163.851 131.384 164.395 130.424C164.955 129.448 165.699 128.696 166.627 128.168C167.571 127.624 168.619 127.352 169.771 127.352C170.779 127.352 171.683 127.576 172.483 128.024C173.283 128.472 173.907 129.096 174.355 129.896C174.803 130.68 175.035 131.584 175.051 132.608H166.219V134.984C166.219 136.392 166.531 137.536 167.155 138.416C167.795 139.28 168.715 139.712 169.915 139.712C171.019 139.712 171.995 139.4 172.843 138.776C173.691 138.152 174.211 137.344 174.403 136.352H174.955C174.731 137.536 174.163 138.48 173.251 139.184C172.339 139.888 171.227 140.24 169.915 140.24ZM172.411 132.008C172.411 130.616 172.195 129.584 171.763 128.912C171.331 128.224 170.659 127.88 169.747 127.88C168.675 127.88 167.843 128.256 167.251 129.008C166.659 129.76 166.323 130.76 166.243 132.008H172.411ZM190.31 140.48C188.822 140.48 187.358 140.056 185.918 139.208L183.878 140.24H183.35V134.072H183.878L185.942 138.536C187.27 139.48 188.79 139.952 190.502 139.952C191.91 139.952 193.07 139.584 193.982 138.848C194.91 138.096 195.374 137.048 195.374 135.704C195.374 134.728 195.078 133.96 194.486 133.4C193.894 132.824 192.934 132.368 191.606 132.032L187.622 131C186.23 130.632 185.182 130.008 184.478 129.128C183.774 128.232 183.422 127.176 183.422 125.96C183.422 124.856 183.638 123.88 184.07 123.032C184.518 122.168 185.166 121.504 186.014 121.04C186.862 120.56 187.87 120.32 189.038 120.32C190.494 120.32 191.798 120.568 192.95 121.064L194.702 120.32H195.23V125.216H194.702L192.974 121.712C191.774 121.136 190.47 120.848 189.062 120.848C187.67 120.848 186.574 121.208 185.774 121.928C184.974 122.632 184.574 123.568 184.574 124.736C184.574 125.6 184.854 126.28 185.414 126.776C185.99 127.272 186.83 127.664 187.934 127.952L192.23 129.08C193.622 129.432 194.654 130.04 195.326 130.904C196.014 131.752 196.358 133.048 196.358 134.792C196.358 136.568 195.806 137.96 194.702 138.968C193.614 139.976 192.15 140.48 190.31 140.48ZM203.535 140.24C202.383 140.24 201.471 139.952 200.799 139.376C200.143 138.8 199.815 137.944 199.815 136.808V128.288L198.135 128.048V127.568H202.215V136.76C202.215 137.576 202.383 138.216 202.719 138.68C203.055 139.144 203.575 139.376 204.279 139.376C205.015 139.376 205.719 139.136 206.391 138.656C207.079 138.16 207.687 137.552 208.215 136.832V128.288L206.535 128.048V127.568H210.615V139.28L212.295 139.52V140H208.215V137.696C207.639 138.496 206.943 139.12 206.127 139.568C205.327 140.016 204.463 140.24 203.535 140.24ZM221.507 140.24C220.563 140.24 219.747 140 219.059 139.52C218.387 139.024 217.851 138.352 217.451 137.504V140H213.371V139.52L215.051 139.28V121.52L213.371 121.28V120.8H217.451V130.088C217.851 129.24 218.387 128.576 219.059 128.096C219.747 127.6 220.563 127.352 221.507 127.352C222.643 127.352 223.643 127.616 224.507 128.144C225.371 128.672 226.043 129.424 226.523 130.4C227.003 131.36 227.243 132.488 227.243 133.784C227.243 135.08 227.003 136.216 226.523 137.192C226.043 138.152 225.371 138.904 224.507 139.448C223.643 139.976 222.643 140.24 221.507 140.24ZM221.267 139.64C223.491 139.64 224.603 138.088 224.603 134.984V132.584C224.603 129.496 223.491 127.952 221.267 127.952C220.563 127.952 219.923 128.16 219.347 128.576C218.771 128.976 218.315 129.52 217.979 130.208C217.643 130.88 217.467 131.616 217.451 132.416V134.984C217.451 135.8 217.611 136.568 217.931 137.288C218.267 138.008 218.723 138.584 219.299 139.016C219.891 139.432 220.547 139.64 221.267 139.64ZM234.026 140.24C232.714 140.24 231.618 139.96 230.738 139.4C229.858 138.84 229.418 138.112 229.418 137.216C229.418 136.752 229.538 136.392 229.778 136.136C230.034 135.864 230.37 135.728 230.786 135.728C231.106 135.728 231.378 135.808 231.602 135.968C231.826 136.128 231.986 136.352 232.082 136.64C231.73 137.024 231.554 137.432 231.554 137.864C231.554 138.36 231.778 138.792 232.226 139.16C232.674 139.528 233.274 139.712 234.026 139.712C235.034 139.712 235.858 139.488 236.498 139.04C237.138 138.576 237.458 137.96 237.458 137.192C237.458 136.744 237.322 136.408 237.05 136.184C236.778 135.96 236.25 135.704 235.466 135.416L231.842 134.096C230.418 133.584 229.706 132.632 229.706 131.24C229.706 130.104 230.098 129.176 230.882 128.456C231.666 127.72 232.746 127.352 234.122 127.352C235.258 127.352 236.226 127.616 237.026 128.144C237.842 128.656 238.25 129.392 238.25 130.352C238.25 130.736 238.146 131.048 237.938 131.288C237.73 131.512 237.458 131.624 237.122 131.624C236.786 131.624 236.506 131.536 236.282 131.36C236.074 131.168 235.97 130.912 235.97 130.592C236.178 130.432 236.322 130.264 236.402 130.088C236.482 129.896 236.522 129.672 236.522 129.416C236.522 128.968 236.322 128.6 235.922 128.312C235.538 128.024 234.938 127.88 234.122 127.88C233.418 127.88 232.81 127.992 232.298 128.216C231.802 128.424 231.426 128.704 231.17 129.056C230.914 129.408 230.786 129.768 230.786 130.136C230.786 130.52 230.922 130.824 231.194 131.048C231.482 131.272 232.002 131.52 232.754 131.792L236.114 132.992C236.898 133.28 237.49 133.68 237.89 134.192C238.29 134.704 238.49 135.368 238.49 136.184C238.49 137.352 238.122 138.32 237.386 139.088C236.65 139.856 235.53 140.24 234.026 140.24ZM242.512 147.008C241.68 147.008 241.008 146.8 240.496 146.384C239.984 145.968 239.728 145.408 239.728 144.704C239.728 144.224 239.864 143.832 240.136 143.528C240.424 143.24 240.776 143.096 241.192 143.096C241.496 143.096 241.768 143.16 242.008 143.288C242.248 143.416 242.44 143.608 242.584 143.864C242.344 144.2 242.224 144.552 242.224 144.92C242.224 145.24 242.328 145.504 242.536 145.712C242.744 145.92 243.008 146.024 243.328 146.024C243.712 146.024 244.04 145.896 244.312 145.64C244.6 145.384 244.856 144.936 245.08 144.296L246.52 140.168L240.952 128.312L239.344 128.072V127.592H245.32V128.072L243.64 128.36L247.648 136.928L250.504 128.672L248.44 128.072V127.592H252.76V128.072L251.128 128.672L245.752 144.296C245.416 145.24 245.008 145.928 244.528 146.36C244.064 146.792 243.392 147.008 242.512 147.008ZM257.815 140.24C256.503 140.24 255.407 139.96 254.527 139.4C253.647 138.84 253.207 138.112 253.207 137.216C253.207 136.752 253.327 136.392 253.567 136.136C253.823 135.864 254.159 135.728 254.575 135.728C254.895 135.728 255.167 135.808 255.391 135.968C255.615 136.128 255.775 136.352 255.871 136.64C255.519 137.024 255.343 137.432 255.343 137.864C255.343 138.36 255.567 138.792 256.015 139.16C256.463 139.528 257.063 139.712 257.815 139.712C258.823 139.712 259.647 139.488 260.287 139.04C260.927 138.576 261.247 137.96 261.247 137.192C261.247 136.744 261.111 136.408 260.839 136.184C260.567 135.96 260.039 135.704 259.255 135.416L255.631 134.096C254.207 133.584 253.495 132.632 253.495 131.24C253.495 130.104 253.887 129.176 254.671 128.456C255.455 127.72 256.535 127.352 257.911 127.352C259.047 127.352 260.015 127.616 260.815 128.144C261.631 128.656 262.039 129.392 262.039 130.352C262.039 130.736 261.935 131.048 261.727 131.288C261.519 131.512 261.247 131.624 260.911 131.624C260.575 131.624 260.295 131.536 260.071 131.36C259.863 131.168 259.759 130.912 259.759 130.592C259.967 130.432 260.111 130.264 260.191 130.088C260.271 129.896 260.311 129.672 260.311 129.416C260.311 128.968 260.111 128.6 259.711 128.312C259.327 128.024 258.727 127.88 257.911 127.88C257.207 127.88 256.599 127.992 256.087 128.216C255.591 128.424 255.215 128.704 254.959 129.056C254.703 129.408 254.575 129.768 254.575 130.136C254.575 130.52 254.711 130.824 254.983 131.048C255.271 131.272 255.791 131.52 256.543 131.792L259.903 132.992C260.687 133.28 261.279 133.68 261.679 134.192C262.079 134.704 262.279 135.368 262.279 136.184C262.279 137.352 261.911 138.32 261.175 139.088C260.439 139.856 259.319 140.24 257.815 140.24ZM269.085 140.24C268.029 140.24 267.181 139.976 266.541 139.448C265.917 138.92 265.605 138.08 265.605 136.928V128.288L263.901 128.048V127.568H265.605V125.576L268.005 124.976V127.568H271.125V128.048L268.005 128.288V136.88C268.005 138.576 268.613 139.424 269.829 139.424C270.085 139.424 270.325 139.384 270.549 139.304C270.789 139.224 270.973 139.144 271.101 139.064C271.245 138.984 271.333 138.928 271.365 138.896L271.677 139.28C270.957 139.92 270.093 140.24 269.085 140.24ZM278.431 140.24C277.247 140.24 276.175 139.976 275.215 139.448C274.255 138.904 273.495 138.144 272.935 137.168C272.375 136.192 272.095 135.064 272.095 133.784C272.095 132.504 272.367 131.384 272.911 130.424C273.471 129.448 274.215 128.696 275.143 128.168C276.087 127.624 277.135 127.352 278.287 127.352C279.295 127.352 280.199 127.576 280.999 128.024C281.799 128.472 282.423 129.096 282.871 129.896C283.319 130.68 283.551 131.584 283.567 132.608H274.735V134.984C274.735 136.392 275.047 137.536 275.671 138.416C276.311 139.28 277.231 139.712 278.431 139.712C279.535 139.712 280.511 139.4 281.359 138.776C282.207 138.152 282.727 137.344 282.919 136.352H283.471C283.247 137.536 282.679 138.48 281.767 139.184C280.855 139.888 279.743 140.24 278.431 140.24ZM280.927 132.008C280.927 130.616 280.711 129.584 280.279 128.912C279.847 128.224 279.175 127.88 278.263 127.88C277.191 127.88 276.359 128.256 275.767 129.008C275.175 129.76 274.839 130.76 274.759 132.008H280.927ZM285.164 139.52L286.844 139.28V128.288L285.164 128.048V127.568H289.244V129.776C289.82 129.024 290.468 128.432 291.188 128C291.924 127.568 292.716 127.352 293.564 127.352C294.54 127.352 295.332 127.568 295.94 128C296.564 128.416 296.956 129.048 297.116 129.896C297.692 129.112 298.348 128.496 299.084 128.048C299.82 127.584 300.628 127.352 301.508 127.352C302.644 127.352 303.524 127.64 304.148 128.216C304.788 128.776 305.108 129.632 305.108 130.784V139.28L306.788 139.52V140H301.268V139.52L302.708 139.28V130.832C302.708 129.984 302.556 129.336 302.252 128.888C301.948 128.44 301.452 128.216 300.764 128.216C300.108 128.216 299.468 128.44 298.844 128.888C298.236 129.336 297.684 129.912 297.188 130.616V139.28L298.628 139.52V140H293.324V139.52L294.764 139.28V130.832C294.764 129.984 294.612 129.336 294.308 128.888C294.004 128.44 293.508 128.216 292.82 128.216C292.164 128.216 291.524 128.44 290.9 128.888C290.292 129.336 289.74 129.912 289.244 130.616V139.28L290.684 139.52V140H285.164V139.52Z" fill="black"/>
<path d="M95.96 414.496L98.168 414.136V396.664L95.96 396.328V395.8H103.496C105.864 395.8 107.624 396.304 108.776 397.312C109.928 398.32 110.504 399.776 110.504 401.68C110.504 403.584 109.928 405.04 108.776 406.048C107.624 407.056 105.864 407.56 103.496 407.56H100.808V414.136L103.016 414.496V415H95.96V414.496ZM103.16 406.984C106.12 406.984 107.6 405.376 107.6 402.16V401.2C107.6 398 106.12 396.4 103.16 396.4H100.808V406.984H103.16ZM112.054 414.52L113.734 414.28V403.288L112.054 403.048V402.568H116.134V404.416C117.142 403.04 118.278 402.352 119.542 402.352C120.15 402.352 120.686 402.512 121.15 402.832C121.614 403.136 121.846 403.576 121.846 404.152C121.846 404.568 121.71 404.92 121.438 405.208C121.166 405.48 120.806 405.616 120.358 405.616C119.846 405.616 119.43 405.416 119.11 405.016C119.286 404.792 119.374 404.552 119.374 404.296C119.374 404.024 119.278 403.808 119.086 403.648C118.91 403.472 118.67 403.384 118.366 403.384C118.03 403.384 117.686 403.544 117.334 403.864C116.982 404.168 116.582 404.648 116.134 405.304V414.28L118.054 414.52V415H112.054V414.52ZM129.037 415.24C127.885 415.24 126.837 414.976 125.893 414.448C124.949 413.904 124.197 413.144 123.637 412.168C123.093 411.176 122.821 410.048 122.821 408.784C122.821 407.52 123.093 406.4 123.637 405.424C124.197 404.448 124.949 403.696 125.893 403.168C126.837 402.624 127.885 402.352 129.037 402.352C130.189 402.352 131.237 402.624 132.181 403.168C133.125 403.696 133.869 404.448 134.413 405.424C134.973 406.4 135.253 407.52 135.253 408.784C135.253 410.048 134.973 411.176 134.413 412.168C133.869 413.144 133.125 413.904 132.181 414.448C131.237 414.976 130.189 415.24 129.037 415.24ZM129.037 414.712C130.221 414.712 131.109 414.28 131.701 413.416C132.309 412.552 132.613 411.408 132.613 409.984V407.584C132.613 406.16 132.309 405.024 131.701 404.176C131.109 403.312 130.221 402.88 129.037 402.88C127.853 402.88 126.957 403.312 126.349 404.176C125.757 405.024 125.461 406.16 125.461 407.584V409.984C125.461 411.408 125.757 412.552 126.349 413.416C126.957 414.28 127.853 414.712 129.037 414.712ZM136.777 421.312L138.457 421.072V403.312L136.777 403.072V402.592H140.857V405.112C141.257 404.248 141.793 403.576 142.465 403.096C143.153 402.6 143.969 402.352 144.913 402.352C146.049 402.352 147.049 402.624 147.913 403.168C148.777 403.696 149.449 404.448 149.929 405.424C150.409 406.384 150.649 407.512 150.649 408.808C150.649 410.104 150.409 411.24 149.929 412.216C149.449 413.176 148.777 413.92 147.913 414.448C147.049 414.976 146.049 415.24 144.913 415.24C143.969 415.24 143.153 415 142.465 414.52C141.793 414.024 141.257 413.352 140.857 412.504V421.072L143.113 421.312V421.792H136.777V421.312ZM144.673 414.64C146.897 414.64 148.009 413.096 148.009 410.008V407.608C148.009 404.504 146.897 402.952 144.673 402.952C143.969 402.952 143.329 403.16 142.753 403.576C142.177 403.976 141.721 404.52 141.385 405.208C141.049 405.896 140.873 406.64 140.857 407.44V410.008C140.857 410.824 141.017 411.592 141.337 412.312C141.673 413.016 142.129 413.584 142.705 414.016C143.297 414.432 143.953 414.64 144.673 414.64ZM159.04 415.24C157.856 415.24 156.784 414.976 155.824 414.448C154.864 413.904 154.104 413.144 153.544 412.168C152.984 411.192 152.704 410.064 152.704 408.784C152.704 407.504 152.976 406.384 153.52 405.424C154.08 404.448 154.824 403.696 155.752 403.168C156.696 402.624 157.744 402.352 158.896 402.352C159.904 402.352 160.808 402.576 161.608 403.024C162.408 403.472 163.032 404.096 163.48 404.896C163.928 405.68 164.16 406.584 164.176 407.608H155.344V409.984C155.344 411.392 155.656 412.536 156.28 413.416C156.92 414.28 157.84 414.712 159.04 414.712C160.144 414.712 161.12 414.4 161.968 413.776C162.816 413.152 163.336 412.344 163.528 411.352H164.08C163.856 412.536 163.288 413.48 162.376 414.184C161.464 414.888 160.352 415.24 159.04 415.24ZM161.536 407.008C161.536 405.616 161.32 404.584 160.888 403.912C160.456 403.224 159.784 402.88 158.872 402.88C157.8 402.88 156.968 403.256 156.376 404.008C155.784 404.76 155.448 405.76 155.368 407.008H161.536ZM165.605 415V414.52L167.405 414.28V396.52L165.605 396.28V395.8H169.805V414.28L171.485 414.52V415H165.605ZM172.472 415V414.52L174.272 414.28V396.52L172.472 396.28V395.8H176.672V414.28L178.352 414.52V415H172.472ZM183.467 415.24C182.443 415.24 181.603 414.976 180.947 414.448C180.291 413.904 179.963 413.104 179.963 412.048C179.963 410.544 180.595 409.48 181.859 408.856C183.123 408.216 184.587 407.896 186.251 407.896H187.859V406.048C187.859 405.216 187.763 404.576 187.571 404.128C187.395 403.664 187.115 403.344 186.731 403.168C186.347 402.976 185.827 402.88 185.171 402.88C184.419 402.88 183.859 403.032 183.491 403.336C183.123 403.624 182.939 404.016 182.939 404.512C182.939 404.976 183.163 405.28 183.611 405.424C183.611 405.824 183.459 406.176 183.155 406.48C182.851 406.784 182.491 406.936 182.075 406.936C181.627 406.936 181.267 406.816 180.995 406.576C180.723 406.32 180.587 405.936 180.587 405.424C180.587 404.496 181.051 403.752 181.979 403.192C182.907 402.632 184.067 402.352 185.459 402.352C188.659 402.352 190.259 403.744 190.259 406.528V413.392C190.259 413.744 190.331 414.016 190.475 414.208C190.635 414.384 190.859 414.472 191.147 414.472C191.419 414.472 191.635 414.384 191.795 414.208C191.955 414.016 192.035 413.76 192.035 413.44H192.539C192.539 414 192.355 414.44 191.987 414.76C191.635 415.08 191.139 415.24 190.499 415.24C189.763 415.24 189.139 415.032 188.627 414.616C188.131 414.184 187.875 413.52 187.859 412.624C187.475 413.44 186.883 414.08 186.083 414.544C185.299 415.008 184.427 415.24 183.467 415.24ZM184.787 414.184C185.219 414.184 185.659 414.056 186.107 413.8C186.571 413.544 186.963 413.176 187.283 412.696C187.603 412.2 187.795 411.608 187.859 410.92V408.424H186.251C184.939 408.424 183.955 408.72 183.299 409.312C182.659 409.888 182.339 410.704 182.339 411.76C182.339 412.64 182.547 413.264 182.963 413.632C183.379 414 183.987 414.184 184.787 414.184ZM193.125 414.52L194.805 414.28V403.288L193.125 403.048V402.568H197.205V405.16C197.797 404.296 198.493 403.616 199.293 403.12C200.093 402.608 200.957 402.352 201.885 402.352C203.037 402.352 203.941 402.64 204.597 403.216C205.269 403.792 205.605 404.648 205.605 405.784V414.28L207.285 414.52V415H201.765V414.52L203.205 414.28V405.832C203.205 405 203.037 404.36 202.701 403.912C202.365 403.448 201.845 403.216 201.141 403.216C200.405 403.216 199.693 403.488 199.005 404.032C198.333 404.56 197.733 405.216 197.205 406V414.28L198.645 414.52V415H193.125V414.52ZM213.327 415.24C212.271 415.24 211.423 414.976 210.783 414.448C210.159 413.92 209.847 413.08 209.847 411.928V403.288L208.143 403.048V402.568H209.847V400.576L212.247 399.976V402.568H215.367V403.048L212.247 403.288V411.88C212.247 413.576 212.855 414.424 214.071 414.424C214.327 414.424 214.567 414.384 214.791 414.304C215.031 414.224 215.215 414.144 215.343 414.064C215.487 413.984 215.575 413.928 215.607 413.896L215.919 414.28C215.199 414.92 214.335 415.24 213.327 415.24ZM222.733 415V414.496L224.941 414.136V396.664L222.733 396.328V395.8H237.181V401.296H236.533L234.685 396.4H227.581V405.4H231.637L233.053 401.92H233.701V409.504H233.053L231.637 405.976H227.581V414.136L229.789 414.496V415H222.733ZM245.266 415.24C244.082 415.24 243.01 414.976 242.05 414.448C241.09 413.904 240.33 413.144 239.77 412.168C239.21 411.192 238.93 410.064 238.93 408.784C238.93 407.504 239.202 406.384 239.746 405.424C240.306 404.448 241.05 403.696 241.978 403.168C242.922 402.624 243.97 402.352 245.122 402.352C246.13 402.352 247.034 402.576 247.834 403.024C248.634 403.472 249.258 404.096 249.706 404.896C250.154 405.68 250.386 406.584 250.402 407.608H241.57V409.984C241.57 411.392 241.882 412.536 242.506 413.416C243.146 414.28 244.066 414.712 245.266 414.712C246.37 414.712 247.346 414.4 248.194 413.776C249.042 413.152 249.562 412.344 249.754 411.352H250.306C250.082 412.536 249.514 413.48 248.602 414.184C247.69 414.888 246.578 415.24 245.266 415.24ZM247.762 407.008C247.762 405.616 247.546 404.584 247.114 403.912C246.682 403.224 246.01 402.88 245.098 402.88C244.026 402.88 243.194 403.256 242.602 404.008C242.01 404.76 241.674 405.76 241.594 407.008H247.762ZM258.72 415.24C257.536 415.24 256.464 414.976 255.504 414.448C254.544 413.904 253.784 413.144 253.224 412.168C252.664 411.192 252.384 410.064 252.384 408.784C252.384 407.504 252.656 406.384 253.2 405.424C253.76 404.448 254.504 403.696 255.432 403.168C256.376 402.624 257.424 402.352 258.576 402.352C259.584 402.352 260.488 402.576 261.288 403.024C262.088 403.472 262.712 404.096 263.16 404.896C263.608 405.68 263.84 406.584 263.856 407.608H255.024V409.984C255.024 411.392 255.336 412.536 255.96 413.416C256.6 414.28 257.52 414.712 258.72 414.712C259.824 414.712 260.8 414.4 261.648 413.776C262.496 413.152 263.016 412.344 263.208 411.352H263.76C263.536 412.536 262.968 413.48 262.056 414.184C261.144 414.888 260.032 415.24 258.72 415.24ZM261.216 407.008C261.216 405.616 261 404.584 260.568 403.912C260.136 403.224 259.464 402.88 258.552 402.88C257.48 402.88 256.648 403.256 256.056 404.008C255.464 404.76 255.128 405.76 255.048 407.008H261.216ZM271.573 415.24C270.437 415.24 269.437 414.976 268.573 414.448C267.709 413.904 267.037 413.152 266.557 412.192C266.077 411.216 265.837 410.08 265.837 408.784C265.837 407.488 266.077 406.36 266.557 405.4C267.037 404.424 267.709 403.672 268.573 403.144C269.437 402.616 270.437 402.352 271.573 402.352C272.501 402.352 273.309 402.6 273.997 403.096C274.685 403.576 275.229 404.24 275.629 405.088V396.52L273.949 396.28V395.8H278.029V414.28L279.709 414.52V415H275.629V412.504C275.229 413.352 274.685 414.024 273.997 414.52C273.309 415 272.501 415.24 271.573 415.24ZM271.813 414.64C272.517 414.64 273.149 414.44 273.709 414.04C274.285 413.624 274.741 413.08 275.077 412.408C275.429 411.72 275.613 410.976 275.629 410.176V407.416C275.613 406.616 275.429 405.88 275.077 405.208C274.741 404.52 274.285 403.976 273.709 403.576C273.149 403.16 272.517 402.952 271.813 402.952C269.589 402.952 268.477 404.496 268.477 407.584V409.984C268.477 413.088 269.589 414.64 271.813 414.64ZM294.513 415.48C293.025 415.48 291.561 415.056 290.121 414.208L288.081 415.24H287.553V409.072H288.081L290.145 413.536C291.473 414.48 292.993 414.952 294.705 414.952C296.113 414.952 297.273 414.584 298.185 413.848C299.113 413.096 299.577 412.048 299.577 410.704C299.577 409.728 299.281 408.96 298.689 408.4C298.097 407.824 297.137 407.368 295.809 407.032L291.825 406C290.433 405.632 289.385 405.008 288.681 404.128C287.977 403.232 287.625 402.176 287.625 400.96C287.625 399.856 287.841 398.88 288.273 398.032C288.721 397.168 289.369 396.504 290.217 396.04C291.065 395.56 292.073 395.32 293.241 395.32C294.697 395.32 296.001 395.568 297.153 396.064L298.905 395.32H299.433V400.216H298.905L297.177 396.712C295.977 396.136 294.673 395.848 293.265 395.848C291.873 395.848 290.777 396.208 289.977 396.928C289.177 397.632 288.777 398.568 288.777 399.736C288.777 400.6 289.057 401.28 289.617 401.776C290.193 402.272 291.033 402.664 292.137 402.952L296.433 404.08C297.825 404.432 298.857 405.04 299.529 405.904C300.217 406.752 300.561 408.048 300.561 409.792C300.561 411.568 300.009 412.96 298.905 413.968C297.817 414.976 296.353 415.48 294.513 415.48ZM307.738 415.24C306.586 415.24 305.674 414.952 305.002 414.376C304.346 413.8 304.018 412.944 304.018 411.808V403.288L302.338 403.048V402.568H306.418V411.76C306.418 412.576 306.586 413.216 306.922 413.68C307.258 414.144 307.778 414.376 308.482 414.376C309.218 414.376 309.922 414.136 310.594 413.656C311.282 413.16 311.89 412.552 312.418 411.832V403.288L310.738 403.048V402.568H314.818V414.28L316.498 414.52V415H312.418V412.696C311.842 413.496 311.146 414.12 310.33 414.568C309.53 415.016 308.666 415.24 307.738 415.24ZM325.71 415.24C324.766 415.24 323.95 415 323.262 414.52C322.59 414.024 322.054 413.352 321.654 412.504V415H317.574V414.52L319.254 414.28V396.52L317.574 396.28V395.8H321.654V405.088C322.054 404.24 322.59 403.576 323.262 403.096C323.95 402.6 324.766 402.352 325.71 402.352C326.846 402.352 327.846 402.616 328.71 403.144C329.574 403.672 330.246 404.424 330.726 405.4C331.206 406.36 331.446 407.488 331.446 408.784C331.446 410.08 331.206 411.216 330.726 412.192C330.246 413.152 329.574 413.904 328.71 414.448C327.846 414.976 326.846 415.24 325.71 415.24ZM325.47 414.64C327.694 414.64 328.806 413.088 328.806 409.984V407.584C328.806 404.496 327.694 402.952 325.47 402.952C324.766 402.952 324.126 403.16 323.55 403.576C322.974 403.976 322.518 404.52 322.182 405.208C321.846 405.88 321.67 406.616 321.654 407.416V409.984C321.654 410.8 321.814 411.568 322.134 412.288C322.47 413.008 322.926 413.584 323.502 414.016C324.094 414.432 324.75 414.64 325.47 414.64ZM338.229 415.24C336.917 415.24 335.821 414.96 334.941 414.4C334.061 413.84 333.621 413.112 333.621 412.216C333.621 411.752 333.741 411.392 333.981 411.136C334.237 410.864 334.573 410.728 334.989 410.728C335.309 410.728 335.581 410.808 335.805 410.968C336.029 411.128 336.189 411.352 336.285 411.64C335.933 412.024 335.757 412.432 335.757 412.864C335.757 413.36 335.981 413.792 336.429 414.16C336.877 414.528 337.477 414.712 338.229 414.712C339.237 414.712 340.061 414.488 340.701 414.04C341.341 413.576 341.661 412.96 341.661 412.192C341.661 411.744 341.525 411.408 341.253 411.184C340.981 410.96 340.453 410.704 339.669 410.416L336.045 409.096C334.621 408.584 333.909 407.632 333.909 406.24C333.909 405.104 334.301 404.176 335.085 403.456C335.869 402.72 336.949 402.352 338.325 402.352C339.461 402.352 340.429 402.616 341.229 403.144C342.045 403.656 342.453 404.392 342.453 405.352C342.453 405.736 342.349 406.048 342.141 406.288C341.933 406.512 341.661 406.624 341.325 406.624C340.989 406.624 340.709 406.536 340.485 406.36C340.277 406.168 340.173 405.912 340.173 405.592C340.381 405.432 340.525 405.264 340.605 405.088C340.685 404.896 340.725 404.672 340.725 404.416C340.725 403.968 340.525 403.6 340.125 403.312C339.741 403.024 339.141 402.88 338.325 402.88C337.621 402.88 337.013 402.992 336.501 403.216C336.005 403.424 335.629 403.704 335.373 404.056C335.117 404.408 334.989 404.768 334.989 405.136C334.989 405.52 335.125 405.824 335.397 406.048C335.685 406.272 336.205 406.52 336.957 406.792L340.317 407.992C341.101 408.28 341.693 408.68 342.093 409.192C342.493 409.704 342.693 410.368 342.693 411.184C342.693 412.352 342.325 413.32 341.589 414.088C340.853 414.856 339.733 415.24 338.229 415.24ZM346.715 422.008C345.883 422.008 345.211 421.8 344.699 421.384C344.187 420.968 343.931 420.408 343.931 419.704C343.931 419.224 344.067 418.832 344.339 418.528C344.627 418.24 344.979 418.096 345.395 418.096C345.699 418.096 345.971 418.16 346.211 418.288C346.451 418.416 346.643 418.608 346.787 418.864C346.547 419.2 346.427 419.552 346.427 419.92C346.427 420.24 346.531 420.504 346.739 420.712C346.947 420.92 347.211 421.024 347.531 421.024C347.915 421.024 348.243 420.896 348.515 420.64C348.803 420.384 349.059 419.936 349.283 419.296L350.723 415.168L345.155 403.312L343.547 403.072V402.592H349.523V403.072L347.843 403.36L351.851 411.928L354.707 403.672L352.643 403.072V402.592H356.963V403.072L355.331 403.672L349.955 419.296C349.619 420.24 349.211 420.928 348.731 421.36C348.267 421.792 347.595 422.008 346.715 422.008ZM362.018 415.24C360.706 415.24 359.61 414.96 358.73 414.4C357.85 413.84 357.41 413.112 357.41 412.216C357.41 411.752 357.53 411.392 357.77 411.136C358.026 410.864 358.362 410.728 358.778 410.728C359.098 410.728 359.37 410.808 359.594 410.968C359.818 411.128 359.978 411.352 360.074 411.64C359.722 412.024 359.546 412.432 359.546 412.864C359.546 413.36 359.77 413.792 360.218 414.16C360.666 414.528 361.266 414.712 362.018 414.712C363.026 414.712 363.85 414.488 364.49 414.04C365.13 413.576 365.45 412.96 365.45 412.192C365.45 411.744 365.314 411.408 365.042 411.184C364.77 410.96 364.242 410.704 363.458 410.416L359.834 409.096C358.41 408.584 357.698 407.632 357.698 406.24C357.698 405.104 358.09 404.176 358.874 403.456C359.658 402.72 360.738 402.352 362.114 402.352C363.25 402.352 364.218 402.616 365.018 403.144C365.834 403.656 366.242 404.392 366.242 405.352C366.242 405.736 366.138 406.048 365.93 406.288C365.722 406.512 365.45 406.624 365.114 406.624C364.778 406.624 364.498 406.536 364.274 406.36C364.066 406.168 363.962 405.912 363.962 405.592C364.17 405.432 364.314 405.264 364.394 405.088C364.474 404.896 364.514 404.672 364.514 404.416C364.514 403.968 364.314 403.6 363.914 403.312C363.53 403.024 362.93 402.88 362.114 402.88C361.41 402.88 360.802 402.992 360.29 403.216C359.794 403.424 359.418 403.704 359.162 404.056C358.906 404.408 358.778 404.768 358.778 405.136C358.778 405.52 358.914 405.824 359.186 406.048C359.474 406.272 359.994 406.52 360.746 406.792L364.106 407.992C364.89 408.28 365.482 408.68 365.882 409.192C366.282 409.704 366.482 410.368 366.482 411.184C366.482 412.352 366.114 413.32 365.378 414.088C364.642 414.856 363.522 415.24 362.018 415.24ZM373.288 415.24C372.232 415.24 371.384 414.976 370.744 414.448C370.12 413.92 369.808 413.08 369.808 411.928V403.288L368.104 403.048V402.568H369.808V400.576L372.208 399.976V402.568H375.328V403.048L372.208 403.288V411.88C372.208 413.576 372.816 414.424 374.032 414.424C374.288 414.424 374.528 414.384 374.752 414.304C374.992 414.224 375.176 414.144 375.304 414.064C375.448 413.984 375.536 413.928 375.568 413.896L375.88 414.28C375.16 414.92 374.296 415.24 373.288 415.24ZM382.634 415.24C381.45 415.24 380.378 414.976 379.418 414.448C378.458 413.904 377.698 413.144 377.138 412.168C376.578 411.192 376.298 410.064 376.298 408.784C376.298 407.504 376.57 406.384 377.114 405.424C377.674 404.448 378.418 403.696 379.346 403.168C380.29 402.624 381.338 402.352 382.49 402.352C383.498 402.352 384.402 402.576 385.202 403.024C386.002 403.472 386.626 404.096 387.074 404.896C387.522 405.68 387.754 406.584 387.77 407.608H378.938V409.984C378.938 411.392 379.25 412.536 379.874 413.416C380.514 414.28 381.434 414.712 382.634 414.712C383.738 414.712 384.714 414.4 385.562 413.776C386.41 413.152 386.93 412.344 387.122 411.352H387.674C387.45 412.536 386.882 413.48 385.97 414.184C385.058 414.888 383.946 415.24 382.634 415.24ZM385.13 407.008C385.13 405.616 384.914 404.584 384.482 403.912C384.05 403.224 383.378 402.88 382.466 402.88C381.394 402.88 380.562 403.256 379.97 404.008C379.378 404.76 379.042 405.76 378.962 407.008H385.13ZM389.367 414.52L391.047 414.28V403.288L389.367 403.048V402.568H393.447V404.776C394.023 404.024 394.671 403.432 395.391 403C396.127 402.568 396.919 402.352 397.767 402.352C398.743 402.352 399.535 402.568 400.143 403C400.767 403.416 401.159 404.048 401.319 404.896C401.895 404.112 402.551 403.496 403.287 403.048C404.023 402.584 404.831 402.352 405.711 402.352C406.847 402.352 407.727 402.64 408.351 403.216C408.991 403.776 409.311 404.632 409.311 405.784V414.28L410.991 414.52V415H405.471V414.52L406.911 414.28V405.832C406.911 404.984 406.759 404.336 406.455 403.888C406.151 403.44 405.655 403.216 404.967 403.216C404.311 403.216 403.671 403.44 403.047 403.888C402.439 404.336 401.887 404.912 401.391 405.616V414.28L402.831 414.52V415H397.527V414.52L398.967 414.28V405.832C398.967 404.984 398.815 404.336 398.511 403.888C398.207 403.44 397.711 403.216 397.023 403.216C396.367 403.216 395.727 403.44 395.103 403.888C394.495 404.336 393.943 404.912 393.447 405.616V414.28L394.887 414.52V415H389.367V414.52Z" fill="black"/>
<path d="M97.984 693.48C96.24 693.48 94.712 693.056 93.4 692.208C92.088 691.36 91.072 690.176 90.352 688.656C89.648 687.136 89.296 685.384 89.296 683.4C89.296 681.416 89.656 679.664 90.376 678.144C91.112 676.608 92.144 675.424 93.472 674.592C94.816 673.744 96.36 673.32 98.104 673.32C98.792 673.32 99.488 673.44 100.192 673.68C100.912 673.92 101.56 674.256 102.136 674.688L103.744 673.32H104.248V679.272H103.744L102.256 675.552C101.696 675.04 101.04 674.632 100.288 674.328C99.552 674.024 98.824 673.872 98.104 673.872C96.984 673.872 95.992 674.16 95.128 674.736C94.28 675.312 93.616 676.152 93.136 677.256C92.656 678.36 92.416 679.672 92.416 681.192V685.584C92.416 687.104 92.648 688.416 93.112 689.52C93.576 690.624 94.224 691.472 95.056 692.064C95.888 692.64 96.864 692.928 97.984 692.928C98.8 692.928 99.616 692.752 100.432 692.4C101.248 692.032 101.928 691.544 102.472 690.936L103.864 687.072H104.368V693.24H103.864L102.136 692.016C101.56 692.48 100.904 692.84 100.168 693.096C99.432 693.352 98.704 693.48 97.984 693.48ZM112.896 693.24C111.744 693.24 110.696 692.976 109.752 692.448C108.808 691.904 108.056 691.144 107.496 690.168C106.952 689.176 106.68 688.048 106.68 686.784C106.68 685.52 106.952 684.4 107.496 683.424C108.056 682.448 108.808 681.696 109.752 681.168C110.696 680.624 111.744 680.352 112.896 680.352C114.048 680.352 115.096 680.624 116.04 681.168C116.984 681.696 117.728 682.448 118.272 683.424C118.832 684.4 119.112 685.52 119.112 686.784C119.112 688.048 118.832 689.176 118.272 690.168C117.728 691.144 116.984 691.904 116.04 692.448C115.096 692.976 114.048 693.24 112.896 693.24ZM112.896 692.712C114.08 692.712 114.968 692.28 115.56 691.416C116.168 690.552 116.472 689.408 116.472 687.984V685.584C116.472 684.16 116.168 683.024 115.56 682.176C114.968 681.312 114.08 680.88 112.896 680.88C111.712 680.88 110.816 681.312 110.208 682.176C109.616 683.024 109.32 684.16 109.32 685.584V687.984C109.32 689.408 109.616 690.552 110.208 691.416C110.816 692.28 111.712 692.712 112.896 692.712ZM120.781 692.52L122.461 692.28V681.288L120.781 681.048V680.568H124.861V683.16C125.453 682.296 126.149 681.616 126.949 681.12C127.749 680.608 128.613 680.352 129.541 680.352C130.693 680.352 131.597 680.64 132.253 681.216C132.925 681.792 133.261 682.648 133.261 683.784V692.28L134.941 692.52V693H129.421V692.52L130.861 692.28V683.832C130.861 683 130.693 682.36 130.357 681.912C130.021 681.448 129.501 681.216 128.797 681.216C128.061 681.216 127.349 681.488 126.661 682.032C125.989 682.56 125.389 683.216 124.861 684V692.28L126.301 692.52V693H120.781V692.52ZM140.983 693.24C139.927 693.24 139.079 692.976 138.439 692.448C137.815 691.92 137.503 691.08 137.503 689.928V681.288L135.799 681.048V680.568H137.503V678.576L139.903 677.976V680.568H143.023V681.048L139.903 681.288V689.88C139.903 691.576 140.511 692.424 141.727 692.424C141.983 692.424 142.223 692.384 142.447 692.304C142.687 692.224 142.871 692.144 142.999 692.064C143.143 691.984 143.231 691.928 143.263 691.896L143.575 692.28C142.855 692.92 141.991 693.24 140.983 693.24ZM144.336 692.52L146.016 692.28V681.288L144.336 681.048V680.568H148.416V682.416C149.424 681.04 150.56 680.352 151.824 680.352C152.432 680.352 152.968 680.512 153.432 680.832C153.896 681.136 154.128 681.576 154.128 682.152C154.128 682.568 153.992 682.92 153.72 683.208C153.448 683.48 153.088 683.616 152.64 683.616C152.128 683.616 151.712 683.416 151.392 683.016C151.568 682.792 151.656 682.552 151.656 682.296C151.656 682.024 151.56 681.808 151.368 681.648C151.192 681.472 150.952 681.384 150.648 681.384C150.312 681.384 149.968 681.544 149.616 681.864C149.264 682.168 148.864 682.648 148.416 683.304V692.28L150.336 692.52V693H144.336V692.52ZM161.318 693.24C160.166 693.24 159.118 692.976 158.174 692.448C157.23 691.904 156.478 691.144 155.918 690.168C155.374 689.176 155.102 688.048 155.102 686.784C155.102 685.52 155.374 684.4 155.918 683.424C156.478 682.448 157.23 681.696 158.174 681.168C159.118 680.624 160.166 680.352 161.318 680.352C162.47 680.352 163.518 680.624 164.462 681.168C165.406 681.696 166.15 682.448 166.694 683.424C167.254 684.4 167.534 685.52 167.534 686.784C167.534 688.048 167.254 689.176 166.694 690.168C166.15 691.144 165.406 691.904 164.462 692.448C163.518 692.976 162.47 693.24 161.318 693.24ZM161.318 692.712C162.502 692.712 163.39 692.28 163.982 691.416C164.59 690.552 164.894 689.408 164.894 687.984V685.584C164.894 684.16 164.59 683.024 163.982 682.176C163.39 681.312 162.502 680.88 161.318 680.88C160.134 680.88 159.238 681.312 158.63 682.176C158.038 683.024 157.742 684.16 157.742 685.584V687.984C157.742 689.408 158.038 690.552 158.63 691.416C159.238 692.28 160.134 692.712 161.318 692.712ZM169.035 693V692.52L170.835 692.28V674.52L169.035 674.28V673.8H173.235V692.28L174.915 692.52V693H169.035ZM181.182 693.24C179.87 693.24 178.774 692.96 177.894 692.4C177.014 691.84 176.574 691.112 176.574 690.216C176.574 689.752 176.694 689.392 176.934 689.136C177.19 688.864 177.526 688.728 177.942 688.728C178.262 688.728 178.534 688.808 178.758 688.968C178.982 689.128 179.142 689.352 179.238 689.64C178.886 690.024 178.71 690.432 178.71 690.864C178.71 691.36 178.934 691.792 179.382 692.16C179.83 692.528 180.43 692.712 181.182 692.712C182.19 692.712 183.014 692.488 183.654 692.04C184.294 691.576 184.614 690.96 184.614 690.192C184.614 689.744 184.478 689.408 184.206 689.184C183.934 688.96 183.406 688.704 182.622 688.416L178.998 687.096C177.574 686.584 176.862 685.632 176.862 684.24C176.862 683.104 177.254 682.176 178.038 681.456C178.822 680.72 179.902 680.352 181.278 680.352C182.414 680.352 183.382 680.616 184.182 681.144C184.998 681.656 185.406 682.392 185.406 683.352C185.406 683.736 185.302 684.048 185.094 684.288C184.886 684.512 184.614 684.624 184.278 684.624C183.942 684.624 183.662 684.536 183.438 684.36C183.23 684.168 183.126 683.912 183.126 683.592C183.334 683.432 183.478 683.264 183.558 683.088C183.638 682.896 183.678 682.672 183.678 682.416C183.678 681.968 183.478 681.6 183.078 681.312C182.694 681.024 182.094 680.88 181.278 680.88C180.574 680.88 179.966 680.992 179.454 681.216C178.958 681.424 178.582 681.704 178.326 682.056C178.07 682.408 177.942 682.768 177.942 683.136C177.942 683.52 178.078 683.824 178.35 684.048C178.638 684.272 179.158 684.52 179.91 684.792L183.27 685.992C184.054 686.28 184.646 686.68 185.046 687.192C185.446 687.704 185.646 688.368 185.646 689.184C185.646 690.352 185.278 691.32 184.542 692.088C183.806 692.856 182.686 693.24 181.182 693.24ZM201.146 693.48C199.658 693.48 198.194 693.056 196.754 692.208L194.714 693.24H194.186V687.072H194.714L196.778 691.536C198.106 692.48 199.626 692.952 201.338 692.952C202.746 692.952 203.906 692.584 204.818 691.848C205.746 691.096 206.21 690.048 206.21 688.704C206.21 687.728 205.914 686.96 205.322 686.4C204.73 685.824 203.77 685.368 202.442 685.032L198.458 684C197.066 683.632 196.018 683.008 195.314 682.128C194.61 681.232 194.258 680.176 194.258 678.96C194.258 677.856 194.474 676.88 194.906 676.032C195.354 675.168 196.002 674.504 196.85 674.04C197.698 673.56 198.706 673.32 199.874 673.32C201.33 673.32 202.634 673.568 203.786 674.064L205.538 673.32H206.066V678.216H205.538L203.81 674.712C202.61 674.136 201.306 673.848 199.898 673.848C198.506 673.848 197.41 674.208 196.61 674.928C195.81 675.632 195.41 676.568 195.41 677.736C195.41 678.6 195.69 679.28 196.25 679.776C196.826 680.272 197.666 680.664 198.77 680.952L203.066 682.08C204.458 682.432 205.49 683.04 206.162 683.904C206.85 684.752 207.194 686.048 207.194 687.792C207.194 689.568 206.642 690.96 205.538 691.968C204.45 692.976 202.986 693.48 201.146 693.48ZM214.371 693.24C213.219 693.24 212.307 692.952 211.635 692.376C210.979 691.8 210.651 690.944 210.651 689.808V681.288L208.971 681.048V680.568H213.051V689.76C213.051 690.576 213.219 691.216 213.555 691.68C213.891 692.144 214.411 692.376 215.115 692.376C215.851 692.376 216.555 692.136 217.227 691.656C217.915 691.16 218.523 690.552 219.051 689.832V681.288L217.371 681.048V680.568H221.451V692.28L223.131 692.52V693H219.051V690.696C218.475 691.496 217.779 692.12 216.963 692.568C216.163 693.016 215.299 693.24 214.371 693.24ZM232.343 693.24C231.399 693.24 230.583 693 229.895 692.52C229.223 692.024 228.687 691.352 228.287 690.504V693H224.207V692.52L225.887 692.28V674.52L224.207 674.28V673.8H228.287V683.088C228.687 682.24 229.223 681.576 229.895 681.096C230.583 680.6 231.399 680.352 232.343 680.352C233.479 680.352 234.479 680.616 235.343 681.144C236.207 681.672 236.879 682.424 237.359 683.4C237.839 684.36 238.079 685.488 238.079 686.784C238.079 688.08 237.839 689.216 237.359 690.192C236.879 691.152 236.207 691.904 235.343 692.448C234.479 692.976 233.479 693.24 232.343 693.24ZM232.103 692.64C234.327 692.64 235.439 691.088 235.439 687.984V685.584C235.439 682.496 234.327 680.952 232.103 680.952C231.399 680.952 230.759 681.16 230.183 681.576C229.607 681.976 229.151 682.52 228.815 683.208C228.479 683.88 228.303 684.616 228.287 685.416V687.984C228.287 688.8 228.447 689.568 228.767 690.288C229.103 691.008 229.559 691.584 230.135 692.016C230.727 692.432 231.383 692.64 232.103 692.64ZM244.862 693.24C243.55 693.24 242.454 692.96 241.574 692.4C240.694 691.84 240.254 691.112 240.254 690.216C240.254 689.752 240.374 689.392 240.614 689.136C240.87 688.864 241.206 688.728 241.622 688.728C241.942 688.728 242.214 688.808 242.438 688.968C242.662 689.128 242.822 689.352 242.918 689.64C242.566 690.024 242.39 690.432 242.39 690.864C242.39 691.36 242.614 691.792 243.062 692.16C243.51 692.528 244.11 692.712 244.862 692.712C245.87 692.712 246.694 692.488 247.334 692.04C247.974 691.576 248.294 690.96 248.294 690.192C248.294 689.744 248.158 689.408 247.886 689.184C247.614 688.96 247.086 688.704 246.302 688.416L242.678 687.096C241.254 686.584 240.542 685.632 240.542 684.24C240.542 683.104 240.934 682.176 241.718 681.456C242.502 680.72 243.582 680.352 244.958 680.352C246.094 680.352 247.062 680.616 247.862 681.144C248.678 681.656 249.086 682.392 249.086 683.352C249.086 683.736 248.982 684.048 248.774 684.288C248.566 684.512 248.294 684.624 247.958 684.624C247.622 684.624 247.342 684.536 247.118 684.36C246.91 684.168 246.806 683.912 246.806 683.592C247.014 683.432 247.158 683.264 247.238 683.088C247.318 682.896 247.358 682.672 247.358 682.416C247.358 681.968 247.158 681.6 246.758 681.312C246.374 681.024 245.774 680.88 244.958 680.88C244.254 680.88 243.646 680.992 243.134 681.216C242.638 681.424 242.262 681.704 242.006 682.056C241.75 682.408 241.622 682.768 241.622 683.136C241.622 683.52 241.758 683.824 242.03 684.048C242.318 684.272 242.838 684.52 243.59 684.792L246.95 685.992C247.734 686.28 248.326 686.68 248.726 687.192C249.126 687.704 249.326 688.368 249.326 689.184C249.326 690.352 248.958 691.32 248.222 692.088C247.486 692.856 246.366 693.24 244.862 693.24ZM253.348 700.008C252.516 700.008 251.844 699.8 251.332 699.384C250.82 698.968 250.564 698.408 250.564 697.704C250.564 697.224 250.7 696.832 250.972 696.528C251.26 696.24 251.612 696.096 252.028 696.096C252.332 696.096 252.604 696.16 252.844 696.288C253.084 696.416 253.276 696.608 253.42 696.864C253.18 697.2 253.06 697.552 253.06 697.92C253.06 698.24 253.164 698.504 253.372 698.712C253.58 698.92 253.844 699.024 254.164 699.024C254.548 699.024 254.876 698.896 255.148 698.64C255.436 698.384 255.692 697.936 255.916 697.296L257.356 693.168L251.788 681.312L250.18 681.072V680.592H256.156V681.072L254.476 681.36L258.484 689.928L261.34 681.672L259.276 681.072V680.592H263.596V681.072L261.964 681.672L256.588 697.296C256.252 698.24 255.844 698.928 255.364 699.36C254.9 699.792 254.228 700.008 253.348 700.008ZM268.651 693.24C267.339 693.24 266.243 692.96 265.363 692.4C264.483 691.84 264.043 691.112 264.043 690.216C264.043 689.752 264.163 689.392 264.403 689.136C264.659 688.864 264.995 688.728 265.411 688.728C265.731 688.728 266.003 688.808 266.227 688.968C266.451 689.128 266.611 689.352 266.707 689.64C266.355 690.024 266.179 690.432 266.179 690.864C266.179 691.36 266.403 691.792 266.851 692.16C267.299 692.528 267.899 692.712 268.651 692.712C269.659 692.712 270.483 692.488 271.123 692.04C271.763 691.576 272.083 690.96 272.083 690.192C272.083 689.744 271.947 689.408 271.675 689.184C271.403 688.96 270.875 688.704 270.091 688.416L266.467 687.096C265.043 686.584 264.331 685.632 264.331 684.24C264.331 683.104 264.723 682.176 265.507 681.456C266.291 680.72 267.371 680.352 268.747 680.352C269.883 680.352 270.851 680.616 271.651 681.144C272.467 681.656 272.875 682.392 272.875 683.352C272.875 683.736 272.771 684.048 272.563 684.288C272.355 684.512 272.083 684.624 271.747 684.624C271.411 684.624 271.131 684.536 270.907 684.36C270.699 684.168 270.595 683.912 270.595 683.592C270.803 683.432 270.947 683.264 271.027 683.088C271.107 682.896 271.147 682.672 271.147 682.416C271.147 681.968 270.947 681.6 270.547 681.312C270.163 681.024 269.563 680.88 268.747 680.88C268.043 680.88 267.435 680.992 266.923 681.216C266.427 681.424 266.051 681.704 265.795 682.056C265.539 682.408 265.411 682.768 265.411 683.136C265.411 683.52 265.547 683.824 265.819 684.048C266.107 684.272 266.627 684.52 267.379 684.792L270.739 685.992C271.523 686.28 272.115 686.68 272.515 687.192C272.915 687.704 273.115 688.368 273.115 689.184C273.115 690.352 272.747 691.32 272.011 692.088C271.275 692.856 270.155 693.24 268.651 693.24ZM279.921 693.24C278.865 693.24 278.017 692.976 277.377 692.448C276.753 691.92 276.441 691.08 276.441 689.928V681.288L274.737 681.048V680.568H276.441V678.576L278.841 677.976V680.568H281.961V681.048L278.841 681.288V689.88C278.841 691.576 279.449 692.424 280.665 692.424C280.921 692.424 281.161 692.384 281.385 692.304C281.625 692.224 281.809 692.144 281.937 692.064C282.081 691.984 282.169 691.928 282.201 691.896L282.513 692.28C281.793 692.92 280.929 693.24 279.921 693.24ZM289.266 693.24C288.082 693.24 287.01 692.976 286.05 692.448C285.09 691.904 284.33 691.144 283.77 690.168C283.21 689.192 282.93 688.064 282.93 686.784C282.93 685.504 283.202 684.384 283.746 683.424C284.306 682.448 285.05 681.696 285.978 681.168C286.922 680.624 287.97 680.352 289.122 680.352C290.13 680.352 291.034 680.576 291.834 681.024C292.634 681.472 293.258 682.096 293.706 682.896C294.154 683.68 294.386 684.584 294.402 685.608H285.57V687.984C285.57 689.392 285.882 690.536 286.506 691.416C287.146 692.28 288.066 692.712 289.266 692.712C290.37 692.712 291.346 692.4 292.194 691.776C293.042 691.152 293.562 690.344 293.754 689.352H294.306C294.082 690.536 293.514 691.48 292.602 692.184C291.69 692.888 290.578 693.24 289.266 693.24ZM291.762 685.008C291.762 683.616 291.546 682.584 291.114 681.912C290.682 681.224 290.01 680.88 289.098 680.88C288.026 680.88 287.194 681.256 286.602 682.008C286.01 682.76 285.674 683.76 285.594 685.008H291.762ZM296 692.52L297.68 692.28V681.288L296 681.048V680.568H300.08V682.776C300.656 682.024 301.304 681.432 302.024 681C302.76 680.568 303.552 680.352 304.4 680.352C305.376 680.352 306.168 680.568 306.776 681C307.4 681.416 307.792 682.048 307.952 682.896C308.528 682.112 309.184 681.496 309.92 681.048C310.656 680.584 311.464 680.352 312.344 680.352C313.48 680.352 314.36 680.64 314.984 681.216C315.624 681.776 315.944 682.632 315.944 683.784V692.28L317.624 692.52V693H312.104V692.52L313.544 692.28V683.832C313.544 682.984 313.392 682.336 313.088 681.888C312.784 681.44 312.288 681.216 311.6 681.216C310.944 681.216 310.304 681.44 309.68 681.888C309.072 682.336 308.52 682.912 308.024 683.616V692.28L309.464 692.52V693H304.16V692.52L305.6 692.28V683.832C305.6 682.984 305.448 682.336 305.144 681.888C304.84 681.44 304.344 681.216 303.656 681.216C303 681.216 302.36 681.44 301.736 681.888C301.128 682.336 300.576 682.912 300.08 683.616V692.28L301.52 692.52V693H296V692.52Z" fill="black"/>
<path d="M98.344 971.48C96.6 971.48 95.04 971.056 93.664 970.208C92.288 969.36 91.216 968.176 90.448 966.656C89.68 965.12 89.296 963.368 89.296 961.4C89.296 959.432 89.68 957.688 90.448 956.168C91.216 954.632 92.288 953.44 93.664 952.592C95.04 951.744 96.6 951.32 98.344 951.32C100.088 951.32 101.648 951.744 103.024 952.592C104.4 953.44 105.472 954.632 106.24 956.168C107.008 957.688 107.392 959.432 107.392 961.4C107.392 963.368 107.008 965.12 106.24 966.656C105.472 968.176 104.4 969.36 103.024 970.208C101.648 971.056 100.088 971.48 98.344 971.48ZM98.344 970.928C99.496 970.928 100.528 970.624 101.44 970.016C102.368 969.408 103.096 968.528 103.624 967.376C104.152 966.208 104.416 964.832 104.416 963.248V959.552C104.416 957.968 104.152 956.6 103.624 955.448C103.096 954.28 102.368 953.392 101.44 952.784C100.528 952.176 99.496 951.872 98.344 951.872C97.176 951.872 96.136 952.176 95.224 952.784C94.312 953.392 93.592 954.28 93.064 955.448C92.536 956.6 92.272 957.968 92.272 959.552V963.248C92.272 964.832 92.536 966.208 93.064 967.376C93.592 968.528 94.312 969.408 95.224 970.016C96.136 970.624 97.176 970.928 98.344 970.928ZM109.199 977.312L110.879 977.072V959.312L109.199 959.072V958.592H113.279V961.112C113.679 960.248 114.215 959.576 114.887 959.096C115.575 958.6 116.391 958.352 117.335 958.352C118.471 958.352 119.471 958.624 120.335 959.168C121.199 959.696 121.871 960.448 122.351 961.424C122.831 962.384 123.071 963.512 123.071 964.808C123.071 966.104 122.831 967.24 122.351 968.216C121.871 969.176 121.199 969.92 120.335 970.448C119.471 970.976 118.471 971.24 117.335 971.24C116.391 971.24 115.575 971 114.887 970.52C114.215 970.024 113.679 969.352 113.279 968.504V977.072L115.535 977.312V977.792H109.199V977.312ZM117.095 970.64C119.319 970.64 120.431 969.096 120.431 966.008V963.608C120.431 960.504 119.319 958.952 117.095 958.952C116.391 958.952 115.751 959.16 115.175 959.576C114.599 959.976 114.143 960.52 113.807 961.208C113.471 961.896 113.295 962.64 113.279 963.44V966.008C113.279 966.824 113.439 967.592 113.759 968.312C114.095 969.016 114.551 969.584 115.127 970.016C115.719 970.432 116.375 970.64 117.095 970.64ZM131.462 971.24C130.278 971.24 129.206 970.976 128.246 970.448C127.286 969.904 126.526 969.144 125.966 968.168C125.406 967.192 125.126 966.064 125.126 964.784C125.126 963.504 125.398 962.384 125.942 961.424C126.502 960.448 127.246 959.696 128.174 959.168C129.118 958.624 130.166 958.352 131.318 958.352C132.326 958.352 133.23 958.576 134.03 959.024C134.83 959.472 135.454 960.096 135.902 960.896C136.35 961.68 136.582 962.584 136.598 963.608H127.766V965.984C127.766 967.392 128.078 968.536 128.702 969.416C129.342 970.28 130.262 970.712 131.462 970.712C132.566 970.712 133.542 970.4 134.39 969.776C135.238 969.152 135.758 968.344 135.95 967.352H136.502C136.278 968.536 135.71 969.48 134.798 970.184C133.886 970.888 132.774 971.24 131.462 971.24ZM133.958 963.008C133.958 961.616 133.742 960.584 133.31 959.912C132.878 959.224 132.206 958.88 131.294 958.88C130.222 958.88 129.39 959.256 128.798 960.008C128.206 960.76 127.87 961.76 127.79 963.008H133.958ZM138.195 970.52L139.875 970.28V959.288L138.195 959.048V958.568H142.275V960.416C143.283 959.04 144.419 958.352 145.683 958.352C146.291 958.352 146.827 958.512 147.291 958.832C147.755 959.136 147.987 959.576 147.987 960.152C147.987 960.568 147.851 960.92 147.579 961.208C147.307 961.48 146.947 961.616 146.499 961.616C145.987 961.616 145.571 961.416 145.251 961.016C145.427 960.792 145.515 960.552 145.515 960.296C145.515 960.024 145.419 959.808 145.227 959.648C145.051 959.472 144.811 959.384 144.507 959.384C144.171 959.384 143.827 959.544 143.475 959.864C143.123 960.168 142.723 960.648 142.275 961.304V970.28L144.195 970.52V971H138.195V970.52ZM152.772 971.24C151.748 971.24 150.908 970.976 150.252 970.448C149.596 969.904 149.268 969.104 149.268 968.048C149.268 966.544 149.9 965.48 151.164 964.856C152.428 964.216 153.892 963.896 155.556 963.896H157.164V962.048C157.164 961.216 157.068 960.576 156.876 960.128C156.7 959.664 156.42 959.344 156.036 959.168C155.652 958.976 155.132 958.88 154.476 958.88C153.724 958.88 153.164 959.032 152.796 959.336C152.428 959.624 152.244 960.016 152.244 960.512C152.244 960.976 152.468 961.28 152.916 961.424C152.916 961.824 152.764 962.176 152.46 962.48C152.156 962.784 151.796 962.936 151.38 962.936C150.932 962.936 150.572 962.816 150.3 962.576C150.028 962.32 149.892 961.936 149.892 961.424C149.892 960.496 150.356 959.752 151.284 959.192C152.212 958.632 153.372 958.352 154.764 958.352C157.964 958.352 159.564 959.744 159.564 962.528V969.392C159.564 969.744 159.636 970.016 159.78 970.208C159.94 970.384 160.164 970.472 160.452 970.472C160.724 970.472 160.94 970.384 161.1 970.208C161.26 970.016 161.34 969.76 161.34 969.44H161.844C161.844 970 161.66 970.44 161.292 970.76C160.94 971.08 160.444 971.24 159.804 971.24C159.068 971.24 158.444 971.032 157.932 970.616C157.436 970.184 157.18 969.52 157.164 968.624C156.78 969.44 156.188 970.08 155.388 970.544C154.604 971.008 153.732 971.24 152.772 971.24ZM154.092 970.184C154.524 970.184 154.964 970.056 155.412 969.8C155.876 969.544 156.268 969.176 156.588 968.696C156.908 968.2 157.1 967.608 157.164 966.92V964.424H155.556C154.244 964.424 153.26 964.72 152.604 965.312C151.964 965.888 151.644 966.704 151.644 967.76C151.644 968.64 151.852 969.264 152.268 969.632C152.684 970 153.292 970.184 154.092 970.184ZM167.397 971.24C166.341 971.24 165.493 970.976 164.853 970.448C164.229 969.92 163.917 969.08 163.917 967.928V959.288L162.213 959.048V958.568H163.917V956.576L166.317 955.976V958.568H169.437V959.048L166.317 959.288V967.88C166.317 969.576 166.925 970.424 168.141 970.424C168.397 970.424 168.637 970.384 168.861 970.304C169.101 970.224 169.285 970.144 169.413 970.064C169.557 969.984 169.645 969.928 169.677 969.896L169.989 970.28C169.269 970.92 168.405 971.24 167.397 971.24ZM173.318 955.784C172.87 955.784 172.486 955.632 172.166 955.328C171.846 955.008 171.686 954.624 171.686 954.176C171.686 953.728 171.838 953.352 172.142 953.048C172.462 952.744 172.854 952.592 173.318 952.592C173.75 952.592 174.118 952.744 174.422 953.048C174.726 953.352 174.878 953.728 174.878 954.176C174.878 954.624 174.726 955.008 174.422 955.328C174.118 955.632 173.75 955.784 173.318 955.784ZM170.774 971V970.52L172.454 970.28V959.312L170.774 959.072V958.592H174.854V970.28L176.534 970.52V971H170.774ZM184.287 971.24C183.135 971.24 182.087 970.976 181.143 970.448C180.199 969.904 179.447 969.144 178.887 968.168C178.343 967.176 178.071 966.048 178.071 964.784C178.071 963.52 178.343 962.4 178.887 961.424C179.447 960.448 180.199 959.696 181.143 959.168C182.087 958.624 183.135 958.352 184.287 958.352C185.439 958.352 186.487 958.624 187.431 959.168C188.375 959.696 189.119 960.448 189.663 961.424C190.223 962.4 190.503 963.52 190.503 964.784C190.503 966.048 190.223 967.176 189.663 968.168C189.119 969.144 188.375 969.904 187.431 970.448C186.487 970.976 185.439 971.24 184.287 971.24ZM184.287 970.712C185.471 970.712 186.359 970.28 186.951 969.416C187.559 968.552 187.863 967.408 187.863 965.984V963.584C187.863 962.16 187.559 961.024 186.951 960.176C186.359 959.312 185.471 958.88 184.287 958.88C183.103 958.88 182.207 959.312 181.599 960.176C181.007 961.024 180.711 962.16 180.711 963.584V965.984C180.711 967.408 181.007 968.552 181.599 969.416C182.207 970.28 183.103 970.712 184.287 970.712ZM192.171 970.52L193.851 970.28V959.288L192.171 959.048V958.568H196.251V961.16C196.843 960.296 197.539 959.616 198.339 959.12C199.139 958.608 200.003 958.352 200.931 958.352C202.083 958.352 202.987 958.64 203.643 959.216C204.315 959.792 204.651 960.648 204.651 961.784V970.28L206.331 970.52V971H200.811V970.52L202.251 970.28V961.832C202.251 961 202.083 960.36 201.747 959.912C201.411 959.448 200.891 959.216 200.187 959.216C199.451 959.216 198.739 959.488 198.051 960.032C197.379 960.56 196.779 961.216 196.251 962V970.28L197.691 970.52V971H192.171V970.52ZM212.518 971.24C211.206 971.24 210.11 970.96 209.23 970.4C208.35 969.84 207.91 969.112 207.91 968.216C207.91 967.752 208.03 967.392 208.27 967.136C208.526 966.864 208.862 966.728 209.278 966.728C209.598 966.728 209.87 966.808 210.094 966.968C210.318 967.128 210.478 967.352 210.574 967.64C210.222 968.024 210.046 968.432 210.046 968.864C210.046 969.36 210.27 969.792 210.718 970.16C211.166 970.528 211.766 970.712 212.518 970.712C213.526 970.712 214.35 970.488 214.99 970.04C215.63 969.576 215.95 968.96 215.95 968.192C215.95 967.744 215.814 967.408 215.542 967.184C215.27 966.96 214.742 966.704 213.958 966.416L210.334 965.096C208.91 964.584 208.198 963.632 208.198 962.24C208.198 961.104 208.59 960.176 209.374 959.456C210.158 958.72 211.238 958.352 212.614 958.352C213.75 958.352 214.718 958.616 215.518 959.144C216.334 959.656 216.742 960.392 216.742 961.352C216.742 961.736 216.638 962.048 216.43 962.288C216.222 962.512 215.95 962.624 215.614 962.624C215.278 962.624 214.998 962.536 214.774 962.36C214.566 962.168 214.462 961.912 214.462 961.592C214.67 961.432 214.814 961.264 214.894 961.088C214.974 960.896 215.014 960.672 215.014 960.416C215.014 959.968 214.814 959.6 214.414 959.312C214.03 959.024 213.43 958.88 212.614 958.88C211.91 958.88 211.302 958.992 210.79 959.216C210.294 959.424 209.918 959.704 209.662 960.056C209.406 960.408 209.278 960.768 209.278 961.136C209.278 961.52 209.414 961.824 209.686 962.048C209.974 962.272 210.494 962.52 211.246 962.792L214.606 963.992C215.39 964.28 215.982 964.68 216.382 965.192C216.782 965.704 216.982 966.368 216.982 967.184C216.982 968.352 216.614 969.32 215.878 970.088C215.142 970.856 214.022 971.24 212.518 971.24ZM228.522 971.24C227.498 971.24 226.658 970.976 226.002 970.448C225.346 969.904 225.018 969.104 225.018 968.048C225.018 966.544 225.65 965.48 226.914 964.856C228.178 964.216 229.642 963.896 231.306 963.896H232.914V962.048C232.914 961.216 232.818 960.576 232.626 960.128C232.45 959.664 232.17 959.344 231.786 959.168C231.402 958.976 230.882 958.88 230.226 958.88C229.474 958.88 228.914 959.032 228.546 959.336C228.178 959.624 227.994 960.016 227.994 960.512C227.994 960.976 228.218 961.28 228.666 961.424C228.666 961.824 228.514 962.176 228.21 962.48C227.906 962.784 227.546 962.936 227.13 962.936C226.682 962.936 226.322 962.816 226.05 962.576C225.778 962.32 225.642 961.936 225.642 961.424C225.642 960.496 226.106 959.752 227.034 959.192C227.962 958.632 229.122 958.352 230.514 958.352C233.714 958.352 235.314 959.744 235.314 962.528V969.392C235.314 969.744 235.386 970.016 235.53 970.208C235.69 970.384 235.914 970.472 236.202 970.472C236.474 970.472 236.69 970.384 236.85 970.208C237.01 970.016 237.09 969.76 237.09 969.44H237.594C237.594 970 237.41 970.44 237.042 970.76C236.69 971.08 236.194 971.24 235.554 971.24C234.818 971.24 234.194 971.032 233.682 970.616C233.186 970.184 232.93 969.52 232.914 968.624C232.53 969.44 231.938 970.08 231.138 970.544C230.354 971.008 229.482 971.24 228.522 971.24ZM229.842 970.184C230.274 970.184 230.714 970.056 231.162 969.8C231.626 969.544 232.018 969.176 232.338 968.696C232.658 968.2 232.85 967.608 232.914 966.92V964.424H231.306C229.994 964.424 229.01 964.72 228.354 965.312C227.714 965.888 227.394 966.704 227.394 967.76C227.394 968.64 227.602 969.264 228.018 969.632C228.434 970 229.042 970.184 229.842 970.184ZM238.179 970.52L239.859 970.28V959.288L238.179 959.048V958.568H242.259V961.16C242.851 960.296 243.547 959.616 244.347 959.12C245.147 958.608 246.011 958.352 246.939 958.352C248.091 958.352 248.995 958.64 249.651 959.216C250.323 959.792 250.659 960.648 250.659 961.784V970.28L252.339 970.52V971H246.819V970.52L248.259 970.28V961.832C248.259 961 248.091 960.36 247.755 959.912C247.419 959.448 246.899 959.216 246.195 959.216C245.459 959.216 244.747 959.488 244.059 960.032C243.387 960.56 242.787 961.216 242.259 962V970.28L243.699 970.52V971H238.179V970.52ZM259.534 971.24C258.398 971.24 257.398 970.976 256.534 970.448C255.67 969.904 254.998 969.152 254.518 968.192C254.038 967.216 253.798 966.08 253.798 964.784C253.798 963.488 254.038 962.36 254.518 961.4C254.998 960.424 255.67 959.672 256.534 959.144C257.398 958.616 258.398 958.352 259.534 958.352C260.462 958.352 261.27 958.6 261.958 959.096C262.646 959.576 263.19 960.24 263.59 961.088V952.52L261.91 952.28V951.8H265.99V970.28L267.67 970.52V971H263.59V968.504C263.19 969.352 262.646 970.024 261.958 970.52C261.27 971 260.462 971.24 259.534 971.24ZM259.774 970.64C260.478 970.64 261.11 970.44 261.67 970.04C262.246 969.624 262.702 969.08 263.038 968.408C263.39 967.72 263.574 966.976 263.59 966.176V963.416C263.574 962.616 263.39 961.88 263.038 961.208C262.702 960.52 262.246 959.976 261.67 959.576C261.11 959.16 260.478 958.952 259.774 958.952C257.55 958.952 256.438 960.496 256.438 963.584V965.984C256.438 969.088 257.55 970.64 259.774 970.64ZM274.866 971V970.496L277.074 970.136V952.664L274.866 952.328V951.8H289.314V957.296H288.666L286.818 952.4H279.714V961.4H283.77L285.186 957.92H285.834V965.504H285.186L283.77 961.976H279.714V970.136L281.922 970.496V971H274.866ZM293.247 955.784C292.799 955.784 292.415 955.632 292.095 955.328C291.775 955.008 291.615 954.624 291.615 954.176C291.615 953.728 291.767 953.352 292.071 953.048C292.391 952.744 292.783 952.592 293.247 952.592C293.679 952.592 294.047 952.744 294.351 953.048C294.655 953.352 294.807 953.728 294.807 954.176C294.807 954.624 294.655 955.008 294.351 955.328C294.047 955.632 293.679 955.784 293.247 955.784ZM290.703 971V970.52L292.383 970.28V959.312L290.703 959.072V958.592H294.783V970.28L296.463 970.52V971H290.703ZM297.617 970.52L299.297 970.28V959.288L297.617 959.048V958.568H301.697V961.16C302.289 960.296 302.985 959.616 303.785 959.12C304.585 958.608 305.449 958.352 306.377 958.352C307.529 958.352 308.433 958.64 309.089 959.216C309.761 959.792 310.097 960.648 310.097 961.784V970.28L311.777 970.52V971H306.257V970.52L307.697 970.28V961.832C307.697 961 307.529 960.36 307.193 959.912C306.857 959.448 306.337 959.216 305.633 959.216C304.897 959.216 304.185 959.488 303.497 960.032C302.825 960.56 302.225 961.216 301.697 962V970.28L303.137 970.52V971H297.617V970.52ZM316.811 971.24C315.787 971.24 314.947 970.976 314.291 970.448C313.635 969.904 313.307 969.104 313.307 968.048C313.307 966.544 313.939 965.48 315.203 964.856C316.467 964.216 317.931 963.896 319.595 963.896H321.203V962.048C321.203 961.216 321.107 960.576 320.915 960.128C320.739 959.664 320.459 959.344 320.075 959.168C319.691 958.976 319.171 958.88 318.515 958.88C317.763 958.88 317.203 959.032 316.835 959.336C316.467 959.624 316.283 960.016 316.283 960.512C316.283 960.976 316.507 961.28 316.955 961.424C316.955 961.824 316.803 962.176 316.499 962.48C316.195 962.784 315.835 962.936 315.419 962.936C314.971 962.936 314.611 962.816 314.339 962.576C314.067 962.32 313.931 961.936 313.931 961.424C313.931 960.496 314.395 959.752 315.323 959.192C316.251 958.632 317.411 958.352 318.803 958.352C322.003 958.352 323.603 959.744 323.603 962.528V969.392C323.603 969.744 323.675 970.016 323.819 970.208C323.979 970.384 324.203 970.472 324.491 970.472C324.763 970.472 324.979 970.384 325.139 970.208C325.299 970.016 325.379 969.76 325.379 969.44H325.883C325.883 970 325.699 970.44 325.331 970.76C324.979 971.08 324.483 971.24 323.843 971.24C323.107 971.24 322.483 971.032 321.971 970.616C321.475 970.184 321.219 969.52 321.203 968.624C320.819 969.44 320.227 970.08 319.427 970.544C318.643 971.008 317.771 971.24 316.811 971.24ZM318.131 970.184C318.563 970.184 319.003 970.056 319.451 969.8C319.915 969.544 320.307 969.176 320.627 968.696C320.947 968.2 321.139 967.608 321.203 966.92V964.424H319.595C318.283 964.424 317.299 964.72 316.643 965.312C316.003 965.888 315.683 966.704 315.683 967.76C315.683 968.64 315.891 969.264 316.307 969.632C316.723 970 317.331 970.184 318.131 970.184ZM326.468 970.52L328.148 970.28V959.288L326.468 959.048V958.568H330.548V961.16C331.14 960.296 331.836 959.616 332.636 959.12C333.436 958.608 334.3 958.352 335.228 958.352C336.38 958.352 337.284 958.64 337.94 959.216C338.612 959.792 338.948 960.648 338.948 961.784V970.28L340.628 970.52V971H335.108V970.52L336.548 970.28V961.832C336.548 961 336.38 960.36 336.044 959.912C335.708 959.448 335.188 959.216 334.484 959.216C333.748 959.216 333.036 959.488 332.348 960.032C331.676 960.56 331.076 961.216 330.548 962V970.28L331.988 970.52V971H326.468V970.52ZM348.303 971.24C347.151 971.24 346.103 970.976 345.159 970.448C344.215 969.904 343.463 969.144 342.903 968.168C342.359 967.176 342.087 966.048 342.087 964.784C342.087 963.456 342.375 962.304 342.951 961.328C343.543 960.352 344.311 959.616 345.255 959.12C346.199 958.608 347.215 958.352 348.303 958.352C349.215 958.352 350.047 958.512 350.799 958.832C351.551 959.136 352.143 959.568 352.575 960.128C353.023 960.688 353.247 961.32 353.247 962.024C353.247 962.552 353.111 962.96 352.839 963.248C352.567 963.52 352.207 963.656 351.759 963.656C351.327 963.656 350.967 963.512 350.679 963.224C350.391 962.936 350.247 962.576 350.247 962.144C350.487 961.984 350.655 961.808 350.751 961.616C350.847 961.424 350.895 961.184 350.895 960.896C350.895 960.304 350.655 959.824 350.175 959.456C349.711 959.072 349.087 958.88 348.303 958.88C347.151 958.88 346.263 959.296 345.639 960.128C345.031 960.944 344.727 962.096 344.727 963.584V965.984C344.727 967.408 345.023 968.552 345.615 969.416C346.223 970.28 347.119 970.712 348.303 970.712C349.391 970.712 350.335 970.408 351.135 969.8C351.951 969.176 352.455 968.36 352.647 967.352H353.199C352.975 968.536 352.415 969.48 351.519 970.184C350.639 970.888 349.567 971.24 348.303 971.24ZM361.548 971.24C360.364 971.24 359.292 970.976 358.332 970.448C357.372 969.904 356.612 969.144 356.052 968.168C355.492 967.192 355.212 966.064 355.212 964.784C355.212 963.504 355.484 962.384 356.028 961.424C356.588 960.448 357.332 959.696 358.26 959.168C359.204 958.624 360.252 958.352 361.404 958.352C362.412 958.352 363.316 958.576 364.116 959.024C364.916 959.472 365.54 960.096 365.988 960.896C366.436 961.68 366.668 962.584 366.684 963.608H357.852V965.984C357.852 967.392 358.164 968.536 358.788 969.416C359.428 970.28 360.348 970.712 361.548 970.712C362.652 970.712 363.628 970.4 364.476 969.776C365.324 969.152 365.844 968.344 366.036 967.352H366.588C366.364 968.536 365.796 969.48 364.884 970.184C363.972 970.888 362.86 971.24 361.548 971.24ZM364.044 963.008C364.044 961.616 363.828 960.584 363.396 959.912C362.964 959.224 362.292 958.88 361.38 958.88C360.308 958.88 359.476 959.256 358.884 960.008C358.292 960.76 357.956 961.76 357.876 963.008H364.044Z" fill="black"/>
<line x1="430.5" y1="979" x2="430.5" y2="133" stroke="black"/>
<line x1="1550.5" y1="980" x2="1550.5" y2="134" stroke="black"/>
</svg>
